
<svg width="32" height="33" viewBox="0 0 32 33" fill="none">
<rect y="0.5" width="32" height="32" rx="16" fill="${color}" fill-opacity="0.1"/>
<path opacity="0.2" d="M16 22.5C19.3137 22.5 22 19.8137 22 16.5C22 13.1863 19.3137 10.5 16 10.5C12.6863 10.5 10 13.1863 10 16.5C10 19.8137 12.6863 22.5 16 22.5Z" fill="${color}"/>
<path fill-rule="evenodd" clip-rule="evenodd" d="M16 11C12.9624 11 10.5 13.4624 10.5 16.5C10.5 19.5376 12.9624 22 16 22C19.0376 22 21.5 19.5376 21.5 16.5C21.5 13.4624 19.0376 11 16 11ZM9.5 16.5C9.5 12.9101 12.4101 10 16 10C19.5899 10 22.5 12.9101 22.5 16.5C22.5 20.0899 19.5899 23 16 23C12.4101 23 9.5 20.0899 9.5 16.5Z" fill="${color}"/>
<path d="M16 14.5C16.4142 14.5 16.75 14.1642 16.75 13.75C16.75 13.3358 16.4142 13 16 13C15.5858 13 15.25 13.3358 15.25 13.75C15.25 14.1642 15.5858 14.5 16 14.5Z" fill="${color}"/>
<path fill-rule="evenodd" clip-rule="evenodd" d="M15 16C15 15.7239 15.2239 15.5 15.5 15.5H16C16.2761 15.5 16.5 15.7239 16.5 16V19C16.7761 19 17 19.2239 17 19.5C17 19.7761 16.7761 20 16.5 20H16C15.7239 20 15.5 19.7761 15.5 19.5V16.5C15.2239 16.5 15 16.2761 15 16Z" fill="${color}"/>
</svg>