
<svg width="24" height="25" viewBox="0 0 24 25" fill="none">
	<path fill-rule="evenodd" clip-rule="evenodd" d="M9.02349 3.50037C9.32598 3.50985 9.59313 3.7002 9.70087 3.98301L15.0929 18.1371L18.0792 12.1646C18.2062 11.9105 18.4659 11.75 18.75 11.75H21.75C22.1642 11.75 22.5 12.0858 22.5 12.5C22.5 12.9142 22.1642 13.25 21.75 13.25H19.2135L15.6708 20.3354C15.5377 20.6016 15.2599 20.7639 14.9626 20.7491C14.6654 20.7342 14.4051 20.5451 14.2991 20.267L8.939 6.19665L5.93277 12.8104C5.81107 13.0781 5.54411 13.25 5.25 13.25H2.25C1.83579 13.25 1.5 12.9142 1.5 12.5C1.5 12.0858 1.83579 11.75 2.25 11.75H4.76707L8.31723 3.93965C8.44246 3.66414 8.721 3.49089 9.02349 3.50037Z" fill="${color}"/>
</svg>