
<svg width="32" height="33" viewBox="0 0 32 33" fill="none">
<rect y="0.5" width="32" height="32" rx="16" fill="${color}" fill-opacity="0.1"/>
<path opacity="0.2" d="M11.5 18.25C12.1904 18.25 12.75 17.6904 12.75 17C12.75 16.3096 12.1904 15.75 11.5 15.75C10.8096 15.75 10.25 16.3096 10.25 17C10.25 17.6904 10.8096 18.25 11.5 18.25Z" fill="${color}"/>
<path fill-rule="evenodd" clip-rule="evenodd" d="M16 14.75C16.2761 14.75 16.5 14.9739 16.5 15.25L16.5 22C16.5 22.2761 16.2762 22.5 16 22.5C15.7239 22.5 15.5 22.2761 15.5 22L15.5 15.25C15.5 14.9739 15.7239 14.75 16 14.75Z" fill="${color}"/>
<path fill-rule="evenodd" clip-rule="evenodd" d="M16 10.5C16.2762 10.5 16.5 10.7239 16.5 11L16.5 12.75C16.5 13.0261 16.2761 13.25 16 13.25C15.7239 13.25 15.5 13.0261 15.5 12.75L15.5 11C15.5 10.7239 15.7239 10.5 16 10.5Z" fill="${color}"/>
<path fill-rule="evenodd" clip-rule="evenodd" d="M16 13.25C15.5858 13.25 15.25 13.5858 15.25 14C15.25 14.4142 15.5858 14.75 16 14.75C16.4142 14.75 16.75 14.4142 16.75 14C16.75 13.5858 16.4142 13.25 16 13.25ZM14.25 14C14.25 13.0335 15.0335 12.25 16 12.25C16.9665 12.25 17.75 13.0335 17.75 14C17.75 14.9665 16.9665 15.75 16 15.75C15.0335 15.75 14.25 14.9665 14.25 14Z" fill="${color}"/>
<path fill-rule="evenodd" clip-rule="evenodd" d="M20.5 19.75C20.7761 19.75 21 19.9738 21 20.25L21.0001 22C21.0001 22.2761 20.7762 22.5 20.5001 22.5C20.2239 22.5 20.0001 22.2762 20.0001 22L20 20.25C20 19.9739 20.2238 19.75 20.5 19.75Z" fill="${color}"/>
<path fill-rule="evenodd" clip-rule="evenodd" d="M20.5001 10.5C20.7762 10.5 21.0001 10.7239 21.0001 11L21 17.75C21 18.0261 20.7761 18.25 20.5 18.25C20.2239 18.25 20 18.0261 20 17.75L20.0001 11C20.0001 10.7239 20.2239 10.5 20.5001 10.5Z" fill="${color}"/>
<path fill-rule="evenodd" clip-rule="evenodd" d="M20.5 18.25C20.0858 18.25 19.75 18.5858 19.75 19C19.75 19.4142 20.0858 19.75 20.5 19.75C20.9142 19.75 21.25 19.4142 21.25 19C21.25 18.5858 20.9142 18.25 20.5 18.25ZM18.75 19C18.75 18.0335 19.5335 17.25 20.5 17.25C21.4665 17.25 22.25 18.0335 22.25 19C22.25 19.9665 21.4665 20.75 20.5 20.75C19.5335 20.75 18.75 19.9665 18.75 19Z" fill="${color}"/>
<path fill-rule="evenodd" clip-rule="evenodd" d="M11.5 17.75C11.7762 17.75 12 17.9739 12 18.25L12 22C12 22.2761 11.7761 22.5 11.5 22.5C11.2239 22.5 11 22.2761 11 22L11 18.25C11 17.9739 11.2239 17.75 11.5 17.75Z" fill="${color}"/>
<path fill-rule="evenodd" clip-rule="evenodd" d="M11.5 10.5C11.7761 10.5 12 10.7239 12 11L12 15.75C12 16.0261 11.7762 16.25 11.5 16.25C11.2239 16.25 11 16.0261 11 15.75L11 11C11 10.7239 11.2239 10.5 11.5 10.5Z" fill="${color}"/>
<path fill-rule="evenodd" clip-rule="evenodd" d="M11.5 16.25C11.0858 16.25 10.75 16.5858 10.75 17C10.75 17.4142 11.0858 17.75 11.5 17.75C11.9142 17.75 12.25 17.4142 12.25 17C12.25 16.5858 11.9142 16.25 11.5 16.25ZM9.75 17C9.75 16.0335 10.5335 15.25 11.5 15.25C12.4665 15.25 13.25 16.0335 13.25 17C13.25 17.9665 12.4665 18.75 11.5 18.75C10.5335 18.75 9.75 17.9665 9.75 17Z" fill="${color}"/>
</svg>

