<svg width="16" height="17" viewBox="0 0 16 17" fill="none" xmlns="http://www.w3.org/2000/svg">
<g clip-path="url(#clip0_34201_38333)">
<path opacity="0.2" d="M8 14.5L5.5 15V13.5L6.5 12.5V10L1.5 11V9.5L6.5 7V3.5C6.505 3.1 6.665 2.72 6.945 2.44C7.225 2.16 7.61 2 8.005 2C8.4 2 8.785 2.16 9.065 2.44C9.345 2.72 9.505 3.105 9.505 3.5V7L14.51 9.5V11L9.51 10V12.5L10.495 13.5V15L7.995 14.5H8Z" fill="white"/>
<path d="M10.5 15.5C10.465 15.5 10.435 15.5 10.4 15.49L8 15.01L5.6 15.49C5.455 15.52 5.3 15.48 5.185 15.385C5.07 15.29 5 15.15 5 15V13.5C5 13.365 5.055 13.24 5.145 13.145L6 12.29V10.605L1.6 11.485C1.455 11.515 1.3 11.475 1.185 11.38C1.07 11.285 1 11.145 1 10.995V9.495C1 9.305 1.105 9.135 1.275 9.05L6 6.69V3.5C6.005 2.965 6.215 2.465 6.59 2.085C6.97 1.705 7.47 1.5 8.005 1.5C8.54 1.5 9.045 1.715 9.42 2.085C9.795 2.46 10.005 2.965 10.005 3.5V6.69L14.735 9.05C14.905 9.135 15.01 9.31 15.01 9.495V10.995C15.01 11.145 14.945 11.285 14.825 11.38C14.71 11.475 14.56 11.51 14.41 11.485L10.01 10.605V12.29L10.85 13.145C10.94 13.24 10.995 13.365 10.995 13.495V14.995C10.995 15.145 10.93 15.285 10.81 15.38C10.72 15.455 10.61 15.495 10.495 15.495L10.5 15.5ZM8 14C8.035 14 8.065 14 8.1 14.01L10 14.39V13.705L9.16 12.85C9.07 12.755 9.015 12.63 9.015 12.5V10C9.015 9.85 9.08 9.71 9.2 9.615C9.315 9.52 9.47 9.485 9.615 9.51L14.015 10.39V9.81L9.29 7.45C9.12 7.365 9.015 7.195 9.015 7.005V3.5C9.01 3.23 8.905 2.98 8.715 2.79C8.34 2.415 7.675 2.415 7.3 2.79C7.115 2.975 7.005 3.235 7.005 3.495V6.995C6.995 7.185 6.89 7.355 6.72 7.44L2 9.81V10.39L6.4 9.51C6.545 9.48 6.7 9.52 6.815 9.615C6.93 9.71 7 9.85 7 10V12.5C7 12.635 6.945 12.76 6.855 12.855L6 13.71V14.395L7.9 14.015C7.93 14.01 7.965 14.005 8 14.005V14Z" fill="white"/>
</g>
<defs>
<clipPath id="clip0_34201_38333">
<rect width="14.015" height="14" fill="white" transform="translate(1 1.5)"/>
</clipPath>
</defs>
</svg>
