
<svg width="16" height="16" viewBox="0 0 16 16" fill="none">
	<path fill-rule="evenodd" clip-rule="evenodd" d="M1.98926 2.73242C2.2654 2.73242 2.48926 2.95628 2.48926 3.23242V5.73242H4.98926C5.2654 5.73242 5.48926 5.95628 5.48926 6.23242C5.48926 6.50856 5.2654 6.73242 4.98926 6.73242H1.98926C1.71312 6.73242 1.48926 6.50856 1.48926 6.23242V3.23242C1.48926 2.95628 1.71312 2.73242 1.98926 2.73242Z" fill="${color}"/>
	<path fill-rule="evenodd" clip-rule="evenodd" d="M6.82912 2.11529C7.99301 1.88378 9.19941 2.0026 10.2958 2.45673C11.3921 2.91085 12.3292 3.67989 12.9885 4.66658C13.6478 5.65328 13.9997 6.81331 13.9997 8C13.9997 9.18669 13.6478 10.3467 12.9885 11.3334C12.3292 12.3201 11.3921 13.0892 10.2958 13.5433C9.19941 13.9974 7.99301 14.1162 6.82912 13.8847C5.66524 13.6532 4.59614 13.0818 3.75702 12.2426C3.56176 12.0474 3.56176 11.7308 3.75702 11.5355C3.95229 11.3403 4.26887 11.3403 4.46413 11.5355C5.16339 12.2348 6.05431 12.711 7.02421 12.9039C7.99412 13.0969 8.99945 12.9978 9.91308 12.6194C10.8267 12.241 11.6076 11.6001 12.157 10.7779C12.7064 9.95561 12.9997 8.98891 12.9997 8C12.9997 7.0111 12.7064 6.0444 12.157 5.22215C11.6076 4.39991 10.8267 3.75904 9.91308 3.3806C8.99945 3.00217 7.99412 2.90315 7.02421 3.09608C6.05431 3.289 5.16339 3.76521 4.46413 4.46447L2.34281 6.58579C2.14755 6.78105 1.83097 6.78105 1.6357 6.58579C1.44044 6.39053 1.44044 6.07394 1.6357 5.87868L3.75702 3.75736C4.59614 2.91825 5.66524 2.3468 6.82912 2.11529Z" fill="${color}"/>
</svg>