
<svg width="24" height="24" fill="none">
  <path fill="${color}" fill-rule="evenodd" d="M21.016 4.098a.75.75 0 0 1 .75.75v4.5a.75.75 0 0 1-.75.75h-4.5a.75.75 0 0 1 0-1.5h3.75v-3.75a.75.75 0 0 1 .75-.75Z" clip-rule="evenodd"/>
  <path fill="${color}" fill-rule="evenodd" d="M12 4.5a7.5 7.5 0 0 0-5.303 2.197.75.75 0 0 1-1.06-1.061 9 9 0 0 1 12.727 0l3.182 3.182a.75.75 0 1 1-1.06 1.06l-3.183-3.181A7.5 7.5 0 0 0 12 4.5ZM2.234 14.652a.75.75 0 0 1 .75-.75h4.5a.75.75 0 0 1 0 1.5h-3.75v3.75a.75.75 0 0 1-1.5 0v-4.5Z" clip-rule="evenodd"/>
  <path fill="${color}" fill-rule="evenodd" d="M2.454 14.121a.75.75 0 0 1 1.06 0l3.183 3.182a7.502 7.502 0 0 0 10.606 0 .75.75 0 1 1 1.06 1.06 9 9 0 0 1-12.727 0l-3.182-3.181a.75.75 0 0 1 0-1.06Z" clip-rule="evenodd"/>
</svg>