
<svg width="45" height="20" viewBox="0 0 45 20" fill="none">
	<path d="M44.7397 10.2167C44.9468 9.70474 44.6996 9.12181 44.1876 8.91473L35.8443 5.54013C35.3323 5.33305 34.7493 5.58022 34.5423 6.09222C34.3352 6.60421 34.5824 7.18713 35.0943 7.39421L42.5107 10.3939L39.511 17.8102C39.304 18.3222 39.5511 18.9051 40.0631 19.1122C40.5751 19.3193 41.158 19.0721 41.3651 18.5601L44.7397 10.2167ZM0.464961 2.11909C0.774995 2.52592 1.09014 2.92026 1.41011 3.30242L2.9436 2.01852C2.6434 1.65997 2.34733 1.28953 2.0557 0.906837L0.464961 2.11909ZM3.44368 5.50954C4.1775 6.2323 4.93052 6.9004 5.6995 7.51719L6.95087 5.95704C6.23476 5.38266 5.5325 4.75969 4.84712 4.08464L3.44368 5.50954ZM8.14772 9.27937C9.00828 9.8328 9.88271 10.3302 10.7668 10.7761L11.6674 8.99029C10.844 8.57505 10.0301 8.11207 9.22953 7.5972L8.14772 9.27937ZM13.5246 11.9943C14.4741 12.3578 15.4291 12.6686 16.3847 12.9324L16.9168 11.0045C16.0203 10.757 15.1265 10.466 14.2395 10.1265L13.5246 11.9943ZM19.3112 13.599C20.3079 13.7801 21.2998 13.9156 22.2815 14.0116L22.4761 12.0211C21.5459 11.9301 20.6085 11.802 19.6689 11.6312L19.3112 13.599ZM25.265 14.1889C26.2777 14.2116 27.2731 14.197 28.2446 14.1522L28.1525 12.1544C27.2237 12.1971 26.274 12.211 25.3098 12.1894L25.265 14.1889ZM31.2162 13.9203C32.2389 13.8084 33.2239 13.6682 34.1624 13.5097L33.8293 11.5376C32.9264 11.6902 31.98 11.8248 30.9987 11.9321L31.2162 13.9203ZM37.0737 12.9341C38.1332 12.6941 39.101 12.4415 39.9583 12.1969L39.4096 10.2737C38.5847 10.509 37.6526 10.7523 36.6319 10.9835L37.0737 12.9341ZM42.7945 11.2962C43.2405 11.1386 43.5885 11.0069 43.827 10.9137C43.9463 10.8672 44.0383 10.8302 44.1014 10.8045C44.133 10.7916 44.1574 10.7815 44.1744 10.7745C44.1829 10.7709 44.1895 10.7681 44.1943 10.7661C44.1967 10.7651 44.1986 10.7643 44.2001 10.7637C44.2008 10.7634 44.2014 10.7631 44.2019 10.7629C44.2022 10.7628 44.2024 10.7627 44.2026 10.7626C44.2027 10.7626 44.2028 10.7626 44.2029 10.7625C44.2029 10.7625 44.2029 10.7625 44.203 10.7625C44.203 10.7624 44.2031 10.7624 43.8127 9.84177C43.4223 8.92112 43.4223 8.9211 43.4224 8.92108C43.4224 8.92108 43.4224 8.92106 43.4225 8.92105C43.4225 8.92103 43.4226 8.92101 43.4226 8.92099C43.4227 8.92096 43.4227 8.92095 43.4227 8.92094C43.4228 8.92093 43.4227 8.92097 43.4225 8.92105C43.422 8.92123 43.4212 8.9216 43.4198 8.92216C43.4171 8.92329 43.4126 8.92519 43.4063 8.92783C43.3936 8.93312 43.3735 8.94139 43.3464 8.95245C43.2921 8.97457 43.2094 9.00785 43.0996 9.05072C42.88 9.13647 42.5524 9.26053 42.1282 9.41042L42.7945 11.2962Z" fill="${color}"/>
</svg>