
<svg height="32" viewBox="0 0 32 32" width="32">
<g clip-rule="evenodd" fill="${color}" fill-rule="evenodd">
<path d="m28.0209 5.46451c.5523 0 1 .44771 1 1v5.99999c0 .5523-.4477 1-1 1h-6c-.5523 0-1-.4477-1-1s.4477-1 1-1h5v-4.99999c0-.55229.4477-1 1-1z"/>
<path d="m17.9509 6.19215c-1.9398-.38585-3.9505-.18782-5.7777.56906-1.8273.75688-3.38908 2.0386-4.4879 3.68309-1.09881 1.6445-1.6853 3.5779-1.6853 5.5557s.58649 3.9112 1.6853 5.5557c1.09882 1.6445 2.6606 2.9262 4.4879 3.6831 1.8272.7569 3.8379.9549 5.7777.5691 1.9398-.3859 3.7216-1.3383 5.1202-2.7368.3905-.3906 1.0237-.3906 1.4142 0 .3905.3905.3905 1.0237 0 1.4142-1.6782 1.6782-3.8164 2.8211-6.1442 3.2841-2.3278.4631-4.7406.2254-6.9333-.6828-2.19271-.9083-4.06686-2.4464-5.38544-4.4198-1.31857-1.9733-2.02236-4.2934-2.02236-6.6668s.70379-4.6934 2.02236-6.66684c1.31858-1.97339 3.19273-3.51146 5.38544-4.41971 2.1927-.90825 4.6055-1.14589 6.9333-.68287s4.466 1.60591 6.1442 3.28414l4.2426 4.24268c.3905.3905.3905 1.0237 0 1.4142s-1.0237.3905-1.4142 0l-4.2426-4.24266c-1.3986-1.39853-3.1804-2.35094-5.1202-2.73679z"/>
</g>
</svg>