
<svg width="32" height="33" viewBox="0 0 32 33" fill="none">
<rect y="0.5" width="32" height="32" rx="16" fill="${color}" fill-opacity="0.1"/>
<path opacity="0.2" d="M16 22C19.0376 22 21.5 19.5376 21.5 16.5C21.5 13.4624 19.0376 11 16 11C12.9624 11 10.5 13.4624 10.5 16.5C10.5 19.5376 12.9624 22 16 22Z" fill="${color}"/>
<path fill-rule="evenodd" clip-rule="evenodd" d="M16 13C16.2761 13 16.5 13.2239 16.5 13.5V16.5C16.5 16.7761 16.2761 17 16 17C15.7239 17 15.5 16.7761 15.5 16.5V13.5C15.5 13.2239 15.7239 13 16 13Z" fill="${color}"/>
<path fill-rule="evenodd" clip-rule="evenodd" d="M15.5671 16.2501C15.7051 16.0109 16.0109 15.929 16.2501 16.0671L18.8482 17.5671C19.0873 17.7051 19.1692 18.0109 19.0312 18.2501C18.8931 18.4892 18.5873 18.5712 18.3482 18.4331L15.7501 16.9331C15.5109 16.795 15.429 16.4892 15.5671 16.2501Z" fill="${color}"/>
<path fill-rule="evenodd" clip-rule="evenodd" d="M9.98975 11.7324C10.2659 11.7324 10.4897 11.9563 10.4897 12.2324V14.2324H12.4897C12.7659 14.2324 12.9897 14.4563 12.9897 14.7324C12.9897 15.0086 12.7659 15.2324 12.4897 15.2324H9.98975C9.7136 15.2324 9.48975 15.0086 9.48975 14.7324V12.2324C9.48975 11.9563 9.7136 11.7324 9.98975 11.7324Z" fill="${color}"/>
<path fill-rule="evenodd" clip-rule="evenodd" d="M14.8296 10.6153C15.9935 10.3838 17.1999 10.5026 18.2963 10.9567C19.3926 11.4109 20.3297 12.1799 20.989 13.1666C21.6483 14.1533 22.0002 15.3133 22.0002 16.5C22.0002 17.6867 21.6483 18.8467 20.989 19.8334C20.3297 20.8201 19.3926 21.5892 18.2963 22.0433C17.1999 22.4974 15.9935 22.6162 14.8296 22.3847C13.6657 22.1532 12.5966 21.5818 11.7575 20.7426C11.5623 20.5474 11.5623 20.2308 11.7575 20.0355C11.9528 19.8403 12.2694 19.8403 12.4646 20.0355C13.1639 20.7348 14.0548 21.211 15.0247 21.4039C15.9946 21.5969 16.9999 21.4978 17.9136 21.1194C18.8272 20.741 19.6081 20.1001 20.1575 19.2779C20.7069 18.4556 21.0002 17.4889 21.0002 16.5C21.0002 15.5111 20.7069 14.5444 20.1575 13.7222C19.6081 12.8999 18.8272 12.259 17.9136 11.8806C16.9999 11.5022 15.9946 11.4032 15.0247 11.5961C14.0548 11.789 13.1639 12.2652 12.4646 12.9645L10.3433 15.0858C10.148 15.2811 9.83145 15.2811 9.63619 15.0858C9.44093 14.8905 9.44093 14.5739 9.63619 14.3787L11.7575 12.2574C12.5966 11.4182 13.6657 10.8468 14.8296 10.6153Z" fill="${color}"/>
</svg>

