<svg width="16" height="17" viewBox="0 0 16 17" fill="none" xmlns="http://www.w3.org/2000/svg">
<path opacity="0.2" d="M3.25 13C4.63071 13 5.75 11.8807 5.75 10.5C5.75 9.11929 4.63071 8 3.25 8C1.86929 8 0.75 9.11929 0.75 10.5C0.75 11.8807 1.86929 13 3.25 13Z" fill="white"/>
<path opacity="0.2" d="M12.75 13C14.1307 13 15.25 11.8807 15.25 10.5C15.25 9.11929 14.1307 8 12.75 8C11.3693 8 10.25 9.11929 10.25 10.5C10.25 11.8807 11.3693 13 12.75 13Z" fill="white"/>
<path fill-rule="evenodd" clip-rule="evenodd" d="M3.25 8.5C2.14543 8.5 1.25 9.39543 1.25 10.5C1.25 11.6046 2.14543 12.5 3.25 12.5C4.35457 12.5 5.25 11.6046 5.25 10.5C5.25 9.39543 4.35457 8.5 3.25 8.5ZM0.25 10.5C0.25 8.84315 1.59315 7.5 3.25 7.5C4.90685 7.5 6.25 8.84315 6.25 10.5C6.25 12.1569 4.90685 13.5 3.25 13.5C1.59315 13.5 0.25 12.1569 0.25 10.5Z" fill="white"/>
<path fill-rule="evenodd" clip-rule="evenodd" d="M12.75 8.5C11.6454 8.5 10.75 9.39543 10.75 10.5C10.75 11.6046 11.6454 12.5 12.75 12.5C13.8546 12.5 14.75 11.6046 14.75 10.5C14.75 9.39543 13.8546 8.5 12.75 8.5ZM9.75 10.5C9.75 8.84315 11.0931 7.5 12.75 7.5C14.4069 7.5 15.75 8.84315 15.75 10.5C15.75 12.1569 14.4069 13.5 12.75 13.5C11.0931 13.5 9.75 12.1569 9.75 10.5Z" fill="white"/>
<path fill-rule="evenodd" clip-rule="evenodd" d="M2.75 4.5C2.75 4.22386 2.97386 4 3.25 4H4.95C5.13235 4 5.30023 4.09927 5.38811 4.25904L8.68811 10.259C8.82119 10.501 8.73292 10.805 8.49096 10.9381C8.249 11.0712 7.94497 10.9829 7.81189 10.741L4.65436 5H3.25C2.97386 5 2.75 4.77614 2.75 4.5Z" fill="white"/>
<path fill-rule="evenodd" clip-rule="evenodd" d="M5.64043 6.21327C5.73399 6.07961 5.88689 6 6.05004 6H10.55C10.8262 6 11.05 6.22386 11.05 6.5C11.05 6.77614 10.8262 7 10.55 7H6.31037L3.65966 10.7867C3.5013 11.013 3.18954 11.068 2.96331 10.9096C2.73709 10.7513 2.68207 10.4395 2.84043 10.2133L5.64043 6.21327Z" fill="white"/>
<path fill-rule="evenodd" clip-rule="evenodd" d="M9.01882 4.24552C9.1088 4.09335 9.27244 4 9.44922 4H11.4992C11.7754 4 11.9992 4.22386 11.9992 4.5C11.9992 4.77614 11.7754 5 11.4992 5H10.2949L13.1873 10.259C13.3204 10.501 13.2321 10.805 12.9902 10.9381C12.7482 11.0712 12.4442 10.9829 12.3111 10.741L9.01111 4.74096C8.92592 4.58606 8.92885 4.39769 9.01882 4.24552Z" fill="white"/>
</svg>
