
<svg width="8" height="14" viewBox="0 0 8 14">
<path d="M0.337891 12.009H1.8833V13.2908H2.71094V12.009H3.76562V13.2908H4.58594V11.9944C6.52686 11.8699 7.66211 10.8298 7.66211 9.15991V9.14526C7.66211 7.8269 6.76123 6.87476 5.3623 6.72095V6.66235C6.38037 6.48657 7.16406 5.5271 7.16406 4.45044V4.43579C7.16406 3.02222 6.16064 2.0481 4.58594 1.90161V0.5979H3.76562V1.87964H2.71094V0.5979H1.8833V1.87964H0.337891V12.009ZM1.94189 6.21558V3.198H3.7583C4.92285 3.198 5.56738 3.71802 5.56738 4.64819V4.66284C5.56738 5.66626 4.82031 6.21558 3.42871 6.21558H1.94189ZM1.94189 10.6907V7.46802H3.74365C5.28906 7.46802 6.00684 7.98071 6.00684 9.05005V9.0647C6.00684 10.1414 5.29639 10.6907 3.83887 10.6907H1.94189Z" fill="${color}"/>
</svg>