
<svg viewBox="0 0 32 32">
	<path d="M31.5213 19.788C29.3833 28.3003 20.7014 33.4809 12.128 31.3583C3.55824 29.236 -1.6591 20.6141 0.479349 12.1023C2.6158 3.58919 11.2985 -1.59217 19.8689 0.530207C28.4411 2.65258 33.6582 11.2751 31.5213 19.788Z" fill="${color}"/>
	<path d="M23.0523 13.681C23.3708 11.5664 21.7494 10.4301 19.5328 9.67176L20.2516 6.80765L18.4963 6.37311L17.7961 9.16175C17.3341 9.04743 16.8605 8.93973 16.3892 8.83314L17.0939 6.02597L15.3396 5.59143L14.6199 8.4551C14.2379 8.36859 13.863 8.2834 13.4988 8.19336L13.5005 8.18453L11.0796 7.58426L10.6125 9.44622C10.6125 9.44622 11.915 9.7426 11.8874 9.76114C12.5985 9.93747 12.7268 10.4047 12.7054 10.775L11.8865 14.0379C11.9354 14.0505 11.9988 14.0679 12.069 14.0961C12.0103 14.0816 11.9479 14.0659 11.8836 14.0505L10.7356 18.6209C10.6485 18.8355 10.4279 19.1574 9.93098 19.0352C9.94854 19.0603 8.65431 18.7189 8.65431 18.7189L7.7832 20.7142L10.0676 21.2798C10.4923 21.3855 10.9094 21.4959 11.3192 21.6005L10.5932 24.4975L12.3468 24.932L13.0661 22.0659C13.5456 22.1948 14.0105 22.3142 14.4656 22.4265L13.7488 25.2792L15.5043 25.7137L16.231 22.8222C19.225 23.3845 21.4763 23.1577 22.4234 20.469C23.1872 18.304 22.3856 17.0552 20.8105 16.2406C21.9574 15.978 22.8219 15.2285 23.0523 13.681ZM19.0414 19.2669C18.4983 21.4321 14.8281 20.2616 13.6374 19.9678L14.6014 16.1302C15.7914 16.4249 19.6081 17.0088 19.0414 19.2669ZM19.5836 13.6499C19.089 15.6193 16.0336 14.6185 15.0425 14.3731L15.9163 10.8924C16.9072 11.1378 20.0994 11.5957 19.5836 13.6499Z" fill="white"/>
</svg>