
<svg width="12" height="15" viewBox="0 0 12 15" fill="none">
	<path d="M11.0502 6.12831C11.2702 4.65705 10.1499 3.86646 8.61834 3.33888L9.11505 1.34618L7.90221 1.04385L7.41839 2.98404C7.09917 2.9045 6.77197 2.82957 6.4463 2.75541L6.93319 0.802329L5.72111 0.5L5.22378 2.49239C4.95984 2.4322 4.70081 2.37293 4.44915 2.31029L4.45038 2.30414L2.77767 1.8865L2.45492 3.18196C2.45492 3.18196 3.35485 3.38817 3.33581 3.40106C3.82715 3.52374 3.91574 3.8488 3.901 4.10644L3.33519 6.3766C3.36897 6.38535 3.41273 6.39748 3.46125 6.41713C3.42072 6.407 3.37757 6.39609 3.3332 6.38535L2.53999 9.56525C2.4798 9.71449 2.32733 9.93851 1.984 9.85345C1.99613 9.87095 1.10189 9.63342 1.10189 9.63342L0.5 11.0216L2.07843 11.4151C2.37186 11.4887 2.66006 11.5655 2.94319 11.6382L2.44157 13.6538L3.65318 13.9561L4.1502 11.9621C4.48155 12.0517 4.80277 12.1348 5.11723 12.213L4.62189 14.1977L5.83489 14.5L6.33698 12.4883C8.40568 12.8795 9.96124 12.7217 10.6156 10.851C11.1434 9.34476 10.5895 8.47585 9.50122 7.90912C10.2937 7.7264 10.8909 7.20497 11.0502 6.12831ZM8.27885 10.0147C7.90359 11.5211 5.36766 10.7067 4.54497 10.5023L5.21104 7.83235C6.03327 8.03733 8.67039 8.44361 8.27885 10.0147ZM8.6535 6.10666C8.31171 7.47689 6.20063 6.78057 5.51583 6.60983L6.11956 4.18813C6.80421 4.35887 9.00988 4.67747 8.6535 6.10666Z" fill="${color}"/>
</svg>