<svg width="64" height="64" viewBox="0 0 64 64" fill="none" xmlns="http://www.w3.org/2000/svg">
<rect width="64" height="64" rx="8" fill="#FF4400"/>
<path opacity="0.2" d="M17.7972 23.9707C17.6844 24.1626 17.625 24.3812 17.625 24.6038V39.3952C17.625 39.6165 17.6838 39.8339 17.7953 40.0251C17.9069 40.2163 18.0672 40.3744 18.2599 40.4834L31.3849 47.9018C31.5726 48.0079 31.7845 48.0637 32 48.0636V48.0636L32.1659 31.9995L17.7973 23.9708L17.7972 23.9707Z" fill="white"/>
<path fill-rule="evenodd" clip-rule="evenodd" d="M32.1788 30.7501C32.8691 30.7572 33.423 31.3226 33.4158 32.0129L33.2499 48.077C33.2428 48.7674 32.6774 49.3212 31.9871 49.3141C31.2968 49.3069 30.7429 48.7415 30.7501 48.0512L30.916 31.9871C30.9231 31.2968 31.4885 30.7429 32.1788 30.7501Z" fill="white"/>
<path fill-rule="evenodd" clip-rule="evenodd" d="M30.7699 15.0091C31.1451 14.797 31.5689 14.6855 32 14.6855C32.4311 14.6855 32.8549 14.797 33.2301 15.0091L46.3551 22.4276C46.7406 22.6455 47.0612 22.9618 47.2843 23.3441C47.5074 23.7265 47.625 24.1613 47.625 24.604V39.3954C47.625 39.8381 47.5074 40.2729 47.2843 40.6553C47.0612 41.0376 46.7406 41.3539 46.3551 41.5718L33.2301 48.9903C32.8549 49.2024 32.4311 49.3138 32 49.3138C31.5689 49.3138 31.1452 49.2024 30.7699 48.9903L17.6449 41.5718C17.2594 41.3539 16.9388 41.0376 16.7157 40.6553C16.4926 40.2729 16.375 39.8381 16.375 39.3954V24.604C16.375 24.1613 16.4926 23.7265 16.7157 23.3441C16.9388 22.9617 17.2594 22.6455 17.6449 22.4276L18.2599 23.5158L17.6449 22.4276L30.7699 15.0091ZM32 17.1855L18.875 24.604V39.3954L32 46.8138L45.125 39.3954V24.604L32 17.1855L32.6151 16.0973L32 17.1855Z" fill="white"/>
<path fill-rule="evenodd" clip-rule="evenodd" d="M16.7059 23.3612C17.0426 22.7585 17.8042 22.543 18.4068 22.8797L32.1586 30.5638L45.583 22.8875C46.1823 22.5448 46.9459 22.7529 47.2886 23.3522C47.6313 23.9515 47.4233 24.7151 46.824 25.0578L32.7862 33.0848C32.4056 33.3025 31.9387 33.3048 31.556 33.0909L17.1874 25.0621C16.5847 24.7254 16.3691 23.9639 16.7059 23.3612Z" fill="white"/>
</svg>
