
<svg width="16" height="16" viewBox="0 0 16 16" fill="none">
    <path opacity="0.2" d="M8 10C9.10457 10 10 9.10457 10 8C10 6.89543 9.10457 6 8 6C6.89543 6 6 6.89543 6 8C6 9.10457 6.89543 10 8 10Z" fill="${color}"/>
    <path fill-rule="evenodd" clip-rule="evenodd" d="M8 6.5C7.17157 6.5 6.5 7.17157 6.5 8C6.5 8.82843 7.17157 9.5 8 9.5C8.82843 9.5 9.5 8.82843 9.5 8C9.5 7.17157 8.82843 6.5 8 6.5ZM5.5 8C5.5 6.61929 6.61929 5.5 8 5.5C9.38071 5.5 10.5 6.61929 10.5 8C10.5 9.38071 9.38071 10.5 8 10.5C6.61929 10.5 5.5 9.38071 5.5 8Z" fill="${color}"/>
    <path fill-rule="evenodd" clip-rule="evenodd" d="M5.17151 4.46413C5.36661 4.65956 5.36634 4.97614 5.17091 5.17124C4.79911 5.5424 4.50414 5.98324 4.30289 6.46852C4.10164 6.9538 3.99805 7.47401 3.99805 7.99936C3.99805 8.52472 4.10164 9.04492 4.30289 9.53021C4.50414 10.0155 4.79911 10.4563 5.17091 10.8275C5.36634 11.0226 5.36661 11.3392 5.17151 11.5346C4.97642 11.73 4.65984 11.7303 4.46441 11.5352C3.99957 11.0712 3.63079 10.52 3.37917 9.91328C3.12756 9.30656 2.99805 8.65619 2.99805 7.99936C2.99805 7.34254 3.12756 6.69216 3.37917 6.08544C3.63079 5.47873 3.99957 4.92757 4.46441 4.46353C4.65984 4.26843 4.97642 4.2687 5.17151 4.46413Z" fill="${color}"/>
    <path fill-rule="evenodd" clip-rule="evenodd" d="M10.8278 4.46413C11.0229 4.2687 11.3395 4.26843 11.5349 4.46353C11.9997 4.92758 12.3685 5.47873 12.6201 6.08544C12.8717 6.69216 13.0013 7.34254 13.0013 7.99936C13.0013 8.65619 12.8717 9.30656 12.6201 9.91328C12.3685 10.52 11.9997 11.0712 11.5349 11.5352C11.3395 11.7303 11.0229 11.73 10.8278 11.5346C10.6327 11.3392 10.633 11.0226 10.8284 10.8275C11.2002 10.4563 11.4952 10.0155 11.6964 9.53021C11.8977 9.04492 12.0013 8.52472 12.0013 7.99936C12.0013 7.47401 11.8977 6.9538 11.6964 6.46852C11.4952 5.98324 11.2002 5.5424 10.8284 5.17124C10.633 4.97614 10.6327 4.65956 10.8278 4.46413Z" fill="${color}"/>
    <path fill-rule="evenodd" clip-rule="evenodd" d="M3.40463 2.69655C3.59973 2.89198 3.59946 3.20856 3.40403 3.40366C2.79983 4.00683 2.32049 4.72322 1.99344 5.51183C1.66639 6.30045 1.49805 7.14581 1.49805 7.99955C1.49805 8.85329 1.66639 9.69866 1.99344 10.4873C2.32049 11.2759 2.79983 11.9923 3.40403 12.5954C3.59946 12.7905 3.59973 13.1071 3.40463 13.3026C3.20954 13.498 2.89295 13.4983 2.69753 13.3032C2.00028 12.6071 1.44713 11.7804 1.06972 10.8703C0.69231 9.9603 0.498047 8.98476 0.498047 7.99955C0.498047 7.01435 0.69231 6.03881 1.06972 5.12875C1.44713 4.2187 2.00028 3.392 2.69753 2.69595C2.89295 2.50085 3.20954 2.50112 3.40463 2.69655Z" fill="${color}"/>
    <path fill-rule="evenodd" clip-rule="evenodd" d="M12.5973 2.69655C12.7924 2.50112 13.109 2.50085 13.3044 2.69595C14.0017 3.392 14.5548 4.2187 14.9322 5.12875C15.3096 6.03881 15.5039 7.01435 15.5039 7.99955C15.5039 8.98476 15.3096 9.9603 14.9322 10.8703C14.5548 11.7804 14.0017 12.6071 13.3044 13.3032C13.109 13.4983 12.7924 13.498 12.5973 13.3026C12.4022 13.1071 12.4025 12.7905 12.5979 12.5954C13.2021 11.9923 13.6815 11.2759 14.0085 10.4873C14.3356 9.69866 14.5039 8.85329 14.5039 7.99955C14.5039 7.14581 14.3356 6.30045 14.0085 5.51183C13.6815 4.72322 13.2021 4.00683 12.5979 3.40366C12.4025 3.20856 12.4022 2.89198 12.5973 2.69655Z" fill="${color}"/>
    </svg>
    