
<svg viewBox="0 0 24 24">
	<path d="M3 12C3 11.5858 3.33579 11.25 3.75 11.25H20.25C20.6642 11.25 21 11.5858 21 12C21 12.4142 20.6642 12.75 20.25 12.75H3.75C3.33579 12.75 3 12.4142 3 12Z" fill="${color}"/>
	<path d="M3 6C3 5.58579 3.33579 5.25 3.75 5.25H20.25C20.6642 5.25 21 5.58579 21 6C21 6.41421 20.6642 6.75 20.25 6.75H3.75C3.33579 6.75 3 6.41421 3 6Z" fill="${color}"/>
	<path d="M3 18C3 17.5858 3.33579 17.25 3.75 17.25H20.25C20.6642 17.25 21 17.5858 21 18C21 18.4142 20.6642 18.75 20.25 18.75H3.75C3.33579 18.75 3 18.4142 3 18Z" fill="${color}"/>
</svg>