<svg width="64" height="64" viewBox="0 0 64 64" fill="none" xmlns="http://www.w3.org/2000/svg">
<rect width="64" height="64" rx="8" fill="#FF4400"/>
<path fill-rule="evenodd" clip-rule="evenodd" d="M17 40.75C17 40.0596 17.5596 39.5 18.25 39.5H28.25C28.9404 39.5 29.5 40.0596 29.5 40.75C29.5 41.4404 28.9404 42 28.25 42H18.25C17.5596 42 17 41.4404 17 40.75Z" fill="white"/>
<path fill-rule="evenodd" clip-rule="evenodd" d="M23.25 34.5C23.9404 34.5 24.5 35.0596 24.5 35.75V45.75C24.5 46.4404 23.9404 47 23.25 47C22.5596 47 22 46.4404 22 45.75V35.75C22 35.0596 22.5596 34.5 23.25 34.5Z" fill="white"/>
<path fill-rule="evenodd" clip-rule="evenodd" d="M17 23.25C17 22.5596 17.5596 22 18.25 22H28.25C28.9404 22 29.5 22.5596 29.5 23.25C29.5 23.9404 28.9404 24.5 28.25 24.5H18.25C17.5596 24.5 17 23.9404 17 23.25Z" fill="white"/>
<path fill-rule="evenodd" clip-rule="evenodd" d="M34.5 38.2607C34.5 37.5704 35.0596 37.0107 35.75 37.0107H45.75C46.4404 37.0107 47 37.5704 47 38.2607C47 38.9511 46.4404 39.5107 45.75 39.5107H35.75C35.0596 39.5107 34.5 38.9511 34.5 38.2607Z" fill="white"/>
<path fill-rule="evenodd" clip-rule="evenodd" d="M34.5 43.2393C34.5 42.5489 35.0596 41.9893 35.75 41.9893H45.75C46.4404 41.9893 47 42.5489 47 43.2393C47 43.9296 46.4404 44.4893 45.75 44.4893H35.75C35.0596 44.4893 34.5 43.9296 34.5 43.2393Z" fill="white"/>
<path fill-rule="evenodd" clip-rule="evenodd" d="M45.3839 18.6161C45.872 19.1043 45.872 19.8957 45.3839 20.3839L37.8839 27.8839C37.3957 28.372 36.6043 28.372 36.1161 27.8839C35.628 27.3957 35.628 26.6043 36.1161 26.1161L43.6161 18.6161C44.1043 18.128 44.8957 18.128 45.3839 18.6161Z" fill="white"/>
<path fill-rule="evenodd" clip-rule="evenodd" d="M36.1161 18.6161C36.6043 18.128 37.3957 18.128 37.8839 18.6161L45.3839 26.1161C45.872 26.6043 45.872 27.3957 45.3839 27.8839C44.8957 28.372 44.1043 28.372 43.6161 27.8839L36.1161 20.3839C35.628 19.8957 35.628 19.1043 36.1161 18.6161Z" fill="white"/>
</svg>
