
<svg width="12" height="14" viewBox="0 0 12 14" fill="none">
		<path opacity="0.2" d="M0.5 5H11.5V2.5C11.5 2.36739 11.4473 2.24021 11.3536 2.14645C11.2598 2.05268 11.1326 2 11 2H1C0.867392 2 0.740215 2.05268 0.646447 2.14645C0.552679 2.24021 0.5 2.36739 0.5 2.5V5Z" fill="${color}"/>
		<path fill-rule="evenodd" clip-rule="evenodd" d="M0 2.5C0 1.94772 0.447715 1.5 1 1.5H11C11.5523 1.5 12 1.94772 12 2.5V12.5C12 13.0523 11.5523 13.5 11 13.5H1C0.447715 13.5 0 13.0523 0 12.5V2.5ZM11 2.5H1V12.5H11V2.5Z" fill="${color}"/>
		<path fill-rule="evenodd" clip-rule="evenodd" d="M9 0.5C9.27614 0.5 9.5 0.723858 9.5 1V3C9.5 3.27614 9.27614 3.5 9 3.5C8.72386 3.5 8.5 3.27614 8.5 3V1C8.5 0.723858 8.72386 0.5 9 0.5Z" fill="${color}"/>
		<path fill-rule="evenodd" clip-rule="evenodd" d="M3 0.5C3.27614 0.5 3.5 0.723858 3.5 1V3C3.5 3.27614 3.27614 3.5 3 3.5C2.72386 3.5 2.5 3.27614 2.5 3V1C2.5 0.723858 2.72386 0.5 3 0.5Z" fill="${color}"/>
		<path fill-rule="evenodd" clip-rule="evenodd" d="M0 5C0 4.72386 0.223858 4.5 0.5 4.5H11.5C11.7761 4.5 12 4.72386 12 5C12 5.27614 11.7761 5.5 11.5 5.5H0.5C0.223858 5.5 0 5.27614 0 5Z" fill="${color}"/>
</svg>