
<svg width="40" height="35" viewBox="0 0 40 40" fill="none">
	<path opacity=".2" d="M35 6h-6.001l-3-4.5h-12l-3 4.5H5a3 3 0 0 0-3 3v21a3 3 0 0 0 3 3h30a3 3 0 0 0 3-3V9a3 3 0 0 0-3-3ZM20 25.5A6.75 6.75 0 1 1 20 12a6.75 6.75 0 0 1 0 13.5Z" fill="${color}"/>
	<path fill-rule="evenodd" clip-rule="evenodd" d="M12.75.668A1.5 1.5 0 0 1 14 0h12c.501 0 .97.25 1.248.668L29.802 4.5H35A4.5 4.5 0 0 1 39.5 9v21a4.5 4.5 0 0 1-4.5 4.5H5A4.5 4.5 0 0 1 .5 30V9A4.5 4.5 0 0 1 5 4.5h5.196L12.751.668ZM14.803 3l-2.555 3.832a1.5 1.5 0 0 1-1.248.668H5A1.5 1.5 0 0 0 3.5 9v21A1.5 1.5 0 0 0 5 31.5h30a1.5 1.5 0 0 0 1.5-1.5V9A1.5 1.5 0 0 0 35 7.5h-6.001a1.5 1.5 0 0 1-1.248-.668L25.196 3H14.802Z" fill="${color}"/>
	<path fill-rule="evenodd" clip-rule="evenodd" d="M20 13.5A5.25 5.25 0 1 0 20 24a5.25 5.25 0 0 0 0-10.5Zm-8.25 5.25a8.25 8.25 0 1 1 16.5 0 8.25 8.25 0 0 1-16.5 0Z" fill="${color}"/>
</svg>