<svg width="16" height="17" viewBox="0 0 16 17" fill="none" xmlns="http://www.w3.org/2000/svg">
<path opacity="0.2" d="M14 12V13.5C14 13.6326 13.9473 13.7598 13.8536 13.8536C13.7598 13.9473 13.6326 14 13.5 14H12C11.8674 14 11.7402 13.9473 11.6464 13.8536C11.5527 13.7598 11.5 13.6326 11.5 13.5V12H14Z" fill="white"/>
<path opacity="0.2" d="M4.5 12V13.5C4.5 13.6326 4.44732 13.7598 4.35355 13.8536C4.25979 13.9473 4.13261 14 4 14H2.5C2.36739 14 2.24021 13.9473 2.14645 13.8536C2.05268 13.7598 2 13.6326 2 13.5V12H4.5Z" fill="white"/>
<path opacity="0.2" d="M14 8L12.132 3.79693C12.0927 3.70855 12.0286 3.63346 11.9475 3.58075C11.8664 3.52805 11.7718 3.5 11.6751 3.5H4.32494C4.22822 3.5 4.13358 3.52805 4.05248 3.58075C3.97138 3.63346 3.90731 3.70855 3.86803 3.79693L2 8H14Z" fill="white"/>
<path fill-rule="evenodd" clip-rule="evenodd" d="M0.5 8C0.5 7.72386 0.723858 7.5 1 7.5H15C15.2761 7.5 15.5 7.72386 15.5 8C15.5 8.27614 15.2761 8.5 15 8.5H1C0.723858 8.5 0.5 8.27614 0.5 8Z" fill="white"/>
<path fill-rule="evenodd" clip-rule="evenodd" d="M11.5 11.5C11.7761 11.5 12 11.7239 12 12L12 13.5L13.5 13.5V12C13.5 11.7239 13.7239 11.5 14 11.5C14.2761 11.5 14.5 11.7239 14.5 12V13.5C14.5 13.7652 14.3946 14.0196 14.2071 14.2071C14.0196 14.3946 13.7652 14.5 13.5 14.5H12C11.7348 14.5 11.4804 14.3946 11.2929 14.2071C11.1054 14.0196 11 13.7652 11 13.5V12C11 11.7239 11.2239 11.5 11.5 11.5Z" fill="white"/>
<path fill-rule="evenodd" clip-rule="evenodd" d="M2 11.5C2.27614 11.5 2.5 11.7239 2.5 12V13.5H4V12C4 11.7239 4.22386 11.5 4.5 11.5C4.77614 11.5 5 11.7239 5 12V13.5C5 13.7652 4.89464 14.0196 4.70711 14.2071C4.51957 14.3946 4.26522 14.5 4 14.5H2.5C2.23478 14.5 1.98043 14.3946 1.79289 14.2071C1.60536 14.0196 1.5 13.7652 1.5 13.5V12C1.5 11.7239 1.72386 11.5 2 11.5Z" fill="white"/>
<path fill-rule="evenodd" clip-rule="evenodd" d="M3.5 10C3.5 9.72386 3.72386 9.5 4 9.5H5C5.27614 9.5 5.5 9.72386 5.5 10C5.5 10.2761 5.27614 10.5 5 10.5H4C3.72386 10.5 3.5 10.2761 3.5 10Z" fill="white"/>
<path fill-rule="evenodd" clip-rule="evenodd" d="M10.5 10C10.5 9.72386 10.7239 9.5 11 9.5H12C12.2761 9.5 12.5 9.72386 12.5 10C12.5 10.2761 12.2761 10.5 12 10.5H11C10.7239 10.5 10.5 10.2761 10.5 10Z" fill="white"/>
<path fill-rule="evenodd" clip-rule="evenodd" d="M3.78002 3.16151C3.94222 3.0561 4.1315 3 4.32494 3H11.6751C11.8685 3 12.0578 3.0561 12.22 3.16151C12.3822 3.26691 12.5103 3.4171 12.5889 3.59386L14.4569 7.79693C14.4853 7.86086 14.5 7.93004 14.5 8V12C14.5 12.2761 14.2761 12.5 14 12.5H2C1.72386 12.5 1.5 12.2761 1.5 12V8C1.5 7.93004 1.51468 7.86086 1.54309 7.79693L3.41113 3.59386C3.48969 3.4171 3.61783 3.26691 3.78002 3.16151ZM11.6751 4L4.32494 4L2.5 8.10611V11.5H13.5V8.10611L11.6751 4Z" fill="white"/>
</svg>
