
<svg fill="none" height="32" viewBox="0 0 32 32" width="32">
	<g fill="${color}">
	<path d="m16 28c6.6274 0 12-5.3726 12-12 0-6.62742-5.3726-12-12-12-6.62742 0-12 5.37258-12 12 0 6.6274 5.37258 12 12 12z" opacity=".2"/>
	<g clip-rule="evenodd" fill-rule="evenodd">
	<path d="m22.2234 12.3095c.3813.3995.3666 1.0325-.0329 1.4139l-7.3334 7c-.3864.3688-.9945.3688-1.381 0l-3.66658-3.5c-.39949-.3814-.41421-1.0144-.03287-1.4139.38135-.3995 1.01435-.4142 1.41385-.0329l2.9761 2.841 6.6429-6.341c.3995-.3813 1.0325-.3666 1.4139.0329z"/>
	<path d="m16 5c-6.07513 0-11 4.92487-11 11 0 6.0751 4.92487 11 11 11 6.0751 0 11-4.9249 11-11 0-6.07513-4.9249-11-11-11zm-13 11c0-7.1797 5.8203-13 13-13s13 5.8203 13 13-5.8203 13-13 13-13-5.8203-13-13z"/>
	</g>
	</g>
</svg>