
<svg fill="none" height="32" viewBox="0 0 32 32" width="32">
		<g fill="${color}">
			<path d="m11 5h-4c-.26522 0-.51957.10536-.70711.29289-.18753.18754-.29289.44189-.29289.70711v21c0 .2652.10536.5196.29289.7071.18754.1875.44189.2929.70711.2929h18c.2652 0 .5196-.1054.7071-.2929s.2929-.4419.2929-.7071v-21c0-.26522-.1054-.51957-.2929-.70711-.1875-.18753-.4419-.29289-.7071-.29289h-4v3h-10z" opacity=".2"/>
			<g clip-rule="evenodd" fill-rule="evenodd">
				<path d="m10 3c0-.55228.4477-1 1-1h10c.5523 0 1 .44772 1 1v5c0 .55228-.4477 1-1 1h-10c-.5523 0-1-.44772-1-1zm2 1v3h8v-3z"/>
				<path d="m5.58579 4.58579c.37507-.37508.88378-.58579 1.41421-.58579h4c.5523 0 1 .44772 1 1s-.4477 1-1 1h-4v21h18v-21h-4c-.5523 0-1-.44772-1-1s.4477-1 1-1h4c.5304 0 1.0391.21071 1.4142.58579.3751.37507.5858.88378.5858 1.41421v21c0 .5304-.2107 1.0391-.5858 1.4142s-.8838.5858-1.4142.5858h-18c-.53043 0-1.03914-.2107-1.41421-.5858-.37508-.3751-.58579-.8838-.58579-1.4142v-21c0-.53043.21071-1.03914.58579-1.41421z"/>
				<path d="m11 19c0-.5523.4477-1 1-1h8c.5523 0 1 .4477 1 1s-.4477 1-1 1h-8c-.5523 0-1-.4477-1-1z"/>
				<path d="m11 15c0-.5523.4477-1 1-1h8c.5523 0 1 .4477 1 1s-.4477 1-1 1h-8c-.5523 0-1-.4477-1-1z"/>
			</g>
		</g>
</svg>