
<svg fill="none" height="32" viewBox="0 0 32 32" width="32">
	<g fill="${color}">
		<path d="m16 28c6.6274 0 12-5.3726 12-12 0-6.62742-5.3726-12-12-12-6.62742 0-12 5.37258-12 12 0 6.6274 5.37258 12 12 12z" opacity=".2"/>
		<g clip-rule="evenodd" fill-rule="evenodd">
			<path d="m16 5c-6.07513 0-11 4.92487-11 11 0 6.0751 4.92487 11 11 11 6.0751 0 11-4.9249 11-11 0-6.07513-4.9249-11-11-11zm-13 11c0-7.1797 5.8203-13 13-13s13 5.8203 13 13-5.8203 13-13 13-13-5.8203-13-13z"/>
			<path d="m16 8c.5523 0 1 .44772 1 1v6h6c.5523 0 1 .4477 1 1s-.4477 1-1 1h-7c-.5523 0-1-.4477-1-1v-7c0-.55228.4477-1 1-1z"/>
		</g>
	</g>
</svg>