
<svg width="16" height="16" viewBox="0 0 16 16" fill="none">
    <path opacity="0.2" d="M5.0005 8C5.0005 7.0111 5.29375 6.0444 5.84315 5.22215C6.39256 4.39991 7.17345 3.75904 8.08708 3.3806C9.00071 3.00217 10.006 2.90315 10.976 3.09608C11.9459 3.289 12.8368 3.76521 13.536 4.46447C14.2353 5.16373 14.7115 6.05465 14.9044 7.02455C15.0974 7.99446 14.9983 8.99979 14.6199 9.91342C14.2415 10.827 13.6006 11.6079 12.7784 12.1573C11.9561 12.7068 10.9894 13 10.0005 13H4.5005C4.00415 12.9995 3.51358 12.8935 3.06135 12.6889C2.60911 12.4843 2.20557 12.1859 1.87749 11.8134C1.54941 11.441 1.30431 11.003 1.15845 10.5285C1.01258 10.0541 0.9693 9.55407 1.03147 9.06163C1.09364 8.56919 1.25983 8.0956 1.51903 7.6723C1.77823 7.249 2.12449 6.88567 2.53484 6.60643C2.94519 6.32718 3.41025 6.13842 3.89913 6.05265C4.38802 5.96688 4.88956 5.98608 5.37045 6.10897" fill="${color}"/>
    <path fill-rule="evenodd" clip-rule="evenodd" d="M10.8784 3.58647C10.0055 3.41284 9.10069 3.50195 8.27843 3.84254C7.45616 4.18314 6.75335 4.75992 6.25889 5.49994C5.76442 6.23996 5.5005 7.10999 5.5005 8C5.5005 8.27614 5.27664 8.5 5.0005 8.5C4.72436 8.5 4.5005 8.27614 4.5005 8C4.5005 7.49243 4.57073 6.99017 4.70705 6.50689C4.46654 6.49057 4.22428 6.50325 3.98553 6.54513C3.56648 6.61864 3.16787 6.78044 2.81614 7.01979C2.46441 7.25915 2.16761 7.57057 1.94544 7.9334C1.72327 8.29623 1.58082 8.70216 1.52753 9.12425C1.47424 9.54635 1.51134 9.97495 1.63637 10.3816C1.76139 10.7883 1.97148 11.1637 2.25269 11.4829C2.5339 11.8022 2.8798 12.058 3.26743 12.2333C3.65505 12.4087 4.07554 12.4996 4.50099 12.5H10.0005C10.8905 12.5 11.7605 12.2361 12.5006 11.7416C13.2406 11.2471 13.8174 10.5443 14.158 9.72208C14.4986 8.89981 14.5877 7.99501 14.414 7.1221C14.2404 6.24918 13.8118 5.44736 13.1825 4.81802C12.5531 4.18869 11.7513 3.7601 10.8784 3.58647ZM5.08043 5.54177C4.66046 5.4806 4.23252 5.48653 3.81274 5.56017C3.25401 5.65819 2.72252 5.87392 2.25355 6.19306C1.78457 6.51219 1.38884 6.92743 1.09262 7.4112C0.796395 7.89497 0.606455 8.43621 0.535406 8.999C0.464357 9.5618 0.513823 10.1333 0.680523 10.6755C0.847222 11.2177 1.12734 11.7182 1.50229 12.1439C1.87723 12.5696 2.33843 12.9106 2.85527 13.1444C3.3721 13.3783 3.93276 13.4994 4.50002 13.5H10.0005C11.0883 13.5 12.1517 13.1774 13.0561 12.5731C13.9606 11.9687 14.6656 11.1098 15.0818 10.1048C15.4981 9.09977 15.607 7.9939 15.3948 6.92701C15.1826 5.86011 14.6588 4.8801 13.8896 4.11092C13.1204 3.34173 12.1404 2.8179 11.0735 2.60568C10.0066 2.39346 8.90074 2.50238 7.89574 2.91867C6.89075 3.33495 6.03177 4.0399 5.42742 4.94437C5.29888 5.13674 5.18308 5.33631 5.08043 5.54177Z" fill="${color}"/>
    <path fill-rule="evenodd" clip-rule="evenodd" d="M12.3536 6.89645C12.5488 7.09171 12.5488 7.40829 12.3536 7.60355L9.35355 10.6036C9.15829 10.7988 8.84171 10.7988 8.64645 10.6036L7.14645 9.10355C6.95118 8.90829 6.95118 8.59171 7.14645 8.39645C7.34171 8.20118 7.65829 8.20118 7.85355 8.39645L9 9.54289L11.6464 6.89645C11.8417 6.70118 12.1583 6.70118 12.3536 6.89645Z" fill="${color}"/>
    </svg>
    