
<svg fill="none" height="16" viewBox="0 0 16 16" width="16" xmlns:xlink="http://www.w3.org/1999/xlink">
	<clipPath id="a">
		<path d="m0 0h16v16h-16z"/>
	</clipPath>
	<clipPath id="b">
		<path d="m0-.055725h16v16h-16z"/>
	</clipPath>
	<g clip-path="url(#a)">
		<g clip-path="url(#b)" stroke="${color}" stroke-linecap="round" stroke-linejoin="round" stroke-width="1.33333">
			<path d="m5.59985 9.54427c0 .63653.50572 1.24693 1.40589 1.69703.90018.4501 2.12107.703 3.39416.703 1.273 0 2.4939-.2529 3.3941-.703.9001-.4501 1.4059-1.0605 1.4059-1.69703 0-.63652-.5058-1.24697-1.4059-1.69705-.9002-.45009-2.1211-.70295-3.3941-.70295-1.27309 0-2.49398.25286-3.39416.70295-.90017.45008-1.40589 1.06053-1.40589 1.69705z"/>
			<path d="m5.59985 9.54427v3.20003c0 1.3248 2.1488 2.4 4.80005 2.4 2.6512 0 4.8-1.0752 4.8-2.4v-3.20003"/>
			<path d="m.800049 3.14428c0 .31517.124155.62726.365381.91844.24122.29118.59479.55575 1.04051.77861s.97487.39965 1.55723.52026 1.20653.18269 1.83688.18269c.63034 0 1.25452-.06208 1.83688-.18269s1.11151-.2974 1.55723-.52026.79929-.48743 1.04054-.77861c.2412-.29118.3653-.60327.3653-.91844s-.1241-.62726-.3653-.91844c-.24125-.29118-.59482-.55576-1.04054-.77862s-.97487-.39964-1.55723-.520253c-.58236-.120611-1.20654-.182689-1.83688-.182689-.63035 0-1.25452.062078-1.83688.182689-.58236.120613-1.11151.297393-1.55723.520253s-.79929.48744-1.04051.77862c-.241226.29118-.365381.60327-.365381.91844z"/>
			<path d="m.800049 3.14427v8.00003c0 .7104.617601 1.3488 1.600001 1.7888"/>
			<path d="m.800049 7.14427c0 .7104.617601 1.3488 1.600001 1.7888"/>
		</g>
	</g>
</svg>