<svg width="24" height="24" viewBox="0 0 24 24" fill="none" xmlns="http://www.w3.org/2000/svg">
<path opacity="0.2" d="M9 13.875C9 14.7701 9.63214 15.6286 10.7574 16.2615C11.8826 16.8944 13.4087 17.25 15 17.25C16.5913 17.25 18.1174 16.8944 19.2426 16.2615C20.3679 15.6286 21 14.7701 21 13.875C21 12.9799 20.3679 12.1214 19.2426 11.4885C18.1174 10.8556 16.5913 10.5 15 10.5C13.4087 10.5 11.8826 10.8556 10.7574 11.4885C9.63214 12.1214 9 12.9799 9 13.875Z" fill="${color}"/>
<path opacity="0.2" d="M3 6C3 6.39397 3.15519 6.78407 3.45672 7.14805C3.75825 7.51203 4.20021 7.84274 4.75736 8.12132C5.31451 8.3999 5.97595 8.62087 6.7039 8.77164C7.43185 8.9224 8.21207 9 9 9C9.78793 9 10.5681 8.9224 11.2961 8.77164C12.0241 8.62087 12.6855 8.3999 13.2426 8.12132C13.7998 7.84274 14.2417 7.51203 14.5433 7.14805C14.8448 6.78407 15 6.39397 15 6C15 5.60603 14.8448 5.21593 14.5433 4.85195C14.2417 4.48797 13.7998 4.15726 13.2426 3.87868C12.6855 3.6001 12.0241 3.37913 11.2961 3.22836C10.5681 3.0776 9.78793 3 9 3C8.21207 3 7.43185 3.0776 6.7039 3.22836C5.97595 3.37913 5.31451 3.6001 4.75736 3.87868C4.20021 4.15726 3.75825 4.48797 3.45672 4.85195C3.15519 5.21593 3 5.60603 3 6Z" fill="${color}"/>
<path fill-rule="evenodd" clip-rule="evenodd" d="M10.4816 10.998C11.7085 10.3079 13.3344 9.93729 15 9.93729C16.6657 9.93729 18.2916 10.3079 19.5184 10.998C20.7338 11.6817 21.5625 12.6932 21.5625 13.8748C21.5625 15.0564 20.7338 16.0679 19.5184 16.7515C18.2916 17.4417 16.6657 17.8123 15 17.8123C13.3344 17.8123 11.7085 17.4417 10.4816 16.7515C9.26625 16.0679 8.43753 15.0564 8.43753 13.8748C8.43753 12.6932 9.26625 11.6817 10.4816 10.998ZM15 11.0623C13.4831 11.0623 12.0567 11.4028 11.0332 11.9786C9.9981 12.5608 9.56253 13.2661 9.56253 13.8748C9.56253 14.4834 9.9981 15.1888 11.0332 15.771C12.0567 16.3468 13.4831 16.6873 15 16.6873C16.517 16.6873 17.9434 16.3468 18.9669 15.771C20.002 15.1888 20.4375 14.4834 20.4375 13.8748C20.4375 13.2661 20.002 12.5608 18.9669 11.9786C17.9434 11.4028 16.517 11.0623 15 11.0623Z" fill="${color}"/>
<path fill-rule="evenodd" clip-rule="evenodd" d="M10.4449 10.9327C11.6853 10.2349 13.3245 9.8623 15 9.8623C16.6756 9.8623 18.3148 10.2349 19.5552 10.9327C20.7824 11.623 21.6376 12.6549 21.6376 13.8748C21.6376 15.0947 20.7824 16.1266 19.5552 16.8169C18.3148 17.5147 16.6756 17.8873 15 17.8873C13.3245 17.8873 11.6853 17.5147 10.4449 16.8169C9.21766 16.1266 8.36255 15.0947 8.36255 13.8748C8.36255 12.6549 9.21766 11.623 10.4449 10.9327ZM15 11.1373C13.493 11.1373 12.0799 11.4758 11.0699 12.0439C10.0472 12.6193 9.63755 13.3041 9.63755 13.8748C9.63755 14.4455 10.0472 15.1304 11.0699 15.7057C12.0799 16.2738 13.493 16.6123 15 16.6123C16.5071 16.6123 17.9202 16.2738 18.9302 15.7057C19.9529 15.1304 20.3625 14.4455 20.3625 13.8748C20.3625 13.3041 19.9529 12.6193 18.9302 12.0439C17.9202 11.4758 16.5071 11.1373 15 11.1373ZM15 9.93729C13.3344 9.93729 11.7085 10.3079 10.4816 10.998C9.26625 11.6817 8.43753 12.6932 8.43753 13.8748C8.43753 15.0564 9.26625 16.0679 10.4816 16.7515C11.7085 17.4417 13.3344 17.8123 15 17.8123C16.6657 17.8123 18.2916 17.4417 19.5184 16.7515C20.7338 16.0679 21.5625 15.0564 21.5625 13.8748C21.5625 12.6932 20.7338 11.6817 19.5184 10.998C18.2916 10.3079 16.6657 9.93729 15 9.93729ZM11.0332 11.9786C12.0567 11.4028 13.4831 11.0623 15 11.0623C16.517 11.0623 17.9434 11.4028 18.9669 11.9786C20.002 12.5608 20.4375 13.2661 20.4375 13.8748C20.4375 14.4834 20.002 15.1888 18.9669 15.771C17.9434 16.3468 16.517 16.6873 15 16.6873C13.4831 16.6873 12.0567 16.3468 11.0332 15.771C9.9981 15.1888 9.56253 14.4834 9.56253 13.8748C9.56253 13.2661 9.9981 12.5608 11.0332 11.9786Z" fill="${color}"/>
<path fill-rule="evenodd" clip-rule="evenodd" d="M6.58987 2.67736C7.35752 2.51837 8.17607 2.4373 9.00005 2.4373C9.82403 2.4373 10.6426 2.51837 11.4102 2.67736C12.177 2.83616 12.8861 3.07129 13.4942 3.37537C14.1001 3.67832 14.612 4.05287 14.9765 4.49291C15.3442 4.93679 15.5625 5.44992 15.5625 5.9998C15.5625 6.54969 15.3442 7.06281 14.9765 7.5067C14.612 7.94674 14.1001 8.32129 13.4942 8.62424C12.8861 8.92832 12.177 9.16345 11.4102 9.32226C10.6426 9.48124 9.82403 9.5623 9.00005 9.5623C8.17607 9.5623 7.35752 9.48124 6.58987 9.32226C5.82311 9.16345 5.11401 8.92832 4.50585 8.62424C3.89996 8.32129 3.38815 7.94674 3.0236 7.5067C2.65587 7.06281 2.43755 6.54969 2.43755 5.9998C2.43755 5.44992 2.65587 4.93679 3.0236 4.49291C3.38815 4.05287 3.89996 3.67832 4.50585 3.37537C5.11401 3.07129 5.82311 2.83616 6.58987 2.67736ZM9.00005 3.5623C8.24816 3.5623 7.50628 3.63643 6.81802 3.77898C6.12888 3.9217 5.51511 4.12853 5.00897 4.3816C4.50056 4.6358 4.12845 4.92269 3.88994 5.2106C3.65461 5.49467 3.56255 5.76176 3.56255 5.9998C3.56255 6.23785 3.65461 6.50494 3.88994 6.78901C4.12845 7.07692 4.50056 7.3638 5.00897 7.61801C5.51511 7.87108 6.12888 8.07791 6.81802 8.22063C7.50628 8.36318 8.24816 8.4373 9.00005 8.4373C9.75194 8.4373 10.4938 8.36318 11.1821 8.22063C11.8712 8.07791 12.485 7.87108 12.9911 7.61801C13.4995 7.3638 13.8716 7.07692 14.1102 6.78901C14.3455 6.50494 14.4375 6.23785 14.4375 5.9998C14.4375 5.76176 14.3455 5.49467 14.1102 5.2106C13.8716 4.92269 13.4995 4.6358 12.9911 4.3816C12.485 4.12853 11.8712 3.9217 11.1821 3.77898C10.4938 3.63643 9.75194 3.5623 9.00005 3.5623Z" fill="${color}"/>
<path fill-rule="evenodd" clip-rule="evenodd" d="M6.57466 2.60391C7.3476 2.44383 8.17127 2.3623 9.00005 2.3623C9.82883 2.3623 10.6525 2.44383 11.4254 2.60391C12.1974 2.76379 12.9128 3.00081 13.5278 3.30829C14.1402 3.61448 14.6613 3.99488 15.0343 4.44506C15.4108 4.89957 15.6375 5.4291 15.6375 5.9998C15.6375 6.57051 15.4108 7.10004 15.0343 7.55455C14.6613 8.00473 14.1402 8.38513 13.5278 8.69132C12.9128 8.9988 12.1974 9.23582 11.4254 9.3957C10.6525 9.55578 9.82883 9.63731 9.00005 9.63731C8.17127 9.63731 7.3476 9.55578 6.57466 9.3957C5.80273 9.23582 5.08727 8.9988 4.47231 8.69132C3.85992 8.38513 3.33879 8.00473 2.96585 7.55455C2.58932 7.10004 2.36255 6.57051 2.36255 5.9998C2.36255 5.4291 2.58932 4.89957 2.96585 4.44506C3.33879 3.99488 3.85992 3.61448 4.47231 3.30829C5.08727 3.00081 5.80273 2.76379 6.57466 2.60391ZM9.00005 3.6373C8.25297 3.6373 7.5162 3.71097 6.83324 3.85242C6.14926 3.99407 5.54185 4.19901 5.04251 4.44868C4.5406 4.69964 4.17781 4.98068 3.9477 5.25845C3.72124 5.5318 3.63755 5.78249 3.63755 5.9998C3.63755 6.21712 3.72124 6.46781 3.9477 6.74116C4.17781 7.01893 4.5406 7.29997 5.04251 7.55093C5.54185 7.8006 6.14926 8.00554 6.83324 8.14719C7.5162 8.28864 8.25297 8.3623 9.00005 8.3623C9.74713 8.3623 10.4839 8.28864 11.1669 8.14719C11.8508 8.00554 12.4582 7.8006 12.9576 7.55093C13.4595 7.29997 13.8223 7.01893 14.0524 6.74116C14.2789 6.46781 14.3625 6.21712 14.3625 5.9998C14.3625 5.78249 14.2789 5.5318 14.0524 5.25845C13.8223 4.98068 13.4595 4.69964 12.9576 4.44868C12.4582 4.19901 11.8508 3.99407 11.1669 3.85242C10.4839 3.71097 9.74713 3.6373 9.00005 3.6373ZM9.00005 2.4373C8.17607 2.4373 7.35752 2.51837 6.58987 2.67736C5.82311 2.83616 5.11401 3.07129 4.50585 3.37537C3.89996 3.67832 3.38815 4.05287 3.0236 4.49291C2.65587 4.93679 2.43755 5.44992 2.43755 5.9998C2.43755 6.54969 2.65587 7.06281 3.0236 7.5067C3.38815 7.94674 3.89996 8.32129 4.50585 8.62424C5.11401 8.92832 5.82311 9.16345 6.58987 9.32226C7.35752 9.48124 8.17607 9.5623 9.00005 9.5623C9.82403 9.5623 10.6426 9.48124 11.4102 9.32226C12.177 9.16345 12.8861 8.92832 13.4942 8.62424C14.1001 8.32129 14.612 7.94674 14.9765 7.5067C15.3442 7.06281 15.5625 6.54969 15.5625 5.9998C15.5625 5.44992 15.3442 4.93679 14.9765 4.49291C14.612 4.05287 14.1001 3.67832 13.4942 3.37537C12.8861 3.07129 12.177 2.83616 11.4102 2.67736C10.6426 2.51837 9.82403 2.4373 9.00005 2.4373ZM6.81802 3.77898C7.50628 3.63643 8.24816 3.5623 9.00005 3.5623C9.75194 3.5623 10.4938 3.63643 11.1821 3.77898C11.8712 3.9217 12.485 4.12853 12.9911 4.3816C13.4995 4.6358 13.8716 4.92269 14.1102 5.2106C14.3455 5.49467 14.4375 5.76176 14.4375 5.9998C14.4375 6.23785 14.3455 6.50494 14.1102 6.78901C13.8716 7.07692 13.4995 7.3638 12.9911 7.61801C12.485 7.87108 11.8712 8.07791 11.1821 8.22063C10.4938 8.36318 9.75194 8.4373 9.00005 8.4373C8.24816 8.4373 7.50628 8.36318 6.81802 8.22063C6.12888 8.07791 5.51511 7.87108 5.00897 7.61801C4.50056 7.3638 4.12845 7.07692 3.88994 6.78901C3.65461 6.50494 3.56255 6.23785 3.56255 5.9998C3.56255 5.76176 3.65461 5.49467 3.88994 5.2106C4.12845 4.92269 4.50056 4.6358 5.00897 4.3816C5.51511 4.12853 6.12888 3.9217 6.81802 3.77898Z" fill="${color}"/>
<path fill-rule="evenodd" clip-rule="evenodd" d="M10.4816 10.9981C11.7085 10.3079 13.3344 9.9373 15 9.9373C16.6657 9.9373 18.2916 10.3079 19.5185 10.9981C20.7338 11.6817 21.5626 12.6932 21.5626 13.8748C21.5626 15.0564 20.7338 16.0679 19.5185 16.7516C18.2916 17.4417 16.6657 17.8123 15 17.8123C13.3344 17.8123 11.7085 17.4417 10.4816 16.7516C9.26626 16.0679 8.43755 15.0564 8.43755 13.8748C8.43755 12.6932 9.26626 11.6817 10.4816 10.9981ZM15 11.0623C13.4831 11.0623 12.0567 11.4028 11.0332 11.9786C9.99812 12.5608 9.56255 13.2662 9.56255 13.8748C9.56255 14.4834 9.99812 15.1888 11.0332 15.771C12.0567 16.3468 13.4831 16.6873 15 16.6873C16.517 16.6873 17.9434 16.3468 18.9669 15.771C20.002 15.1888 20.4376 14.4834 20.4376 13.8748C20.4376 13.2662 20.002 12.5608 18.9669 11.9786C17.9434 11.4028 16.517 11.0623 15 11.0623Z" fill="${color}"/>
<path fill-rule="evenodd" clip-rule="evenodd" d="M10.4449 10.9327C11.6853 10.2349 13.3245 9.8623 15 9.8623C16.6756 9.8623 18.3148 10.2349 19.5552 10.9327C20.7824 11.623 21.6376 12.6549 21.6376 13.8748C21.6376 15.0947 20.7824 16.1266 19.5552 16.8169C18.3148 17.5147 16.6756 17.8873 15 17.8873C13.3245 17.8873 11.6853 17.5147 10.4449 16.8169C9.21766 16.1266 8.36255 15.0947 8.36255 13.8748C8.36255 12.6549 9.21766 11.623 10.4449 10.9327ZM15 11.1373C13.493 11.1373 12.0799 11.4758 11.0699 12.0439C10.0472 12.6193 9.63755 13.3041 9.63755 13.8748C9.63755 14.4455 10.0472 15.1304 11.0699 15.7057C12.0799 16.2738 13.493 16.6123 15 16.6123C16.5071 16.6123 17.9202 16.2738 18.9302 15.7057C19.9529 15.1304 20.3625 14.4455 20.3625 13.8748C20.3625 13.3041 19.9529 12.6193 18.9302 12.0439C17.9202 11.4758 16.5071 11.1373 15 11.1373ZM15 9.9373C13.3344 9.9373 11.7085 10.3079 10.4816 10.9981C9.26626 11.6817 8.43755 12.6932 8.43755 13.8748C8.43755 15.0564 9.26626 16.0679 10.4816 16.7516C11.7085 17.4417 13.3344 17.8123 15 17.8123C16.6657 17.8123 18.2916 17.4417 19.5185 16.7516C20.7338 16.0679 21.5626 15.0564 21.5626 13.8748C21.5626 12.6932 20.7338 11.6817 19.5185 10.9981C18.2916 10.3079 16.6657 9.9373 15 9.9373ZM11.0332 11.9786C12.0567 11.4028 13.4831 11.0623 15 11.0623C16.517 11.0623 17.9434 11.4028 18.9669 11.9786C20.002 12.5608 20.4376 13.2662 20.4376 13.8748C20.4376 14.4834 20.002 15.1888 18.9669 15.771C17.9434 16.3468 16.517 16.6873 15 16.6873C13.4831 16.6873 12.0567 16.3468 11.0332 15.771C9.99812 15.1888 9.56255 14.4834 9.56255 13.8748C9.56255 13.2662 9.99812 12.5608 11.0332 11.9786Z" fill="${color}"/>
<path fill-rule="evenodd" clip-rule="evenodd" d="M9.00005 13.6873C9.31071 13.6873 9.56255 13.9391 9.56255 14.2498V18.1069C9.56255 18.5667 9.96769 19.1469 11.0016 19.6455C11.9958 20.125 13.4087 20.4373 15 20.4373C16.5914 20.4373 18.0043 20.125 18.9985 19.6455C20.0324 19.1469 20.4376 18.5667 20.4376 18.1069V14.2498C20.4376 13.9391 20.6894 13.6873 21.0001 13.6873C21.3107 13.6873 21.5626 13.9391 21.5626 14.2498V18.1069C21.5626 19.244 20.6247 20.1103 19.4871 20.6589C18.3098 21.2266 16.7227 21.5623 15 21.5623C13.2774 21.5623 11.6903 21.2266 10.513 20.6589C9.37541 20.1103 8.43755 19.244 8.43755 18.1069V14.2498C8.43755 13.9391 8.68939 13.6873 9.00005 13.6873Z" fill="${color}"/>
<path fill-rule="evenodd" clip-rule="evenodd" d="M9.00005 13.6123C9.35213 13.6123 9.63755 13.8977 9.63755 14.2498V18.1069C9.63755 18.5219 10.0077 19.0829 11.0342 19.578C12.0161 20.0515 13.4175 20.3623 15 20.3623C16.5826 20.3623 17.984 20.0515 18.9659 19.578C19.9924 19.0829 20.3625 18.5219 20.3625 18.1069V14.2498C20.3625 13.8977 20.648 13.6123 21.0001 13.6123C21.3521 13.6123 21.6376 13.8977 21.6376 14.2498V18.1069C21.6376 19.2894 20.6639 20.1746 19.5197 20.7264C18.3301 21.3001 16.7315 21.6373 15 21.6373C13.2686 21.6373 11.67 21.3001 10.4804 20.7264C9.33624 20.1746 8.36255 19.2894 8.36255 18.1069V14.2498C8.36255 13.8977 8.64797 13.6123 9.00005 13.6123ZM9.56255 14.2498C9.56255 13.9391 9.31071 13.6873 9.00005 13.6873C8.68939 13.6873 8.43755 13.9391 8.43755 14.2498V18.1069C8.43755 19.244 9.37541 20.1103 10.513 20.6589C11.6903 21.2266 13.2774 21.5623 15 21.5623C16.7227 21.5623 18.3098 21.2266 19.4871 20.6589C20.6247 20.1103 21.5626 19.244 21.5626 18.1069V14.2498C21.5626 13.9391 21.3107 13.6873 21.0001 13.6873C20.6894 13.6873 20.4376 13.9391 20.4376 14.2498V18.1069C20.4376 18.5667 20.0324 19.1469 18.9985 19.6455C18.0043 20.125 16.5914 20.4373 15 20.4373C13.4087 20.4373 11.9958 20.125 11.0016 19.6455C9.96769 19.1469 9.56255 18.5667 9.56255 18.1069V14.2498Z" fill="${color}"/>
<path fill-rule="evenodd" clip-rule="evenodd" d="M6.58987 2.67736C7.35752 2.51837 8.17607 2.4373 9.00005 2.4373C9.82403 2.4373 10.6426 2.51837 11.4102 2.67736C12.177 2.83616 12.8861 3.07129 13.4942 3.37537C14.1001 3.67832 14.612 4.05287 14.9765 4.49291C15.3442 4.93679 15.5625 5.44992 15.5625 5.9998C15.5625 6.54969 15.3442 7.06281 14.9765 7.5067C14.612 7.94674 14.1001 8.32129 13.4942 8.62424C12.8861 8.92832 12.177 9.16345 11.4102 9.32226C10.6426 9.48124 9.82403 9.5623 9.00005 9.5623C8.17607 9.5623 7.35752 9.48124 6.58987 9.32226C5.82311 9.16345 5.11401 8.92832 4.50585 8.62424C3.89996 8.32129 3.38815 7.94674 3.0236 7.5067C2.65587 7.06281 2.43755 6.54969 2.43755 5.9998C2.43755 5.44992 2.65587 4.93679 3.0236 4.49291C3.38815 4.05287 3.89996 3.67832 4.50585 3.37537C5.11401 3.07129 5.82311 2.83616 6.58987 2.67736ZM9.00005 3.5623C8.24816 3.5623 7.50628 3.63643 6.81802 3.77898C6.12888 3.9217 5.51511 4.12853 5.00897 4.3816C4.50056 4.6358 4.12845 4.92269 3.88994 5.2106C3.65461 5.49467 3.56255 5.76176 3.56255 5.9998C3.56255 6.23785 3.65461 6.50494 3.88994 6.78901C4.12845 7.07692 4.50056 7.3638 5.00897 7.61801C5.51511 7.87108 6.12888 8.07791 6.81802 8.22063C7.50628 8.36318 8.24816 8.4373 9.00005 8.4373C9.75194 8.4373 10.4938 8.36318 11.1821 8.22063C11.8712 8.07791 12.485 7.87108 12.9911 7.61801C13.4995 7.3638 13.8716 7.07692 14.1102 6.78901C14.3455 6.50494 14.4375 6.23785 14.4375 5.9998C14.4375 5.76176 14.3455 5.49467 14.1102 5.2106C13.8716 4.92269 13.4995 4.6358 12.9911 4.3816C12.485 4.12853 11.8712 3.9217 11.1821 3.77898C10.4938 3.63643 9.75194 3.5623 9.00005 3.5623Z" fill="${color}"/>
<path fill-rule="evenodd" clip-rule="evenodd" d="M6.57466 2.60391C7.3476 2.44383 8.17127 2.3623 9.00005 2.3623C9.82883 2.3623 10.6525 2.44383 11.4254 2.60391C12.1974 2.76379 12.9128 3.00081 13.5278 3.30829C14.1402 3.61448 14.6613 3.99488 15.0343 4.44506C15.4108 4.89957 15.6375 5.4291 15.6375 5.9998C15.6375 6.57051 15.4108 7.10004 15.0343 7.55455C14.6613 8.00473 14.1402 8.38513 13.5278 8.69132C12.9128 8.9988 12.1974 9.23582 11.4254 9.3957C10.6525 9.55578 9.82883 9.63731 9.00005 9.63731C8.17127 9.63731 7.3476 9.55578 6.57466 9.3957C5.80273 9.23582 5.08727 8.9988 4.47231 8.69132C3.85992 8.38513 3.33879 8.00473 2.96585 7.55455C2.58932 7.10004 2.36255 6.57051 2.36255 5.9998C2.36255 5.4291 2.58932 4.89957 2.96585 4.44506C3.33879 3.99488 3.85992 3.61448 4.47231 3.30829C5.08727 3.00081 5.80273 2.76379 6.57466 2.60391ZM9.00005 3.6373C8.25297 3.6373 7.5162 3.71097 6.83324 3.85242C6.14926 3.99407 5.54185 4.19901 5.04251 4.44868C4.5406 4.69964 4.17781 4.98068 3.9477 5.25845C3.72124 5.5318 3.63755 5.78249 3.63755 5.9998C3.63755 6.21712 3.72124 6.46781 3.9477 6.74116C4.17781 7.01893 4.5406 7.29997 5.04251 7.55093C5.54185 7.8006 6.14926 8.00554 6.83324 8.14719C7.5162 8.28864 8.25297 8.3623 9.00005 8.3623C9.74713 8.3623 10.4839 8.28864 11.1669 8.14719C11.8508 8.00554 12.4582 7.8006 12.9576 7.55093C13.4595 7.29997 13.8223 7.01893 14.0524 6.74116C14.2789 6.46781 14.3625 6.21712 14.3625 5.9998C14.3625 5.78249 14.2789 5.5318 14.0524 5.25845C13.8223 4.98068 13.4595 4.69964 12.9576 4.44868C12.4582 4.19901 11.8508 3.99407 11.1669 3.85242C10.4839 3.71097 9.74713 3.6373 9.00005 3.6373ZM9.00005 2.4373C8.17607 2.4373 7.35752 2.51837 6.58987 2.67736C5.82311 2.83616 5.11401 3.07129 4.50585 3.37537C3.89996 3.67832 3.38815 4.05287 3.0236 4.49291C2.65587 4.93679 2.43755 5.44992 2.43755 5.9998C2.43755 6.54969 2.65587 7.06281 3.0236 7.5067C3.38815 7.94674 3.89996 8.32129 4.50585 8.62424C5.11401 8.92832 5.82311 9.16345 6.58987 9.32226C7.35752 9.48124 8.17607 9.5623 9.00005 9.5623C9.82403 9.5623 10.6426 9.48124 11.4102 9.32226C12.177 9.16345 12.8861 8.92832 13.4942 8.62424C14.1001 8.32129 14.612 7.94674 14.9765 7.5067C15.3442 7.06281 15.5625 6.54969 15.5625 5.9998C15.5625 5.44992 15.3442 4.93679 14.9765 4.49291C14.612 4.05287 14.1001 3.67832 13.4942 3.37537C12.8861 3.07129 12.177 2.83616 11.4102 2.67736C10.6426 2.51837 9.82403 2.4373 9.00005 2.4373ZM6.81802 3.77898C7.50628 3.63643 8.24816 3.5623 9.00005 3.5623C9.75194 3.5623 10.4938 3.63643 11.1821 3.77898C11.8712 3.9217 12.485 4.12853 12.9911 4.3816C13.4995 4.6358 13.8716 4.92269 14.1102 5.2106C14.3455 5.49467 14.4375 5.76176 14.4375 5.9998C14.4375 6.23785 14.3455 6.50494 14.1102 6.78901C13.8716 7.07692 13.4995 7.3638 12.9911 7.61801C12.485 7.87108 11.8712 8.07791 11.1821 8.22063C10.4938 8.36318 9.75194 8.4373 9.00005 8.4373C8.24816 8.4373 7.50628 8.36318 6.81802 8.22063C6.12888 8.07791 5.51511 7.87108 5.00897 7.61801C4.50056 7.3638 4.12845 7.07692 3.88994 6.78901C3.65461 6.50494 3.56255 6.23785 3.56255 5.9998C3.56255 5.76176 3.65461 5.49467 3.88994 5.2106C4.12845 4.92269 4.50056 4.6358 5.00897 4.3816C5.51511 4.12853 6.12888 3.9217 6.81802 3.77898Z" fill="${color}"/>
<path fill-rule="evenodd" clip-rule="evenodd" d="M3.00005 5.4373C3.31071 5.4373 3.56255 5.68914 3.56255 5.9998V15.8069C3.56255 16.407 3.96388 17.0339 4.78432 17.5144C5.05239 17.6714 5.14243 18.016 4.98543 18.2841C4.82843 18.5521 4.48385 18.6422 4.21578 18.4852C3.19421 17.8869 2.43755 16.9487 2.43755 15.8069V5.9998C2.43755 5.68914 2.68939 5.4373 3.00005 5.4373Z" fill="${color}"/>
<path fill-rule="evenodd" clip-rule="evenodd" d="M3.00005 5.3623C3.35213 5.3623 3.63755 5.64772 3.63755 5.9998V15.8069C3.63755 16.3711 4.01546 16.9772 4.82222 17.4497C5.12603 17.6276 5.22808 18.0182 5.05015 18.322C4.87222 18.6258 4.48169 18.7278 4.17788 18.5499C3.14307 17.9439 2.36255 16.9849 2.36255 15.8069V5.9998C2.36255 5.64772 2.64797 5.3623 3.00005 5.3623ZM3.56255 5.9998C3.56255 5.68914 3.31071 5.4373 3.00005 5.4373C2.68939 5.4373 2.43755 5.68914 2.43755 5.9998V15.8069C2.43755 16.9487 3.19421 17.8869 4.21578 18.4852C4.48385 18.6422 4.82843 18.5521 4.98543 18.2841C5.14243 18.016 5.05239 17.6714 4.78432 17.5144C3.96388 17.0339 3.56255 16.407 3.56255 15.8069V5.9998Z" fill="${color}"/>
<path fill-rule="evenodd" clip-rule="evenodd" d="M3 9.9375C3.31066 9.9375 3.5625 10.1893 3.5625 10.5C3.5625 11.1299 3.97225 11.7766 4.78973 12.2679C5.05601 12.4279 5.14216 12.7734 4.98214 13.0397C4.82213 13.306 4.47655 13.3922 4.21027 13.2321C3.18575 12.6165 2.4375 11.6572 2.4375 10.5C2.4375 10.1893 2.68934 9.9375 3 9.9375Z" fill="${color}"/>
</svg>
