
<svg height="32" viewBox="0 0 32 32" width="32">
<g fill="${color}">
<path d="m21 10.9991v10h6v-15.99995h-16v5.99995z" opacity=".2"/>
<g clip-rule="evenodd" fill-rule="evenodd">
<path d="m10 4.99915c0-.55229.4477-1 1-1h16c.5523 0 1 .44771 1 1v15.99995c0 .5523-.4477 1-1 1h-6c-.5523 0-1-.4477-1-1 0-.5522.4477-1 1-1h5v-13.99995h-14v4.99995c0 .5523-.4477 1-1 1s-1-.4477-1-1z"/>
<path d="m3.99976 10.9993c0-.5523.44771-1.00003 1-1.00003h16.00004c.5522 0 1 .44773 1 1.00003v16c0 .5523-.4478 1-1 1h-16.00004c-.55229 0-1-.4477-1-1zm2 1v14h14.00004v-14z"/>
</g>
</g>
</svg>