
<svg width="32" height="32" viewBox="0 0 32 32" fill="none">
	<path fill-rule="evenodd" clip-rule="evenodd" d="M20 6C20 5.44772 20.4477 5 21 5H26C26.5523 5 27 5.44772 27 6V11C27 11.5523 26.5523 12 26 12C25.4477 12 25 11.5523 25 11V7H21C20.4477 7 20 6.55228 20 6Z" fill="${color}"/>
	<path fill-rule="evenodd" clip-rule="evenodd" d="M6 20C6.55228 20 7 20.4477 7 21V25H11C11.5523 25 12 25.4477 12 26C12 26.5523 11.5523 27 11 27H6C5.44772 27 5 26.5523 5 26V21C5 20.4477 5.44772 20 6 20Z" fill="${color}"/>
	<path fill-rule="evenodd" clip-rule="evenodd" d="M26 20C26.5523 20 27 20.4477 27 21V26C27 26.5523 26.5523 27 26 27H21C20.4477 27 20 26.5523 20 26C20 25.4477 20.4477 25 21 25H25V21C25 20.4477 25.4477 20 26 20Z" fill="${color}"/>
	<path fill-rule="evenodd" clip-rule="evenodd" d="M5 6C5 5.44772 5.44772 5 6 5H11C11.5523 5 12 5.44772 12 6C12 6.55228 11.5523 7 11 7H7V11C7 11.5523 6.55228 12 6 12C5.44772 12 5 11.5523 5 11V6Z" fill="${color}"/>
</svg>