
<svg width="32" height="33" viewBox="0 0 32 33" fill="none">
	<rect y="0.5" width="32" height="32" rx="16" fill="${color}" fill-opacity="0.1"/>
	<path fill-rule="evenodd" clip-rule="evenodd" d="M12.3841 13.6799C12.5609 13.8921 12.5322 14.2073 12.3201 14.3841L9.78103 16.5L12.3201 18.6159C12.5322 18.7927 12.5609 19.108 12.3841 19.3201C12.2073 19.5322 11.892 19.5609 11.6799 19.3841L8.67991 16.8841C8.56591 16.7891 8.5 16.6484 8.5 16.5C8.5 16.3516 8.56591 16.2109 8.67991 16.1159L11.6799 13.6159C11.892 13.4391 12.2073 13.4678 12.3841 13.6799Z" fill="${color}"/>
	<path fill-rule="evenodd" clip-rule="evenodd" d="M19.6159 13.6799C19.7927 13.4678 20.108 13.4391 20.3201 13.6159L23.3201 16.1159C23.4341 16.2109 23.5 16.3516 23.5 16.5C23.5 16.6484 23.4341 16.7891 23.3201 16.8841L20.3201 19.3841C20.108 19.5609 19.7927 19.5322 19.6159 19.3201C19.4391 19.108 19.4678 18.7927 19.6799 18.6159L22.219 16.5L19.6799 14.3841C19.4678 14.2073 19.4391 13.8921 19.6159 13.6799Z" fill="${color}"/>
	<path fill-rule="evenodd" clip-rule="evenodd" d="M18.171 10.5302C18.4305 10.6246 18.5644 10.9115 18.47 11.171L14.47 22.171C14.3757 22.4305 14.0888 22.5644 13.8293 22.47C13.5697 22.3757 13.4359 22.0888 13.5302 21.8293L17.5302 10.8293C17.6246 10.5697 17.9115 10.4359 18.171 10.5302Z" fill="${color}"/>
</svg>