
<svg width="24" height="24" viewBox="0 0 24 24" fill="none">
		<path opacity="0.2" d="M11.999 5.24927C4.49902 5.24927 1.49902 12 1.49902 12C1.49902 12 4.49902 18.7493 11.999 18.7493C19.499 18.7493 22.499 12 22.499 12C22.499 12 19.499 5.24927 11.999 5.24927ZM11.999 15.75C11.2573 15.75 10.5323 15.5301 9.91564 15.1181C9.29895 14.706 8.8183 14.1203 8.53447 13.4351C8.25065 12.7499 8.17638 11.9959 8.32108 11.2685C8.46577 10.541 8.82293 9.87284 9.34737 9.3484C9.87182 8.82395 10.54 8.4668 11.2674 8.3221C11.9949 8.17741 12.7489 8.25167 13.4341 8.5355C14.1193 8.81933 14.705 9.29997 15.117 9.91666C15.5291 10.5333 15.749 11.2584 15.749 12C15.749 12.9946 15.3539 13.9484 14.6507 14.6517C13.9474 15.355 12.9936 15.75 11.999 15.75Z" fill="${color}"/>
		<path fill-rule="evenodd" clip-rule="evenodd" d="M3.40616 8.09433C5.19403 6.30628 7.99956 4.49927 11.999 4.49927C15.9985 4.49927 18.804 6.30628 20.5919 8.09433C21.4836 8.9862 22.1267 9.87676 22.5478 10.5456C22.7587 10.8806 22.915 11.1617 23.0199 11.362C23.0723 11.4621 23.112 11.5422 23.1393 11.5989C23.1529 11.6272 23.1635 11.6497 23.171 11.6659L23.1799 11.6855L23.1827 11.6917L23.1841 11.6947C23.1842 11.6951 23.1844 11.6954 22.499 12C23.1844 12.3046 23.1842 12.305 23.1841 12.3053L23.1837 12.3062L23.1827 12.3084L23.1799 12.3145L23.1709 12.3341C23.1634 12.3504 23.1529 12.3729 23.1392 12.4012C23.112 12.4578 23.0723 12.5379 23.0198 12.638C22.915 12.8382 22.7587 13.1193 22.5477 13.4542C22.1266 14.1229 21.4836 15.0133 20.5918 15.905C18.8039 17.6927 15.9984 19.4993 11.999 19.4993C7.99962 19.4993 5.1941 17.6927 3.40622 15.905C2.51445 15.0133 1.8714 14.1229 1.45031 13.4542C1.23939 13.1193 1.08309 12.8382 0.97822 12.638C0.925759 12.5379 0.886084 12.4578 0.858808 12.4012C0.845168 12.3729 0.83462 12.3504 0.827116 12.3341L0.818135 12.3145L0.815343 12.3084L0.814369 12.3062L0.813988 12.3053C0.813827 12.305 0.813677 12.3046 1.49902 12C0.813653 11.6954 0.813802 11.6951 0.813964 11.6947L0.814345 11.6939L0.815318 11.6917L0.818109 11.6855L0.82709 11.6659C0.834593 11.6497 0.845141 11.6272 0.858781 11.5989C0.886056 11.5422 0.925729 11.4621 0.978189 11.362C1.08305 11.1617 1.23935 10.8806 1.45027 10.5456C1.87136 9.87676 2.5144 8.9862 3.40616 8.09433ZM1.49902 12L0.813653 11.6954C0.727472 11.8894 0.727481 12.1107 0.813677 12.3046L1.49902 12ZM2.33761 12C2.42584 11.8347 2.55256 11.6102 2.71966 11.3448C3.09544 10.7479 3.67115 9.95076 4.46688 9.15493C6.05402 7.56762 8.49849 5.99927 11.999 5.99927C15.4996 5.99927 17.944 7.56762 19.5312 9.15493C20.3269 9.95076 20.9026 10.7479 21.2784 11.3448C21.4455 11.6102 21.5722 11.8347 21.6604 12C21.5722 12.1652 21.4455 12.3896 21.2784 12.6549C20.9027 13.2517 20.327 14.0486 19.5312 14.8443C17.9441 16.4312 15.4996 17.9993 11.999 17.9993C8.49843 17.9993 6.05395 16.4312 4.46682 14.8443C3.6711 14.0486 3.0954 13.2517 2.71962 12.6549C2.55254 12.3896 2.42584 12.1652 2.33761 12ZM22.499 12L23.1844 12.3046C23.2706 12.1107 23.2706 11.8894 23.1844 11.6954L22.499 12Z" fill="${color}"/>
		<path fill-rule="evenodd" clip-rule="evenodd" d="M11.999 9C10.3422 9 8.99902 10.3431 8.99902 12C8.99902 13.6569 10.3422 15 11.999 15C13.6559 15 14.999 13.6569 14.999 12C14.999 10.3431 13.6559 9 11.999 9ZM7.49902 12C7.49902 9.51472 9.51374 7.5 11.999 7.5C14.4843 7.5 16.499 9.51472 16.499 12C16.499 14.4853 14.4843 16.5 11.999 16.5C9.51374 16.5 7.49902 14.4853 7.49902 12Z" fill="${color}"/>
</svg>