
<svg height="133" viewBox="0 0 133 133" width="133">
<path clip-rule="evenodd" d="m6.75391 36.4971v-14.9366c0-8.1644 6.64229-14.80659 14.80659-14.80659h14.9366c1.865 0 3.3769-1.51197 3.3769-3.37696 0-1.86498-1.5119-3.37695-3.3769-3.37695h-14.9366c-11.88839 0-21.5605 9.67198-21.5605 21.5605v14.9366c0 1.865 1.51197 3.3769 3.37695 3.3769 1.86499 0 3.37696-1.5119 3.37696-3.3769zm29.74319 89.7489c1.865 0 3.3769 1.512 3.3769 3.377s-1.5119 3.377-3.3769 3.377h-14.9366c-11.88839 0-21.5605-9.672-21.5605-21.561v-14.9361c0-1.865 1.51197-3.3769 3.37695-3.3769 1.86499 0 3.37696 1.5119 3.37696 3.3769v14.9361c0 8.165 6.64229 14.807 14.80659 14.807zm96.5029-29.7431v14.9361c0 11.889-9.672 21.561-21.561 21.561h-14.9361c-1.865 0-3.3769-1.512-3.3769-3.377s1.5119-3.377 3.3769-3.377h14.9361c8.165 0 14.807-6.642 14.807-14.807v-14.9361c0-1.865 1.512-3.3769 3.377-3.3769s3.377 1.5119 3.377 3.3769zm0-74.9424v14.9366c0 1.865-1.512 3.3769-3.377 3.3769s-3.377-1.5119-3.377-3.3769v-14.9366c0-8.1644-6.642-14.80659-14.807-14.80659h-14.9361c-1.865 0-3.3769-1.51197-3.3769-3.37696 0-1.86498 1.5119-3.37695 3.3769-3.37695h14.9361c11.889 0 21.561 9.67198 21.561 21.5605zm-43.1953 76.7395c1.4228-1.3142 1.5107-3.5328.1966-4.9556-1.3143-1.4227-3.5329-1.5106-4.9556-.1966-5.0624 4.6763-11.6488 7.2512-18.5457 7.2512s-13.4833-2.5749-18.5457-7.2512c-1.423-1.314-3.6413-1.226-4.9556.1966-1.3141 1.4228-1.2262 3.6414.1966 4.9556 6.3623 5.877 14.6385 9.113 23.3047 9.113s16.9424-3.236 23.3047-9.113zm-16.291-48.1652v24.9375c0 4.9416-4.0203 8.9619-8.9619 8.9619h-2.8575c-1.9368 0-3.5068-1.57-3.5068-3.5069 0-1.9368 1.57-3.5068 3.5068-3.5068h2.8575c1.0742 0 1.9482-.874 1.9482-1.9482v-24.9375c0-1.9368 1.57-3.5069 3.5068-3.5069s3.5069 1.5701 3.5069 3.5069zm24.1582 9.8061v-10.001c0-1.8291-1.4829-3.312-3.312-3.312-1.8292 0-3.312 1.4829-3.312 3.312v10.001c0 1.8292 1.4828 3.312 3.312 3.312 1.8291 0 3.312-1.4828 3.312-3.312zm-61.5645 0c0 1.8292 1.4829 3.312 3.312 3.312 1.8292 0 3.312-1.4828 3.312-3.312v-10.001c0-1.8291-1.4828-3.312-3.312-3.312-1.8291 0-3.312 1.4829-3.312 3.312z" fill="${color}" fill-rule="evenodd"/>
</svg>