<svg width="64" height="64" viewBox="0 0 64 64" fill="none" xmlns="http://www.w3.org/2000/svg">
<rect width="64" height="64" rx="8" fill="#FF4400"/>
<path opacity="0.2" d="M24.4989 38.2502C22.4004 36.6759 20.8503 34.4813 20.0683 31.9771C19.2863 29.473 19.3119 26.7862 20.1417 24.2975C20.9714 21.8088 22.5631 19.6441 24.6914 18.1103C26.8196 16.5764 29.3766 15.751 32 15.751C34.6234 15.751 37.1803 16.5764 39.3086 18.1102C41.4369 19.6441 43.0286 21.8087 43.8583 24.2975C44.6881 26.7862 44.7137 29.4729 43.9317 31.9771C43.1497 34.4812 41.5997 36.6759 39.5011 38.2501" fill="white"/>
<path fill-rule="evenodd" clip-rule="evenodd" d="M25.75 43.25C25.75 42.5596 26.3096 42 27 42H37C37.6904 42 38.25 42.5596 38.25 43.25C38.25 43.9404 37.6904 44.5 37 44.5H27C26.3096 44.5 25.75 43.9404 25.75 43.25Z" fill="white"/>
<path fill-rule="evenodd" clip-rule="evenodd" d="M27 48.25C27 47.5596 27.5596 47 28.25 47H35.75C36.4404 47 37 47.5596 37 48.25C37 48.9404 36.4404 49.5 35.75 49.5H28.25C27.5596 49.5 27 48.9404 27 48.25Z" fill="white"/>
<path fill-rule="evenodd" clip-rule="evenodd" d="M32 17.001C29.6389 17.001 27.3377 17.7438 25.4222 19.1243C23.5068 20.5048 22.0743 22.453 21.3275 24.6928C20.5807 26.9327 20.5576 29.3508 21.2615 31.6045C21.9653 33.8582 23.3603 35.8334 25.249 37.2502C25.8013 37.6645 25.9131 38.448 25.4988 39.0003C25.0846 39.5525 24.3011 39.6644 23.7488 39.2501C21.4404 37.5184 19.7353 35.1043 18.8751 32.3497C18.0149 29.5952 18.0431 26.6398 18.9558 23.9021C19.8685 21.1645 21.6194 18.7835 23.9605 17.0962C26.3016 15.4089 29.1142 14.501 32 14.501C34.8857 14.501 37.6984 15.4089 40.0394 17.0962C42.3805 18.7834 44.1314 21.1645 45.0441 23.9021C45.9569 26.6397 45.9851 29.5951 45.1249 32.3497C44.2647 35.1043 42.5596 37.5184 40.2512 39.2501C39.699 39.6643 38.9155 39.5525 38.5012 39.0003C38.0869 38.448 38.1988 37.6645 38.751 37.2502C40.6397 35.8334 42.0347 33.8582 42.7386 31.6045C43.4424 29.3507 43.4192 26.9327 42.6725 24.6928C41.9257 22.4529 40.4932 20.5048 38.5777 19.1243C36.6623 17.7438 34.3611 17.001 32 17.001Z" fill="white"/>
</svg>
