
<svg style="width: 1em; height: 1em;vertical-align: middle;overflow: hidden;" fill="${color}" viewBox="0 0 1024 1024" version="1.1">
		<path d="M901.6 364c-17.2-48.8-40.6-89.8-66-115-5.2-5.2-12-8-19.4-8-7.4 0-14.2 2.8-19.4 8-10.6 10.6-10.6 28 0 38.8 19.8 19.8 39.2 54.8 53.6 96.2 14.6 42.4 22.8 87.2 22.8 126.2 0 6-0.2 15.2-0.4 20.2-0.4 7.4 2.2 14.2 7.2 19.6 5 5.4 11.6 8.6 19 8.8h1.2c14.6 0 26.6-11.4 27.4-26.2 0.2-6.2 0.4-16.2 0.4-22.6 0-45.6-9.4-97.6-26.4-146zM286 221.2c5.8 0 11.2-1.8 16-5.2 59.8-42.8 132.4-65.4 210-65.4 81.6 0 160.2 29.6 227.4 85.6 5 4 11.2 6.4 17.6 6.4 8.2 0 15.8-3.6 21-9.8 9.6-11.6 8-28.8-3.4-38.6C697.2 130 606.6 96 512 96c-89.2 0-172.8 26.2-242 75.6-6 4.2-9.8 10.6-11 17.8-1.2 7.2 0.4 14.4 4.8 20.4 5 7.2 13.4 11.4 22.2 11.4zM150.8 510c0-87.4 31.6-171.6 89-237.4 4.8-5.6 7.2-12.6 6.6-19.8-0.4-7.2-3.8-14-9.4-18.8-5-4.4-11.4-6.8-18-6.8-8 0-15.4 3.4-20.6 9.4C132.4 312.4 96 409.4 96 510c0 65.6 11.8 117.6 30.8 180.4 3.6 11.6 14 19.4 26.2 19.4 2.6 0 5.4-0.4 8-1.2 7-2.2 12.8-6.8 16.2-13.2 3.4-6.4 4.2-13.8 2-20.8-17.6-58-28.4-105.6-28.4-164.6z"  />
		<path d="M711.4 259.6C656.8 212.2 590 187.2 518 187.2c-96.6 0-182.8 35.6-243 100.2-57.4 61.6-85.6 143.4-79.4 230.2 4.6 65.4 12 101.4 18.6 133.2 8.6 42.2 15.4 75.6 10.2 168.2-0.8 13.4 7.4 25.4 20 29.2 2.4 0.8 4.6 1 7.2 1 14.4 0 26.4-11.4 27.4-25.8 5.8-100.8-1.6-137.4-11-183.8-6.2-30.2-13.2-64.4-17.6-126.2-5.2-71.4 18-138.6 64.8-189 49.6-53.4 121.8-82.8 202.8-82.8 58.6 0 113 20.4 157.4 59 44.6 38.6 78.4 94.8 98 162.2 22.8 78.6 29 178.6 18.2 289-1.4 15 9.6 28.4 24.6 30 0.8 0 1.8 0.2 2.6 0.2 14.2 0 25.8-10.6 27.2-24.8 11.6-117.4 4.6-224.4-20.2-309.6-22.2-77.2-61.8-142.4-114.4-188z"  />
		<path d="M747 535c-11.8-75-39.8-137.6-81.2-181.2-41.6-44-94.8-67.4-153.8-67.4-38 0-75.4 8.2-108.2 24-7.4 3.6-12.8 10.2-14.8 18.2-2 8.2-0.2 16.6 5 23.2 5.2 6.8 13 10.6 21.6 10.6 4.2 0 8-1 11.8-2.6 25.2-12 54.4-18.4 84.4-18.4 44.8 0 85 18.4 116.6 53.2 32.2 35.6 54.6 87.2 64.2 149.2 9.4 59.2 14 107 14.2 146.2 0.4 79.4-9.6 145.4-9.6 146.2-1.2 7.2 0.6 14.4 5 20.4 4.4 6 10.6 9.8 17.8 11 1.4 0.2 2.8 0.4 4.2 0.4 13.6 0 25-9.8 27-23.2 0.4-2.8 10.8-70.4 10.4-155 0-42.6-4.8-93-14.6-154.8z m-376.4-128c8-11.6 5.8-27.2-5-36.4-5-4.2-11.2-6.4-17.6-6.4-9 0-17.4 4.4-22.6 11.8-29.4 43-39.4 98.2-28.8 159.6 17.8 102.6 33.8 222.2 18.8 330-1 7.6 1 15.4 5.8 21.4 4.6 6 11.4 9.6 18.8 10.2 0.8 0 1.6 0.2 2.4 0.2 13.6 0 25.2-10.2 27-23.6 16.4-115.4-0.4-240.4-19-347.6-8.2-47.6-1.4-87.8 20.2-119.2zM635 776h-1c-15.2 0.6-27 13.2-26.4 28.4 0 0.4 1.2 35.8-5.2 69.4-2.6 13.8 5.2 27.4 18.2 31.6 2.8 0.8 5.6 1.4 8.6 1.4 13.2 0 24.4-9.4 26.8-22.2 7.6-40.2 6.2-80.4 6.2-82.2-0.4-15-12.4-26.4-27.2-26.4z"  />
		<path d="M589.2 411.8c-22.4-21-50.4-32.2-81-32.2-39.6 0-73.4 14.6-95.2 41-16.6 20.2-34 57.6-21.8 120 24.6 125 30 243.2 16.2 351.2-2 15 8.8 28.8 23.6 30.6 1.2 0.2 2.4 0.2 3.4 0.2 13.8 0 25.4-10.2 27.2-24 14.6-114 9-238-16.6-368.8-6.4-32.8-2.8-58.6 10.2-74.6 11.2-13.6 30-21 52.8-21 50 0 70.2 55.2 76.6 78.8 13.8 51.4 21.8 126 23 215.4 0.2 14.8 12.4 27 27.4 27h0.4c7.2-0.2 14-3 19.2-8.2 5-5.2 7.8-12.2 7.8-19.4-1.4-94-10-173-25-228.8-9.8-37-26.2-66.4-48.2-87.2z"  />
		<path d="M530.4 491.8c-4.2-10.2-14.2-17-25.4-17-3.6 0-7.2 0.8-10.4 2-14 5.8-20.6 21.8-14.8 35.8 13.2 32 23.6 92.4 28.2 165.6 4.8 73.8 3.4 153.8-4 219.2-0.8 7.2 1.2 14.4 5.8 20.2 4.6 5.8 11 9.2 18.4 10 1 0.2 2 0.2 3 0.2 14 0 25.6-10.4 27.2-24.4 7.8-71 9.2-153.2 4-231.6-5-78.6-16.4-142.6-32-180z"  />
</svg>