
<svg width="24" height="24" viewBox="0 0 24 24" fill="none">
	<path opacity="0.2" d="M18 7.25C18 7.41228 17.9474 7.57018 17.85 7.7L15.9 10.3C15.8026 10.4298 15.75 10.5877 15.75 10.75V21C15.75 21.1989 15.671 21.3897 15.5303 21.5303C15.3897 21.671 15.1989 21.75 15 21.75H9C8.80109 21.75 8.61032 21.671 8.46967 21.5303C8.32902 21.3897 8.25 21.1989 8.25 21V10.75C8.25 10.5877 8.19737 10.4298 8.1 10.3L6.15 7.7C6.05263 7.57018 6 7.41228 6 7.25V6H18V7.25Z" fill="${color}"/>
	<path fill-rule="evenodd" clip-rule="evenodd" d="M5.68934 1.93934C5.97064 1.65804 6.35218 1.5 6.75 1.5H17.25C17.6478 1.5 18.0294 1.65803 18.3107 1.93934C18.592 2.22065 18.75 2.60218 18.75 3V7.25C18.75 7.57456 18.6447 7.89036 18.45 8.15L16.5 10.75L16.5 21C16.5 21.3978 16.342 21.7794 16.0607 22.0607C15.7794 22.342 15.3978 22.5 15 22.5H9C8.60218 22.5 8.22065 22.342 7.93934 22.0607C7.65804 21.7794 7.5 21.3978 7.5 21L7.5 10.75L5.55 8.15C5.35527 7.89036 5.25 7.57455 5.25 7.25V3C5.25 2.60217 5.40804 2.22064 5.68934 1.93934ZM6.75 3L6.75 7.25L8.7 9.85C8.89473 10.1096 9 10.4254 9 10.75V21H15V10.75C15 10.4254 15.1053 10.1096 15.3 9.85L17.25 7.25V3H6.75Z" fill="${color}"/>
	<path fill-rule="evenodd" clip-rule="evenodd" d="M12 10.5C12.4142 10.5 12.75 10.8358 12.75 11.25V14.25C12.75 14.6642 12.4142 15 12 15C11.5858 15 11.25 14.6642 11.25 14.25V11.25C11.25 10.8358 11.5858 10.5 12 10.5Z" fill="${color}"/>
	<path fill-rule="evenodd" clip-rule="evenodd" d="M5.25 6C5.25 5.58579 5.58579 5.25 6 5.25H18C18.4142 5.25 18.75 5.58579 18.75 6C18.75 6.41421 18.4142 6.75 18 6.75H6C5.58579 6.75 5.25 6.41421 5.25 6Z" fill="${color}"/>
</svg>