<svg width="16" height="17" viewBox="0 0 16 17" fill="none" xmlns="http://www.w3.org/2000/svg">
<path opacity="0.2" d="M12.75 10.5H9.25C9.25 10.5 10 3.5 12.75 2.5" fill="white"/>
<path fill-rule="evenodd" clip-rule="evenodd" d="M5.25 2C5.52614 2 5.75 2.22386 5.75 2.5V5C5.75 5.27614 5.52614 5.5 5.25 5.5C4.97386 5.5 4.75 5.27614 4.75 5V2.5C4.75 2.22386 4.97386 2 5.25 2Z" fill="white"/>
<path fill-rule="evenodd" clip-rule="evenodd" d="M5.25 7.25C5.52614 7.25 5.75 7.47386 5.75 7.75V14.5C5.75 14.7761 5.52614 15 5.25 15C4.97386 15 4.75 14.7761 4.75 14.5V7.75C4.75 7.47386 4.97386 7.25 5.25 7.25Z" fill="white"/>
<path fill-rule="evenodd" clip-rule="evenodd" d="M3.5822 2.00688C3.85458 2.05228 4.03859 2.30989 3.9932 2.58228L3.50043 5.53888C3.5104 5.98896 3.69353 6.41848 4.01256 6.73752C4.34075 7.0657 4.78587 7.25008 5.25 7.25008C5.71413 7.25008 6.15925 7.0657 6.48744 6.73752C6.80647 6.41848 6.9896 5.98896 6.99957 5.53888L6.5068 2.58228C6.46141 2.30989 6.64542 2.05228 6.9178 2.00688C7.19019 1.96148 7.4478 2.14549 7.4932 2.41788L7.9932 5.41788C7.99773 5.44504 8 5.47254 8 5.50008C8 6.22942 7.71027 6.9289 7.19454 7.44462C6.67882 7.96035 5.97935 8.25008 5.25 8.25008C4.52065 8.25008 3.82118 7.96035 3.30546 7.44462C2.78973 6.9289 2.5 6.22942 2.5 5.50008C2.5 5.47254 2.50228 5.44504 2.5068 5.41788L3.0068 2.41788C3.0522 2.14549 3.30981 1.96148 3.5822 2.00688Z" fill="white"/>
<path fill-rule="evenodd" clip-rule="evenodd" d="M13.0369 2.09047C13.1704 2.18404 13.25 2.3369 13.25 2.5V14.5C13.25 14.7761 13.0261 15 12.75 15C12.4739 15 12.25 14.7761 12.25 14.5V11H9.25C9.10812 11 8.97292 10.9397 8.87809 10.8342C8.78326 10.7287 8.73773 10.5878 8.75285 10.4467L9.25 10.5C8.75285 10.4467 8.75283 10.4469 8.75285 10.4467L8.75306 10.4447L8.75356 10.4402L8.75541 10.4236C8.75703 10.4093 8.75943 10.3886 8.76264 10.3617C8.76906 10.3081 8.77875 10.2301 8.79202 10.1309C8.81854 9.93275 8.85941 9.64975 8.91712 9.3075C9.03233 8.62416 9.21559 7.69904 9.48769 6.7387C9.75872 5.78211 10.1236 4.76988 10.6092 3.92312C11.0885 3.08747 11.7271 2.33994 12.5791 2.03011C12.7324 1.97437 12.9033 1.9969 13.0369 2.09047ZM9.82018 10H12.25V3.40034C11.9779 3.65431 11.7193 3.99769 11.4767 4.42063C11.0483 5.16763 10.71 6.0929 10.4498 7.0113C10.1907 7.92597 10.0145 8.81334 9.9032 9.47376C9.86978 9.67194 9.84229 9.84919 9.82018 10Z" fill="white"/>
</svg>
