<svg width="16" height="17" viewBox="0 0 16 17" fill="none" xmlns="http://www.w3.org/2000/svg">
<path opacity="0.2" d="M9.3125 10.4901L10.7511 10.4844C11.2256 10.484 11.6943 10.3797 12.1242 10.179C12.5541 9.97835 12.935 9.68603 13.24 9.32258C13.545 8.95914 13.7668 8.53336 13.8899 8.07512C14.0129 7.61688 14.0342 7.13727 13.9523 6.66992L13.9518 6.67001L14.9737 11.9465C15.0383 12.313 14.9844 12.6906 14.8198 13.0243C14.6552 13.3581 14.3884 13.6308 14.0583 13.8026C13.7282 13.9745 13.3519 14.0366 12.984 13.98C12.6162 13.9234 12.2759 13.751 12.0127 13.4879L12.0129 13.4878L9.3125 10.4901Z" fill="white"/>
<path fill-rule="evenodd" clip-rule="evenodd" d="M9 7.25C9 6.97386 9.22386 6.75 9.5 6.75H11.5C11.7761 6.75 12 6.97386 12 7.25C12 7.52614 11.7761 7.75 11.5 7.75H9.5C9.22386 7.75 9 7.52614 9 7.25Z" fill="white"/>
<path fill-rule="evenodd" clip-rule="evenodd" d="M4 7.25C4 6.97386 4.22386 6.75 4.5 6.75H6.5C6.77614 6.75 7 6.97386 7 7.25C7 7.52614 6.77614 7.75 6.5 7.75H4.5C4.22386 7.75 4 7.52614 4 7.25Z" fill="white"/>
<path fill-rule="evenodd" clip-rule="evenodd" d="M5.5 5.75C5.77614 5.75 6 5.97386 6 6.25V8.25C6 8.52614 5.77614 8.75 5.5 8.75C5.22386 8.75 5 8.52614 5 8.25V6.25C5 5.97386 5.22386 5.75 5.5 5.75Z" fill="white"/>
<path fill-rule="evenodd" clip-rule="evenodd" d="M10.7508 3.48438C11.7454 3.48438 12.6992 3.87946 13.4025 4.58272C14.1057 5.28599 14.5008 6.23981 14.5008 7.23438C14.5008 8.22894 14.1057 9.18276 13.4025 9.88603C12.6995 10.589 11.7461 10.9841 10.7519 10.9844C10.7516 10.9844 10.7512 10.9844 10.7508 10.9844L6.91237 10.9998L4.367 13.8135C4.35877 13.8231 4.35012 13.8324 4.34104 13.8415C4.00266 14.1798 3.56523 14.4014 3.09229 14.4742C2.61936 14.547 2.13554 14.4671 1.71111 14.2461C1.28667 14.0252 0.943728 13.6747 0.732079 13.2455C0.520431 12.8164 0.451101 12.3309 0.534159 11.8597L0.535761 11.851L1.55408 6.61378C1.55479 6.60893 1.55557 6.60408 1.55643 6.59922C1.70976 5.73103 2.16401 4.94459 2.83944 4.37795C3.51467 3.81148 4.36782 3.50088 5.24918 3.50064C5.24943 3.50064 5.24968 3.50064 5.24993 3.50064L10.7494 3.48438L10.7508 3.98438V3.48438ZM10.7515 4.48438C10.7513 4.48438 10.7511 4.48438 10.7508 4.48438L5.25145 4.50064L5.25001 4.50064C4.60342 4.50069 3.97751 4.72849 3.48215 5.14406C2.99226 5.55504 2.66102 6.12368 2.545 6.75207C2.54368 6.76197 2.54207 6.77185 2.54015 6.78171L1.51829 12.0372C1.47323 12.2978 1.51195 12.566 1.62894 12.8032C1.74653 13.0416 1.93706 13.2364 2.17287 13.3591C2.40867 13.4819 2.67747 13.5263 2.94023 13.4858C3.19838 13.4461 3.43749 13.3266 3.62408 13.1441L6.31885 10.1652C6.41317 10.0609 6.54704 10.0012 6.68764 10.0006L10.7488 9.98438L10.7508 9.98438C11.4802 9.98438 12.1797 9.69464 12.6954 9.17892C13.2111 8.66319 13.5008 7.96372 13.5008 7.23438C13.5008 6.50503 13.2111 5.80556 12.6954 5.28983C12.1798 4.77427 11.4806 4.48456 10.7515 4.48438Z" fill="white"/>
<path fill-rule="evenodd" clip-rule="evenodd" d="M13.8567 6.17914C14.1278 6.12663 14.3901 6.30384 14.4427 6.57494L15.4646 11.8514L15.4661 11.8597C15.5492 12.3309 15.4799 12.8164 15.2682 13.2455C15.0566 13.6747 14.7136 14.0252 14.2892 14.2461C13.8647 14.4671 13.3809 14.547 12.908 14.4742C12.435 14.4014 11.9976 14.1798 11.6592 13.8415C11.6499 13.8321 11.641 13.8225 11.6326 13.8127L8.94101 10.8248C8.75619 10.6196 8.77268 10.3035 8.97785 10.1186C9.18302 9.93382 9.49918 9.95031 9.684 10.1555L12.3765 13.1444C12.563 13.3267 12.802 13.4461 13.0601 13.4858C13.3228 13.5263 13.5916 13.4819 13.8274 13.3591C14.0632 13.2364 14.2538 13.0416 14.3713 12.8032C14.4884 12.5659 14.5271 12.2977 14.482 12.0371L13.4609 6.76509C13.4084 6.49398 13.5856 6.23164 13.8567 6.17914Z" fill="white"/>
</svg>
