
<svg width="32" height="33" viewBox="0 0 32 33" fill="none">
<rect y="0.5" width="32" height="32" rx="16" fill="${color}" fill-opacity="0.1"/>
<path opacity="0.2" d="M22.3272 15.0337C22.3094 14.9613 22.2759 14.8937 22.229 14.8357C22.1821 14.7777 22.123 14.7308 22.056 14.6983L21.0137 14.1829L20.5137 13.3169L20.5885 12.1566C20.5939 12.0822 20.5828 12.0076 20.5561 11.938C20.5293 11.8685 20.4875 11.8056 20.4337 11.754C19.7146 11.0719 18.8444 10.5695 17.894 10.2878C17.8225 10.267 17.7472 10.2622 17.6735 10.2738C17.5999 10.2854 17.5297 10.3131 17.468 10.355L16.5006 10.9999H15.5006L14.5331 10.3549C14.4714 10.3131 14.4012 10.2854 14.3276 10.2738C14.2539 10.2622 14.1786 10.2669 14.1071 10.2877C13.1567 10.5695 12.2865 11.0719 11.5674 11.754C11.5136 11.8056 11.4718 11.8684 11.445 11.938C11.4183 12.0076 11.4072 12.0822 11.4125 12.1566L11.4873 13.3169L10.9873 14.1829L9.94507 14.6982C9.87799 14.7308 9.81891 14.7777 9.77204 14.8357C9.72516 14.8936 9.69164 14.9612 9.67386 15.0336C9.44269 15.9975 9.4427 17.0023 9.67389 17.9662C9.69166 18.0386 9.72517 18.1062 9.77204 18.1641C9.81891 18.2221 9.87799 18.269 9.94507 18.3016L10.9873 18.8169L11.4873 19.6829L11.4125 20.8432C11.4071 20.9176 11.4182 20.9922 11.445 21.0618C11.4717 21.1314 11.5135 21.1942 11.5673 21.2458C12.2865 21.928 13.1567 22.4304 14.107 22.7121C14.1786 22.7329 14.2539 22.7377 14.3275 22.726C14.4012 22.7144 14.4713 22.6867 14.5331 22.6449L15.5005 22H16.5005L17.4679 22.6449C17.5296 22.6868 17.5998 22.7145 17.6735 22.7261C17.7471 22.7377 17.8224 22.7329 17.894 22.7121C18.8443 22.4304 19.7145 21.928 20.4337 21.2458C20.4875 21.1942 20.5292 21.1314 20.556 21.0618C20.5828 20.9923 20.5939 20.9176 20.5885 20.8433L20.5137 19.683L21.0137 18.817L22.056 18.3016C22.123 18.2691 22.1821 18.2222 22.229 18.1642C22.2759 18.1062 22.3094 18.0386 22.3272 17.9662C22.5583 17.0024 22.5583 15.9975 22.3272 15.0337L22.3272 15.0337ZM16.0006 19.9999C15.3083 19.9999 14.6316 19.7947 14.0561 19.4101C13.4805 19.0255 13.0319 18.4789 12.767 17.8393C12.5021 17.1998 12.4328 16.496 12.5678 15.8171C12.7028 15.1382 13.0362 14.5145 13.5257 14.0251C14.0152 13.5356 14.6388 13.2022 15.3177 13.0672C15.9967 12.9321 16.7004 13.0014 17.3399 13.2664C17.9795 13.5313 18.5261 13.9799 18.9107 14.5554C19.2953 15.131 19.5006 15.8077 19.5006 16.4999C19.5005 17.4282 19.1318 18.3184 18.4754 18.9748C17.819 19.6312 16.9288 19.9999 16.0006 19.9999V19.9999Z" fill="${color}"/>
<path fill-rule="evenodd" clip-rule="evenodd" d="M16 14.5C14.8954 14.5 14 15.3954 14 16.5C14 17.6046 14.8954 18.5 16 18.5C17.1046 18.5 18 17.6046 18 16.5C18 15.3954 17.1046 14.5 16 14.5ZM13 16.5C13 14.8431 14.3431 13.5 16 13.5C17.6569 13.5 19 14.8431 19 16.5C19 18.1569 17.6569 19.5 16 19.5C14.3431 19.5 13 18.1569 13 16.5Z" fill="${color}"/>
<path fill-rule="evenodd" clip-rule="evenodd" d="M13.9675 9.80758C14.1097 9.76627 14.2593 9.75681 14.4055 9.77988C14.551 9.80283 14.6897 9.85741 14.8118 9.93976L15.6519 10.4999H16.3492L17.1893 9.9398C17.3114 9.85744 17.4501 9.80286 17.5956 9.77991C17.7419 9.75685 17.8914 9.76631 18.0336 9.80763L18.0361 9.80838C19.062 10.1125 20.0015 10.6549 20.7778 11.3913L20.7798 11.3931C20.8866 11.4956 20.9696 11.6204 21.0227 11.7586C21.0756 11.896 21.0977 12.0434 21.0874 12.1903L21.0224 13.198L21.3711 13.8018L22.2741 14.2484C22.2748 14.2487 22.2755 14.2491 22.2761 14.2494C22.4085 14.3139 22.5251 14.4068 22.6178 14.5213C22.7109 14.6364 22.7774 14.7707 22.8127 14.9144L22.8134 14.9171C23.0629 15.9576 23.0629 17.0423 22.8134 18.0829L22.8128 18.0855C22.7774 18.2293 22.7109 18.3635 22.6178 18.4786C22.5252 18.5931 22.4086 18.6859 22.2762 18.7505L21.371 19.1981L21.0224 19.8019L21.0874 20.8096C21.0976 20.9565 21.0756 21.1039 21.0227 21.2413C20.9695 21.3795 20.8866 21.5043 20.7797 21.6067L20.7778 21.6086C20.0014 22.345 19.062 22.8874 18.0361 23.1915L18.0335 23.1923C17.8913 23.2336 17.7418 23.243 17.5955 23.22C17.45 23.197 17.3113 23.1424 17.1892 23.06C17.1886 23.0596 17.188 23.0592 17.1874 23.0588L16.3491 22.5H15.6519L14.8117 23.0601C14.6896 23.1424 14.5509 23.197 14.4054 23.2199C14.2592 23.243 14.1096 23.2335 13.9675 23.1922L13.9649 23.1915C12.939 22.8873 11.9996 22.345 11.2232 21.6086L11.2213 21.6067C11.1144 21.5042 11.0314 21.3795 10.9783 21.2413C10.9254 21.1038 10.9034 20.9564 10.9136 20.8095L10.9786 19.8018L10.63 19.198L9.7248 18.7504C9.59246 18.6859 9.47587 18.5931 9.38327 18.4785C9.29017 18.3634 9.2236 18.2292 9.1883 18.0854L9.18766 18.0828C8.9381 17.0423 8.9381 15.9575 9.18765 14.917L9.18828 14.9144C9.22359 14.7706 9.29018 14.6364 9.38328 14.5212C9.47591 14.4067 9.59253 14.3139 9.72491 14.2493L10.63 13.8018L10.9786 13.198L10.9137 12.1903C10.9034 12.0434 10.9255 11.896 10.9784 11.7585C11.0315 11.6203 11.1145 11.4956 11.2213 11.3931L11.2233 11.3913C11.9996 10.6549 12.9391 10.1125 13.9649 9.80834L13.9675 9.80758ZM14.2469 10.7678C13.3738 11.027 12.5742 11.4887 11.9132 12.1151C11.9126 12.1158 11.912 12.1166 11.9117 12.1175C11.9113 12.1185 11.9112 12.1195 11.9113 12.1206L11.9115 12.1244L11.9961 13.4358L11.3447 14.564L10.1633 15.1482C10.1623 15.1486 10.1615 15.1493 10.1608 15.1501C10.1602 15.1508 10.1598 15.1517 10.1595 15.1526C9.94748 16.0383 9.94748 16.9615 10.1595 17.8473C10.1598 17.8482 10.1602 17.849 10.1608 17.8497C10.1615 17.8505 10.1623 17.8512 10.1633 17.8517L10.1667 17.8533L11.3446 18.4358L11.996 19.564L11.9112 20.8793C11.9111 20.8803 11.9113 20.8814 11.9117 20.8823C11.912 20.8832 11.9125 20.884 11.9132 20.8847C12.5742 21.5112 13.3738 21.9729 14.2469 22.2321C14.2478 22.2323 14.2487 22.2323 14.2496 22.2322C14.2501 22.2321 14.2506 22.232 14.251 22.2318C14.2515 22.2316 14.2521 22.2313 14.2525 22.231L14.2557 22.2289L15.3491 21.5H16.6519L17.7485 22.231C17.7491 22.2314 17.7497 22.2318 17.7504 22.232C17.7507 22.2321 17.751 22.2321 17.7514 22.2322C17.7523 22.2323 17.7533 22.2323 17.7542 22.2321C18.628 21.9726 19.4282 21.5104 20.0896 20.8831L20.4337 21.2458L20.0876 20.8849C20.0884 20.8842 20.089 20.8833 20.0893 20.8823C20.0897 20.8814 20.0899 20.8803 20.0898 20.8793L20.0895 20.8754L20.005 19.5641L20.6564 18.4359L21.8378 17.8517C21.8387 17.8512 21.8396 17.8506 21.8402 17.8498C21.8408 17.849 21.8413 17.8482 21.8415 17.8473C22.0536 16.9615 22.0535 16.0382 21.8415 15.1525C21.8412 15.1516 21.8408 15.1508 21.8402 15.1501C21.8396 15.1493 21.8387 15.1486 21.8378 15.1482L21.8343 15.1465L20.6564 14.564L20.005 13.4358L20.0898 12.1206C20.0899 12.1195 20.0898 12.1185 20.0894 12.1175C20.0892 12.1169 20.0888 12.1163 20.0884 12.1158C20.0883 12.1156 20.0881 12.1154 20.0879 12.1151C19.4268 11.4886 18.6272 11.027 17.7541 10.7678C17.7532 10.7676 17.7523 10.7676 17.7514 10.7677C17.7504 10.7679 17.7494 10.7683 17.7485 10.7688L17.7453 10.771L16.6519 11.4999H15.3492L14.2526 10.7688C14.2517 10.7682 14.2507 10.7678 14.2497 10.7677C14.2487 10.7675 14.2478 10.7676 14.2469 10.7678Z" fill="${color}"/>
</svg>