<svg width="16" height="17" viewBox="0 0 16 17" fill="none" xmlns="http://www.w3.org/2000/svg">
<path fill-rule="evenodd" clip-rule="evenodd" d="M1.5 6C1.5 5.44772 1.94771 5 2.5 5H13.5C14.0523 5 14.5 5.44772 14.5 6V8C14.5 8.55228 14.0523 9 13.5 9H2.5C1.94771 9 1.5 8.55228 1.5 8V6ZM13.5 6H2.5V8H13.5L13.5 6Z" fill="white"/>
<path fill-rule="evenodd" clip-rule="evenodd" d="M3 8C3.27614 8 3.5 8.22386 3.5 8.5V13H12.5V8.5C12.5 8.22386 12.7239 8 13 8C13.2761 8 13.5 8.22386 13.5 8.5V13C13.5 13.2652 13.3946 13.5196 13.2071 13.7071C13.0196 13.8946 12.7652 14 12.5 14H3.5C3.23478 14 2.98043 13.8946 2.79289 13.7071C2.60536 13.5196 2.5 13.2652 2.5 13V8.5C2.5 8.22386 2.72386 8 3 8Z" fill="white"/>
<path fill-rule="evenodd" clip-rule="evenodd" d="M8 5C8.27614 5 8.5 5.22386 8.5 5.5V13.5C8.5 13.7761 8.27614 14 8 14C7.72386 14 7.5 13.7761 7.5 13.5V5.5C7.5 5.22386 7.72386 5 8 5Z" fill="white"/>
<path fill-rule="evenodd" clip-rule="evenodd" d="M6.23185 1.7334C6.76209 1.73325 7.27068 1.94366 7.64583 2.31838C7.90271 2.57526 8.06617 2.92595 8.17562 3.25427C8.28793 3.59121 8.35958 3.95468 8.40617 4.2808C8.45305 4.60893 8.47626 4.9117 8.48785 5.13178C8.49366 5.2422 8.49659 5.33275 8.49807 5.39641C8.49881 5.42826 8.49919 5.45344 8.49938 5.47107L8.49956 5.49178L8.49958 5.4977L8.49959 5.49952L8.49959 5.50014C8.49959 5.50024 8.49959 5.50056 7.99959 5.50056C7.99959 6.00056 7.9995 6.00056 7.9994 6.00056L7.99854 6.00056L7.99673 6.00056L7.99081 6.00053L7.9701 6.00036C7.95246 6.00017 7.92728 5.99979 7.89543 5.99905C7.83177 5.99757 7.74122 5.99463 7.6308 5.98882C7.41072 5.97724 7.10795 5.95402 6.77983 5.90715C6.4537 5.86056 6.09023 5.7889 5.7533 5.67659C5.42497 5.56715 5.07449 5.40389 4.8176 5.14701C4.44289 4.77186 4.23227 4.26307 4.23242 3.73283C4.23257 3.20259 4.44328 2.69412 4.81821 2.31918C5.19314 1.94425 5.70162 1.73355 6.23185 1.7334ZM5.52471 4.4399C5.62138 4.53657 5.80123 4.63848 6.06952 4.72791C6.32921 4.81447 6.62865 4.8754 6.92125 4.9172C7.12076 4.9457 7.3114 4.96452 7.47595 4.97692C7.46355 4.81237 7.44472 4.62174 7.41622 4.42222C7.37442 4.12963 7.3135 3.83019 7.22693 3.5705C7.13751 3.30223 7.03561 3.12239 6.93895 3.02572C6.93894 3.02571 6.93896 3.02572 6.93895 3.02572M6.93895 3.02572C6.7514 2.83848 6.49716 2.73332 6.23214 2.7334C5.96702 2.73347 5.71278 2.83882 5.52532 3.02629C5.33785 3.21376 5.2325 3.468 5.23242 3.73311C5.23235 3.99814 5.33748 4.25235 5.52471 4.4399M7.99959 5.50056L7.9994 6.00056C8.13201 6.00056 8.25937 5.94788 8.35314 5.85412C8.44691 5.76035 8.49959 5.63275 8.49959 5.50014L7.99959 5.50056Z" fill="white"/>
<path fill-rule="evenodd" clip-rule="evenodd" d="M9.76815 1.7334C9.23791 1.73325 8.72932 1.94366 8.35417 2.31838C8.09729 2.57526 7.93383 2.92595 7.82438 3.25427C7.71207 3.59121 7.64042 3.95468 7.59383 4.2808C7.54695 4.60893 7.52374 4.9117 7.51215 5.13178C7.50634 5.2422 7.50341 5.33275 7.50193 5.39641C7.50119 5.42826 7.50081 5.45344 7.50062 5.47107L7.50044 5.49178L7.50042 5.4977L7.50042 5.49952L7.50042 5.50014C7.50042 5.50024 7.50041 5.50056 8.00041 5.50056C8.00041 6.00056 8.0005 6.00056 8.0006 6.00056L8.00146 6.00056L8.00327 6.00056L8.0092 6.00053L8.02991 6.00036C8.04754 6.00017 8.07272 5.99979 8.10457 5.99905C8.16823 5.99757 8.25878 5.99463 8.3692 5.98882C8.58928 5.97724 8.89205 5.95402 9.22017 5.90715C9.5463 5.86056 9.90977 5.7889 10.2467 5.67659C10.575 5.56715 10.9255 5.40389 11.1824 5.14701C11.5571 4.77186 11.7677 4.26307 11.7676 3.73283C11.7674 3.20259 11.5567 2.69412 11.1818 2.31918C10.8069 1.94425 10.2984 1.73355 9.76815 1.7334ZM10.4753 4.4399C10.3786 4.53657 10.1988 4.63848 9.93048 4.72791C9.67079 4.81447 9.37135 4.8754 9.07875 4.9172C8.87924 4.9457 8.6886 4.96452 8.52405 4.97692C8.53645 4.81237 8.55528 4.62174 8.58378 4.42222C8.62558 4.12963 8.68651 3.83019 8.77307 3.5705C8.86249 3.30223 8.96439 3.12239 9.06105 3.02572C9.06106 3.02571 9.06104 3.02572 9.06105 3.02572M9.06105 3.02572C9.2486 2.83848 9.50284 2.73332 9.76786 2.7334C10.033 2.73347 10.2872 2.83882 10.4747 3.02629C10.6622 3.21376 10.7675 3.468 10.7676 3.73311C10.7677 3.99814 10.6625 4.25235 10.4753 4.4399M8.00041 5.50056L8.0006 6.00056C7.86799 6.00056 7.74063 5.94788 7.64686 5.85412C7.55309 5.76035 7.50042 5.63275 7.50042 5.50014L8.00041 5.50056Z" fill="white"/>
<path opacity="0.2" d="M13 8.5V13C13 13.1326 12.9473 13.2598 12.8536 13.3536C12.7598 13.4473 12.6326 13.5 12.5 13.5H3.5C3.36739 13.5 3.24021 13.4473 3.14645 13.3536C3.05268 13.2598 3 13.1326 3 13V8.5H13Z" fill="white"/>
</svg>
