
<svg fill="none" height="16" viewBox="0 0 16 16" width="16">
		<path d="m11.75 5.99985c.9665 0 1.75-.7835 1.75-1.75s-.7835-1.75-1.75-1.75-1.75.7835-1.75 1.75.7835 1.75 1.75 1.75z" fill="${color}" opacity=".2"/>
		<g stroke="${color}" stroke-linecap="round" stroke-linejoin="round">
		<path d="m4.24927 10v-.50001c.00001-.39781.15804-.77933.43934-1.06062s.66281-.43932 1.06063-.43932l4.50006-.0001c.3978 0 .7793-.15802 1.0606-.43932.2813-.28129.4394-.66281.4394-1.06062v-.50001"/>
		<path d="m4.24927 6v4"/>
		<path d="m4.25 13.5c.9665 0 1.75-.7835 1.75-1.75s-.7835-1.75-1.75-1.75-1.75.7835-1.75 1.75.7835 1.75 1.75 1.75z"/>
		<path d="m11.75 5.99985c.9665 0 1.75-.7835 1.75-1.75s-.7835-1.75-1.75-1.75-1.75.7835-1.75 1.75.7835 1.75 1.75 1.75z"/>
		<path d="m4.25 5.99985c.9665 0 1.75-.7835 1.75-1.75s-.7835-1.75-1.75-1.75-1.75.7835-1.75 1.75.7835 1.75 1.75 1.75z"/>
		</g>
</svg>