
<svg width="24" height="25" viewBox="0 0 24 25" fill="none">
<path fill-rule="evenodd" clip-rule="evenodd" d="M12 0.500977C5.37 0.500977 0 6.0068 0 12.8045C0 18.2488 3.435 22.8473 8.205 24.4775C8.805 24.5851 9.03 24.216 9.03 23.8931C9.03 23.6008 9.015 22.6319 9.015 21.6015C6 22.1706 5.22 20.8479 4.98 20.1559C4.845 19.8021 4.26 18.7102 3.75 18.418C3.33 18.1873 2.73 17.6183 3.735 17.6029C4.68 17.5875 5.355 18.4949 5.58 18.864C6.66 20.7249 8.385 20.202 9.075 19.879C9.18 19.0793 9.495 18.541 9.84 18.2334C7.17 17.9258 4.38 16.8647 4.38 12.1586C4.38 10.8206 4.845 9.71324 5.61 8.85199C5.49 8.54441 5.07 7.2833 5.73 5.59156C5.73 5.59156 6.735 5.26859 9.03 6.85267C9.99 6.57584 11.01 6.43743 12.03 6.43743C13.05 6.43743 14.07 6.57584 15.03 6.85267C17.325 5.25321 18.33 5.59156 18.33 5.59156C18.99 7.2833 18.57 8.54441 18.45 8.85199C19.215 9.71324 19.68 10.8052 19.68 12.1586C19.68 16.88 16.875 17.9258 14.205 18.2334C14.64 18.6179 15.015 19.3561 15.015 20.5096C15.015 22.1552 15 23.4778 15 23.8931C15 24.216 15.225 24.6005 15.825 24.4775C18.2072 23.6529 20.2773 22.0832 21.7438 19.9892C23.2103 17.8952 23.9994 15.3824 24 12.8045C24 6.0068 18.63 0.500977 12 0.500977Z" fill="${color}"/>
</svg>