
<svg width="24" height="24" viewBox="0 0 24 24" fill="none">
<path opacity="0.2" d="M12 21C16.9706 21 21 16.9706 21 12C21 7.02944 16.9706 3 12 3C7.02944 3 3 7.02944 3 12C3 16.9706 7.02944 21 12 21Z" fill="${color}"/>
<path fill-rule="evenodd" clip-rule="evenodd" d="M12 3.75C7.44365 3.75 3.75 7.44365 3.75 12C3.75 16.5563 7.44365 20.25 12 20.25C16.5563 20.25 20.25 16.5563 20.25 12C20.25 7.44365 16.5563 3.75 12 3.75ZM2.25 12C2.25 6.61522 6.61522 2.25 12 2.25C17.3848 2.25 21.75 6.61522 21.75 12C21.75 17.3848 17.3848 21.75 12 21.75C6.61522 21.75 2.25 17.3848 2.25 12Z" fill="${color}"/>
<path fill-rule="evenodd" clip-rule="evenodd" d="M2.7627 9C2.7627 8.58579 3.09848 8.25 3.5127 8.25H20.4875C20.9017 8.25 21.2375 8.58579 21.2375 9C21.2375 9.41421 20.9017 9.75 20.4875 9.75H3.5127C3.09848 9.75 2.7627 9.41421 2.7627 9Z" fill="${color}"/>
<path fill-rule="evenodd" clip-rule="evenodd" d="M2.7627 15C2.7627 14.5858 3.09848 14.25 3.5127 14.25H20.4874C20.9017 14.25 21.2374 14.5858 21.2374 15C21.2374 15.4142 20.9017 15.75 20.4874 15.75H3.5127C3.09848 15.75 2.7627 15.4142 2.7627 15Z" fill="${color}"/>
<path fill-rule="evenodd" clip-rule="evenodd" d="M10.0378 6.10169C9.4079 7.57289 9 9.6576 9 11.9996C9 14.3416 9.4079 16.4263 10.0378 17.8975C10.3533 18.6345 10.7098 19.1829 11.0674 19.5362C11.4218 19.8863 11.7361 20.008 12 20.008C12.2639 20.008 12.5782 19.8863 12.9326 19.5362C13.2902 19.1829 13.6467 18.6345 13.9622 17.8975C14.5921 16.4263 15 14.3416 15 11.9996C15 9.6576 14.5921 7.57289 13.9622 6.10169C13.6467 5.36474 13.2902 4.81632 12.9326 4.46305C12.5782 4.11294 12.2639 3.99121 12 3.99121C11.7361 3.99121 11.4218 4.11294 11.0674 4.46305C10.7098 4.81632 10.3533 5.36474 10.0378 6.10169ZM10.0132 3.39593C10.5561 2.85964 11.2284 2.49121 12 2.49121C12.7716 2.49121 13.4439 2.85964 13.9868 3.39593C14.5264 3.92906 14.978 4.66327 15.3411 5.51129C16.0684 7.21001 16.5 9.50449 16.5 11.9996C16.5 14.4947 16.0684 16.7892 15.3411 18.4879C14.978 19.336 14.5264 20.0702 13.9868 20.6033C13.4439 21.1396 12.7716 21.508 12 21.508C11.2284 21.508 10.5561 21.1396 10.0132 20.6033C9.47357 20.0702 9.02197 19.336 8.65889 18.4879C7.93156 16.7892 7.5 14.4947 7.5 11.9996C7.5 9.50449 7.93156 7.21001 8.65889 5.51129C9.02197 4.66327 9.47357 3.92906 10.0132 3.39593Z" fill="${color}"/>
</svg>