
<svg width="16" height="16" viewBox="0 0 16 16" fill="none">
    <path opacity="0.2" d="M8 14C11.3137 14 14 11.3137 14 8C14 4.68629 11.3137 2 8 2C4.68629 2 2 4.68629 2 8C2 11.3137 4.68629 14 8 14Z" fill="${color}"/>
    <path fill-rule="evenodd" clip-rule="evenodd" d="M8 2.5C4.96243 2.5 2.5 4.96243 2.5 8C2.5 11.0376 4.96243 13.5 8 13.5C11.0376 13.5 13.5 11.0376 13.5 8C13.5 4.96243 11.0376 2.5 8 2.5ZM1.5 8C1.5 4.41015 4.41015 1.5 8 1.5C11.5899 1.5 14.5 4.41015 14.5 8C14.5 11.5899 11.5899 14.5 8 14.5C4.41015 14.5 1.5 11.5899 1.5 8Z" fill="${color}"/>
    <path fill-rule="evenodd" clip-rule="evenodd" d="M1.5 8C1.5 7.72386 1.72386 7.5 2 7.5H14C14.2761 7.5 14.5 7.72386 14.5 8C14.5 8.27614 14.2761 8.5 14 8.5H2C1.72386 8.5 1.5 8.27614 1.5 8Z" fill="${color}"/>
    <path fill-rule="evenodd" clip-rule="evenodd" d="M6.69187 4.06812C6.27193 5.04892 6 6.43873 6 8.00007C6 9.56141 6.27193 10.9512 6.69187 11.932C6.90223 12.4233 7.13987 12.7889 7.37828 13.0244C7.61455 13.2578 7.82408 13.339 8 13.339C8.17592 13.339 8.38545 13.2578 8.62172 13.0244C8.86013 12.7889 9.09777 12.4233 9.30813 11.932C9.72807 10.9512 10 9.56141 10 8.00007C10 6.43873 9.72807 5.04892 9.30813 4.06812C9.09777 3.57682 8.86013 3.21121 8.62172 2.97569C8.38545 2.74229 8.17592 2.66113 8 2.66113C7.82408 2.66113 7.61455 2.74229 7.37828 2.97569C7.13987 3.21121 6.90223 3.57682 6.69187 4.06812ZM6.6755 2.26428C7.03742 1.90675 7.48557 1.66113 8 1.66113C8.51443 1.66113 8.96258 1.90675 9.3245 2.26428C9.68428 2.6197 9.98535 3.10917 10.2274 3.67452C10.7123 4.807 11 6.33665 11 8.00007C11 9.66348 10.7123 11.1931 10.2274 12.3256C9.98535 12.891 9.68428 13.3804 9.3245 13.7359C8.96258 14.0934 8.51443 14.339 8 14.339C7.48557 14.339 7.03742 14.0934 6.6755 13.7359C6.31572 13.3804 6.01465 12.891 5.77259 12.3256C5.28771 11.1931 5 9.66348 5 8.00007C5 6.33665 5.28771 4.807 5.77259 3.67452C6.01465 3.10917 6.31572 2.6197 6.6755 2.26428Z" fill="${color}"/>
    </svg>