<svg width="16" height="17" viewBox="0 0 16 17" fill="none" xmlns="http://www.w3.org/2000/svg">
<path opacity="0.2" d="M5.79789 14.083C6.53715 14.3743 7.327 14.5157 8.12142 14.4988C11.3389 14.4352 13.9546 11.8032 13.9994 8.58545C14.0107 7.7904 13.8639 7.00104 13.5675 6.26324C13.2711 5.52543 12.831 4.8539 12.2727 4.28768C11.7145 3.72145 11.0493 3.27183 10.3158 2.96493C9.58231 2.65804 8.79512 2.5 8 2.5H7.5V4.5L1 8.5L1.86169 9.69476C2.02602 9.92226 2.25082 10.0992 2.51059 10.2054C2.77036 10.3116 3.0547 10.3429 3.33135 10.2957C4.42308 10.1109 6.33516 10.0011 8.00001 11L8 11L5.79789 14.083Z" fill="white"/>
<path d="M7.75 7.5C8.16421 7.5 8.5 7.16421 8.5 6.75C8.5 6.33579 8.16421 6 7.75 6C7.33579 6 7 6.33579 7 6.75C7 7.16421 7.33579 7.5 7.75 7.5Z" fill="#FF6600"/>
<path fill-rule="evenodd" clip-rule="evenodd" d="M11 7.5C11.2761 7.5 11.5 7.72386 11.5 8C11.5 8.92826 11.1313 9.8185 10.4749 10.4749C9.8185 11.1313 8.92826 11.5 8 11.5C7.72386 11.5 7.5 11.2761 7.5 11C7.5 10.7239 7.72386 10.5 8 10.5C8.66304 10.5 9.29893 10.2366 9.76777 9.76777C10.2366 9.29893 10.5 8.66304 10.5 8C10.5 7.72386 10.7239 7.5 11 7.5Z" fill="white"/>
<path fill-rule="evenodd" clip-rule="evenodd" d="M7 2.5C7 2.22386 7.22386 2 7.5 2H8C8.86139 2 9.71418 2.17121 10.5088 2.50368C11.3034 2.83615 12.0241 3.32324 12.6288 3.93665C13.2335 4.55006 13.7103 5.27755 14.0315 6.07684C14.3526 6.87613 14.5116 7.73127 14.4994 8.59256C14.4508 12.0797 11.6183 14.9298 8.1313 14.9987C7.26674 15.0173 6.41547 14.8626 5.62455 14.5521C5.61808 14.5497 5.61165 14.5472 5.60525 14.5445C4.89915 14.2647 4.24158 13.8605 3.66613 13.3444C3.46056 13.16 3.44338 12.8439 3.62776 12.6383C3.81214 12.4328 4.12825 12.4156 4.33382 12.6C4.72472 12.9506 5.16043 13.2401 5.62622 13.4631L7.26028 11.1754C5.86886 10.5414 4.35502 10.6295 3.41481 10.7887C3.04622 10.8515 2.66743 10.8097 2.32134 10.6682C1.97507 10.5266 1.67541 10.2908 1.45637 9.98752L0.594472 8.79248C0.513186 8.67978 0.482469 8.53833 0.509689 8.40206C0.536908 8.26579 0.619608 8.147 0.737954 8.07417L7 4.2206V2.5ZM8.40574 11.2922L6.5999 13.8204C7.08873 13.9488 7.5969 14.01 8.11061 13.9989L8.11155 13.9989C11.0593 13.9406 13.4584 11.5268 13.4995 8.57849C13.5098 7.8497 13.3753 7.12595 13.1035 6.44963C12.8318 5.77331 12.4284 5.15775 11.9167 4.63871C11.405 4.11967 10.7952 3.70751 10.1228 3.42619C9.45046 3.14487 8.72887 3 8 3V4.5C8 4.67363 7.90993 4.83483 7.76205 4.92583L1.72024 8.64387L2.26702 9.40199C2.26706 9.40205 2.26699 9.40194 2.26702 9.40199C2.37662 9.55367 2.52663 9.67176 2.69984 9.74259C2.8731 9.81344 3.06276 9.83431 3.24728 9.80284L3.24789 9.80273C4.38108 9.61089 6.43919 9.48041 8.25726 10.5712C8.38352 10.647 8.46997 10.7746 8.49356 10.9199C8.51488 11.0513 8.48287 11.1851 8.40574 11.2922Z" fill="white"/>
</svg>
