
<svg width="10" height="14" viewBox="0 0 10 14" fill="none">
			<path opacity="0.2" d="M5 7L1.2 4.15C1.1379 4.10343 1.0875 4.04303 1.05279 3.97361C1.01807 3.90418 1 3.82762 1 3.75V1.5C1 1.36739 1.05268 1.24021 1.14645 1.14645C1.24021 1.05268 1.36739 1 1.5 1H8.5C8.63261 1 8.75979 1.05268 8.85355 1.14645C8.94732 1.24021 9 1.36739 9 1.5V3.72757C9 3.80488 8.98208 3.88113 8.94763 3.95034C8.91319 4.01955 8.86317 4.07983 8.8015 4.12644L5 7Z" fill="${color}"/>
			<path opacity="0.2" d="M5 7L1.2 9.85C1.1379 9.89657 1.0875 9.95697 1.05279 10.0264C1.01807 10.0958 1 10.1724 1 10.25V12.5C1 12.6326 1.05268 12.7598 1.14645 12.8536C1.24021 12.9473 1.36739 13 1.5 13H8.5C8.63261 13 8.75979 12.9473 8.85355 12.8536C8.94732 12.7598 9 12.6326 9 12.5V10.2724C9 10.1951 8.98208 10.1189 8.94763 10.0497C8.91319 9.98045 8.86317 9.92017 8.8015 9.87356L5 7Z" fill="${color}"/>
			<path fill-rule="evenodd" clip-rule="evenodd" d="M0.792893 0.792893C0.980429 0.605357 1.23478 0.5 1.5 0.5H8.5C8.76522 0.5 9.01957 0.605357 9.20711 0.792893C9.39464 0.98043 9.5 1.23478 9.5 1.5V3.72757C9.5 3.88218 9.46415 4.03469 9.39527 4.1731C9.32639 4.31152 9.22635 4.43208 9.10301 4.52531L5.3015 7.39887C5.12367 7.53329 4.87834 7.53375 4.7 7.4L0.9 4.55C0.775803 4.45685 0.675 4.33607 0.605573 4.19721C0.536145 4.05836 0.5 3.90525 0.5 3.75V1.5C0.5 1.23478 0.605357 0.980429 0.792893 0.792893ZM8.5 1.5H1.5L1.5 3.75L4.99882 6.37412L8.5 3.72757V1.5Z" fill="${color}"/>
			<path fill-rule="evenodd" clip-rule="evenodd" d="M4.7 6.6C4.87834 6.46625 5.12367 6.46671 5.3015 6.60113L9.10301 9.47469C9.22635 9.56792 9.32639 9.68848 9.39527 9.8269C9.46415 9.96531 9.5 10.1178 9.5 10.2724V12.5C9.5 12.7652 9.39464 13.0196 9.20711 13.2071C9.01957 13.3946 8.76521 13.5 8.5 13.5H1.5C1.23478 13.5 0.98043 13.3946 0.792893 13.2071C0.605357 13.0196 0.5 12.7652 0.5 12.5V10.25C0.5 10.0948 0.536145 9.94164 0.605573 9.80279C0.675001 9.66393 0.775805 9.54315 0.9 9.45L4.7 6.6ZM4.99882 7.62588L1.5 10.25L1.5 12.5H8.5V10.2724L4.99882 7.62588Z" fill="${color}"/>
		</svg>
		