
<svg width="32" height="32" viewBox="0 0 32 32" fill="none">
		<path opacity="0.2" d="M7.41431 5H24.5859C24.7837 5 24.977 5.05865 25.1414 5.16853C25.3059 5.27841 25.4341 5.43459 25.5098 5.61732C25.5854 5.80004 25.6053 6.00111 25.5667 6.19509C25.5281 6.38907 25.4328 6.56725 25.293 6.70711L6.7072 25.2929C6.56735 25.4327 6.47211 25.6109 6.43352 25.8049C6.39494 25.9989 6.41474 26.2 6.49043 26.3827C6.56612 26.5654 6.69429 26.7216 6.85874 26.8315C7.02319 26.9414 7.21653 27 7.41431 27H24.5859C24.7837 27 24.977 26.9414 25.1414 26.8315C25.3059 26.7216 25.4341 26.5654 25.5098 26.3827C25.5854 26.2 25.6053 25.9989 25.5667 25.8049C25.5281 25.6109 25.4328 25.4327 25.293 25.2929L6.7072 6.70711C6.56735 6.56725 6.47211 6.38907 6.43352 6.19509C6.39494 6.00111 6.41474 5.80004 6.49043 5.61732C6.56612 5.43459 6.69429 5.27841 6.85874 5.16853C7.02319 5.05865 7.21653 5 7.41431 5Z" fill="${color}"/>
		<path fill-rule="evenodd" clip-rule="evenodd" d="M6.30317 4.33706C6.63207 4.1173 7.01875 4 7.41431 4H24.5859C24.9814 4 25.3681 4.1173 25.697 4.33706C26.0259 4.55682 26.2823 4.86918 26.4336 5.23463C26.585 5.60009 26.6246 6.00222 26.5475 6.39018C26.4703 6.77814 26.2798 7.13451 26.0001 7.41421L17.4143 16L26.0001 24.5858C26.2798 24.8655 26.4703 25.2219 26.5475 25.6098C26.6246 25.9978 26.585 26.3999 26.4336 26.7654C26.2823 27.1308 26.0259 27.4432 25.697 27.6629C25.3681 27.8827 24.9814 28 24.5859 28H7.41431C7.01875 28 6.63207 27.8827 6.30317 27.6629C5.97427 27.4432 5.71792 27.1308 5.56655 26.7654C5.41517 26.3999 5.37557 25.9978 5.45274 25.6098C5.52991 25.2219 5.72039 24.8655 6.00009 24.5858L6.67825 25.2639L6.00009 24.5858L14.5859 16L6.00009 7.41421L6.7072 6.70711L6.00009 7.41421C5.72039 7.13451 5.52991 6.77814 5.45274 6.39018C5.37557 6.00222 5.41517 5.60009 5.56655 5.23463C5.71792 4.86918 5.97427 4.55682 6.30317 4.33706ZM16.0001 14.5858L24.5859 6L7.41431 6L16.0001 14.5858ZM16.0001 17.4142L7.41431 26L6.7072 25.2929L7.41431 26H24.5859L16.0001 17.4142Z" fill="${color}"/>
		</svg>	
		