
<svg height="32" viewBox="0 0 32 32" width="32">
<g fill="${color}">
<path d="m12 29.999 2-10-8-3 14-15-2 10 8 3z" opacity=".2"/>
<path clip-rule="evenodd" d="m20.4566 1.10932c.3977.20412.6117.64743.524 1.08579l-1.8332 9.16619 7.2037 2.7014c.3127.1172.5462.3827.6225.7078.0763.325-.0147.6667-.2425.9108l-14 15c-.3051.3268-.7899.4115-1.1877.2074-.3977-.2041-.6116-.6475-.524-1.0858l1.8333-9.1662-7.20381-2.7014c-.31263-.1172-.54612-.3827-.62242-.7078-.07629-.325.01467-.6667.24249-.9108l14.00004-15.00002c.305-.326817.7899-.411476 1.1876-.20736zm-12.70496 15.47858 6.59946 2.4748c.4591.1721.7256.6517.6295 1.1324l-1.3096 6.548 10.5774-11.333-6.5995-2.4748c-.4591-.1721-.7256-.6517-.6295-1.1324l1.3096-6.54796z" fill-rule="evenodd"/>
</g>
</svg>