
<svg fill="none" height="20" viewBox="0 0 20 20" width="20">
		<g fill="${color}">
			<path d="m8.87457 16.75c4.34923 0 7.87503-3.5258 7.87503-7.875 0-4.34924-3.5258-7.875-7.87503-7.875-4.34924 0-7.874997 3.52576-7.874997 7.875 0 4.3492 3.525757 7.875 7.874997 7.875z" opacity=".2"/>
		<g clip-rule="evenodd" fill-rule="evenodd">
			<path d="m8.87457 1.75c-3.93503 0-7.125 3.18997-7.125 7.125 0 3.935 3.18997 7.125 7.125 7.125s7.12503-3.19 7.12503-7.125c0-3.93503-3.19-7.125-7.12503-7.125zm-8.624997 7.125c0-4.76346 3.861547-8.625 8.624997-8.625 4.76343 0 8.62503 3.86154 8.62503 8.625 0 4.7635-3.8616 8.625-8.62503 8.625-4.76345 0-8.624997-3.8615-8.624997-8.625z"/>
			<path d="m13.9124 13.9135c.2929-.2929.7678-.2929 1.0607 0l4.5563 4.5563c.2929.2929.2929.7678 0 1.0607s-.7678.2929-1.0607 0l-4.5563-4.5563c-.2929-.2929-.2929-.7678 0-1.0607z"/>
		</g>
		</g>
</svg>