
<svg width="24" height="25" viewBox="0 0 24 25" fill="none">
<path d="M23 0.294922H1C0.734784 0.294922 0.48043 0.400279 0.292893 0.587815C0.105357 0.775351 0 1.02971 0 1.29492L0 23.2949C0 23.5601 0.105357 23.8145 0.292893 24.002C0.48043 24.1896 0.734784 24.2949 1 24.2949H23C23.2652 24.2949 23.5196 24.1896 23.7071 24.002C23.8946 23.8145 24 23.5601 24 23.2949V1.29492C24 1.02971 23.8946 0.775351 23.7071 0.587815C23.5196 0.400279 23.2652 0.294922 23 0.294922V0.294922ZM19.938 5.98092L18.651 7.21492C18.5966 7.25639 18.5545 7.31192 18.5293 7.37553C18.5041 7.43915 18.4967 7.50843 18.508 7.57592V16.6439C18.4967 16.7114 18.5041 16.7807 18.5293 16.8443C18.5545 16.9079 18.5966 16.9635 18.651 17.0049L19.908 18.2389V18.5099H13.586V18.2389L14.886 16.9749C15.014 16.8469 15.014 16.8089 15.014 16.6139V9.28492L11.393 18.4849H10.904L6.691 9.28492V15.4479C6.67366 15.5757 6.68562 15.7058 6.72599 15.8283C6.76636 15.9508 6.83407 16.0625 6.924 16.1549L8.618 18.2089V18.4799H3.818V18.2089L5.509 16.1549C5.5982 16.0624 5.6644 15.9502 5.70227 15.8274C5.74014 15.7046 5.74861 15.5746 5.727 15.4479V8.32192C5.73727 8.22455 5.72452 8.12613 5.68978 8.0346C5.65504 7.94306 5.59929 7.86096 5.527 7.79492L4.019 5.98092V5.70992H8.693L12.306 13.6339L15.482 5.70992H19.938V5.98092Z" fill="${color}"/>
</svg>