<svg width="48" height="48" viewBox="0 0 48 48" fill="none" xmlns="http://www.w3.org/2000/svg">
<rect width="48" height="48" rx="6.4" fill="#FF4400"/>
<path opacity="0.2" d="M12.75 33.375C13.2473 33.375 13.7242 33.1775 14.0758 32.8258C14.4275 32.4742 14.625 31.9973 14.625 31.5V15.5625C14.625 15.3139 14.7238 15.0754 14.8996 14.8996C15.0754 14.7238 15.3139 14.625 15.5625 14.625H35.25C35.4986 14.625 35.7371 14.7238 35.9129 14.8996C36.0887 15.0754 36.1875 15.3139 36.1875 15.5625V31.5C36.1875 31.9973 35.99 32.4742 35.6383 32.8258C35.2867 33.1775 34.8098 33.375 34.3125 33.375H12.75Z" fill="white"/>
<path fill-rule="evenodd" clip-rule="evenodd" d="M18.375 20.25C18.375 19.7322 18.7947 19.3125 19.3125 19.3125H31.5C32.0178 19.3125 32.4375 19.7322 32.4375 20.25C32.4375 20.7678 32.0178 21.1875 31.5 21.1875H19.3125C18.7947 21.1875 18.375 20.7678 18.375 20.25Z" fill="white"/>
<path fill-rule="evenodd" clip-rule="evenodd" d="M18.375 24C18.375 23.4822 18.7947 23.0625 19.3125 23.0625H31.5C32.0178 23.0625 32.4375 23.4822 32.4375 24C32.4375 24.5178 32.0178 24.9375 31.5 24.9375H19.3125C18.7947 24.9375 18.375 24.5178 18.375 24Z" fill="white"/>
<path fill-rule="evenodd" clip-rule="evenodd" d="M18.375 27.75C18.375 27.2322 18.7947 26.8125 19.3125 26.8125H31.5C32.0178 26.8125 32.4375 27.2322 32.4375 27.75C32.4375 28.2678 32.0178 28.6875 31.5 28.6875H19.3125C18.7947 28.6875 18.375 28.2678 18.375 27.75Z" fill="white"/>
<path fill-rule="evenodd" clip-rule="evenodd" d="M14.2367 14.2367C14.5883 13.885 15.0652 13.6875 15.5625 13.6875H35.25C35.7473 13.6875 36.2242 13.885 36.5758 14.2367C36.9275 14.5883 37.125 15.0652 37.125 15.5625V31.5C37.125 32.2459 36.8287 32.9613 36.3012 33.4887C35.7738 34.0162 35.0584 34.3125 34.3125 34.3125H12.75C12.2322 34.3125 11.8125 33.8928 11.8125 33.375C11.8125 32.8572 12.2322 32.4375 12.75 32.4375C12.9986 32.4375 13.2371 32.3387 13.4129 32.1629C13.5887 31.9871 13.6875 31.7486 13.6875 31.5V15.5625C13.6875 15.0652 13.885 14.5883 14.2367 14.2367ZM15.4017 32.4375H34.3125C34.5611 32.4375 34.7996 32.3387 34.9754 32.1629C35.1512 31.9871 35.25 31.7486 35.25 31.5V15.5625L15.5625 15.5625V31.5C15.5625 31.8225 15.5071 32.1392 15.4017 32.4375Z" fill="white"/>
<path fill-rule="evenodd" clip-rule="evenodd" d="M10.875 17.4375C11.3928 17.4375 11.8125 17.8572 11.8125 18.375V31.5C11.8125 31.7486 11.9113 31.9871 12.0871 32.1629C12.2629 32.3387 12.5014 32.4375 12.75 32.4375C13.2678 32.4375 13.6875 32.8572 13.6875 33.375C13.6875 33.8928 13.2678 34.3125 12.75 34.3125C12.0041 34.3125 11.2887 34.0162 10.7613 33.4887C10.2338 32.9613 9.9375 32.2459 9.9375 31.5V18.375C9.9375 17.8572 10.3572 17.4375 10.875 17.4375Z" fill="white"/>
</svg>
