
<svg fill="none" height="32" viewBox="0 0 32 32" width="32">
	<g fill="${color}">
	<path d="m27 19.999h-7v7.001z" opacity=".2"/>
	<g clip-rule="evenodd" fill-rule="evenodd">
	<path d="m11 12c0-.5523.4477-1 1-1h8c.5523 0 1 .4477 1 1s-.4477 1-1 1h-8c-.5523 0-1-.4477-1-1z"/>
	<path d="m11 16c0-.5523.4477-1 1-1h8c.5523 0 1 .4477 1 1s-.4477 1-1 1h-8c-.5523 0-1-.4477-1-1z"/>
	<path d="m11 20c0-.5523.4477-1 1-1h4c.5523 0 1 .4477 1 1s-.4477 1-1 1h-4c-.5523 0-1-.4477-1-1z"/>
	<path d="m4.58579 4.58579c.37507-.37508.88378-.58579 1.41421-.58579h20c.5304 0 1.0391.21071 1.4142.58579.3751.37507.5858.88378.5858 1.41421v13.5858c0 .2626-.0517.5227-.1522.7654-.1006.2426-.2479.4631-.4336.6488l-6.4142 6.4142c-.1857.1857-.4062.333-.6488.4336-.2427.1005-.5028.1522-.7654.1522h-13.5858c-.53043 0-1.03914-.2107-1.41421-.5858-.37508-.3751-.58579-.8838-.58579-1.4142v-20c0-.53043.21071-1.03914.58579-1.41421zm21.41421 1.41421h-20v20h13.5858l6.4142-6.4142z"/>
	<path d="m19 19.999c0-.5523.4477-1 1-1h6.91c.5523 0 1 .4477 1 1s-.4477 1-1 1h-5.91v5.9104c0 .5523-.4477 1-1 1s-1-.4477-1-1z"/>
	</g>
	</g>
</svg>