
<svg width="16" height="20" viewBox="0 0 16 20">
		<path opacity="0.3" d="M9.17 2L14 6.83V18H2V2H9.17ZM8 12C9.1 12 10 11.1 10 10C10 8.9 9.1 8 8 8C6.9 8 6 8.9 6 10C6 11.1 6.9 12 8 12ZM12 15.43C12 14.62 11.52 13.9 10.78 13.58C9.90315 13.1973 8.95673 12.9998 8 12.9998C7.04327 12.9998 6.09685 13.1973 5.22 13.58C4.85771 13.7349 4.54892 13.9928 4.33202 14.3217C4.11511 14.6506 3.99966 15.036 4 15.43V16H12V15.43Z" fill="#F75C1A"/>
		<path d="M9.17 2L14 6.83V18H2V2H9.17ZM10 0H2C0.9 0 0 0.9 0 2V18C0 19.1 0.9 20 2 20H14C15.1 20 16 19.1 16 18V6L10 0ZM8 12C9.1 12 10 11.1 10 10C10 8.9 9.1 8 8 8C6.9 8 6 8.9 6 10C6 11.1 6.9 12 8 12ZM12 15.43C12 14.62 11.52 13.9 10.78 13.58C9.90315 13.1973 8.95673 12.9998 8 12.9998C7.04327 12.9998 6.09685 13.1973 5.22 13.58C4.85771 13.7349 4.54892 13.9928 4.33202 14.3217C4.11511 14.6506 3.99966 15.036 4 15.43V16H12V15.43Z" fill="${color}"/>
</svg>