
<svg width="19" height="19" viewBox="0 0 19 19" fill="none">
	<path opacity=".2" d="M9.75 3.5 15 8.75l2.47-2.47a.75.75 0 0 0 0-1.06l-4.19-4.19a.75.75 0 0 0-1.06 0L9.75 3.5Z" fill="${color}"/>
	<path fill-rule="evenodd" clip-rule="evenodd" d="M9.22 2.97a.75.75 0 0 1 1.06 0l5.25 5.25a.75.75 0 0 1-1.06 1.06L9.22 4.03a.75.75 0 0 1 0-1.06Z" fill="${color}"/>
	<path fill-rule="evenodd" clip-rule="evenodd" d="M11.69.5a1.5 1.5 0 0 1 2.12 0l-.5.501.5-.501L18 4.69a1.5 1.5 0 0 1 0 2.12L6.53 18.28a.75.75 0 0 1-.53.22H1.5A1.5 1.5 0 0 1 0 17v-4.19a1.5 1.5 0 0 1 .44-1.06L11.69.5Zm5.25 5.25-4.19-4.19L1.5 12.81l-.53-.53.53.53V17h4.19L16.94 5.75Z" fill="${color}"/>
</svg>