<svg width="16" height="17" viewBox="0 0 16 17" fill="none" xmlns="http://www.w3.org/2000/svg">
<path opacity="0.2" d="M5.77977 8.30028C6.29842 9.36062 7.15792 10.2162 8.2206 10.73C8.29835 10.7669 8.38436 10.7828 8.47015 10.7763C8.55595 10.7699 8.63857 10.7411 8.7099 10.693L10.2746 9.64961C10.3438 9.60347 10.4235 9.57531 10.5063 9.56771C10.5891 9.5601 10.6725 9.57327 10.749 9.60604L13.6763 10.8606C13.7757 10.9028 13.8588 10.9763 13.9128 11.0698C13.9669 11.1633 13.9892 11.2719 13.9762 11.3791C13.8837 12.1031 13.5304 12.7686 12.9826 13.2509C12.4347 13.7332 11.7299 13.9993 11 13.9993C8.74566 13.9993 6.58365 13.1038 4.98959 11.5097C3.39553 9.91568 2.5 7.75367 2.5 5.49933C2.50004 4.76944 2.76612 4.06459 3.24843 3.51675C3.73073 2.96892 4.39618 2.61567 5.12019 2.52314C5.22745 2.51016 5.33602 2.53239 5.42955 2.58648C5.52307 2.64057 5.59649 2.72359 5.63873 2.82303L6.89439 5.7529C6.92687 5.82868 6.9401 5.91132 6.93291 5.99346C6.92572 6.07559 6.89833 6.15468 6.85318 6.22366L5.81341 7.8124C5.76608 7.88387 5.73811 7.96639 5.73221 8.0519C5.72631 8.13742 5.7427 8.223 5.77977 8.30028V8.30028Z" fill="white"/>
<path fill-rule="evenodd" clip-rule="evenodd" d="M5.17853 3.01852C5.17853 3.01852 5.17853 3.01852 5.17853 3.01852ZM5.17903 3.01969L6.43481 5.94986L5.39562 7.5377C5.30109 7.68097 5.2452 7.84626 5.23339 8.01751C5.22155 8.18931 5.25447 8.36124 5.32894 8.51651L5.77977 8.30028L5.33062 8.51998C5.89846 9.68088 6.83948 10.6176 8.00296 11.1802L8.00649 11.1819C8.1627 11.2559 8.3355 11.288 8.50788 11.2749C8.67969 11.2619 8.84519 11.2045 8.98818 11.1084C8.98864 11.1081 8.98909 11.1078 8.98955 11.1075L10.552 10.0656L13.4793 11.3202C13.4013 11.9218 13.1076 12.4747 12.6522 12.8756C12.1956 13.2776 11.6083 13.4993 11 13.4993M6.23171 8.0863L7.27155 6.49747C7.36185 6.3595 7.41663 6.20133 7.43101 6.03706C7.44539 5.87278 7.41892 5.70751 7.35396 5.55594L6.09893 2.62754C6.09881 2.62725 6.09869 2.62697 6.09856 2.62668C6.01388 2.42785 5.86696 2.26185 5.67986 2.15365C5.4925 2.04529 5.27499 2.00076 5.06012 2.02676L5.05681 2.02718C4.21216 2.13512 3.43581 2.54723 2.87314 3.18636C2.31047 3.82548 2.00004 4.64779 2 5.4993C2 7.88625 2.94821 10.1755 4.63604 11.8633C6.32387 13.5511 8.61305 14.4993 11 14.4993C11.8515 14.4993 12.6738 14.1889 13.313 13.6262C13.9521 13.0635 14.3642 12.2872 14.4722 11.4425L14.4726 11.4392C14.4986 11.2243 14.454 11.0068 14.3457 10.8195C14.2374 10.6323 14.0714 10.4854 13.8725 10.4007C13.8723 10.4006 13.872 10.4005 13.8718 10.4004L10.9459 9.14646C10.793 9.08093 10.6262 9.05458 10.4605 9.0698C10.2949 9.08502 10.1356 9.14132 9.99723 9.23362L8.4325 10.277C7.4752 9.81255 6.70051 9.04149 6.23171 8.0863ZM5.17903 3.01969C4.57743 3.09769 4.02464 3.39175 3.62371 3.84715C3.22178 4.30369 3.00003 4.89109 3 5.49936C3 7.62109 3.84286 9.65589 5.34315 11.1562C6.84343 12.6565 8.87828 13.4993 11 13.4993" fill="white"/>
<path fill-rule="evenodd" clip-rule="evenodd" d="M9.48017 2.86929C9.55189 2.60262 9.8262 2.44459 10.0929 2.5163C11.0251 2.76702 11.8751 3.25828 12.5577 3.94089C13.2403 4.62349 13.7316 5.47348 13.9823 6.40571C14.054 6.67237 13.8959 6.94669 13.6293 7.0184C13.3626 7.09012 13.0883 6.93208 13.0166 6.66542C12.8114 5.9024 12.4093 5.2067 11.8506 4.648C11.2919 4.08929 10.5962 3.6872 9.83316 3.48199C9.56649 3.41027 9.40845 3.13596 9.48017 2.86929Z" fill="white"/>
<path fill-rule="evenodd" clip-rule="evenodd" d="M8.96259 4.80191C9.03431 4.53524 9.30863 4.3772 9.57529 4.44892C10.1685 4.60845 10.7093 4.92104 11.1437 5.35539C11.578 5.78973 11.8906 6.33058 12.0501 6.92376C12.1218 7.19043 11.9638 7.46474 11.6971 7.53646C11.4305 7.60818 11.1562 7.45014 11.0844 7.18347C10.9704 6.7595 10.747 6.37294 10.4366 6.0625C10.1261 5.75205 9.73955 5.52863 9.31558 5.41461C9.04891 5.34289 8.89088 5.06858 8.96259 4.80191Z" fill="white"/>
</svg>
