
<svg width="25" height="24" viewBox="0 0 25 24" fill="none">
	<path fill-rule="evenodd" clip-rule="evenodd" d="M12.4993 3.75049C12.9135 3.75049 13.2493 4.08627 13.2493 4.50049V11.6255C13.2493 12.0397 12.9135 12.3755 12.4993 12.3755C12.0851 12.3755 11.7493 12.0397 11.7493 11.6255V4.50049C11.7493 4.08627 12.0851 3.75049 12.4993 3.75049Z" fill="${color}"/>
	<path fill-rule="evenodd" clip-rule="evenodd" d="M8.62845 4.67546C8.85439 5.02262 8.75612 5.48721 8.40896 5.71316C7.0539 6.59506 6.0201 7.89123 5.46163 9.40849C4.90317 10.9257 4.84995 12.5828 5.30991 14.1328C5.76987 15.6828 6.71837 17.0426 8.01405 18.0096C9.30973 18.9767 10.8832 19.4991 12.5 19.4991C14.1168 19.4991 15.6902 18.9767 16.9859 18.0097C18.2816 17.0426 19.2301 15.6828 19.6901 14.1328C20.15 12.5829 20.0968 10.9258 19.5384 9.40852C18.9799 7.89126 17.9461 6.59508 16.5911 5.71317C16.2439 5.48723 16.1456 5.02264 16.3716 4.67547C16.5975 4.32831 17.0621 4.23004 17.4093 4.45598C19.0354 5.51428 20.2759 7.06969 20.9461 8.8904C21.6162 10.7111 21.6801 12.6996 21.1281 14.5596C20.5761 16.4195 19.4379 18.0513 17.8831 19.2118C16.3283 20.3722 14.4401 20.9991 12.5 20.9991C10.5599 20.9991 8.67168 20.3722 7.11686 19.2117C5.56204 18.0513 4.42384 16.4195 3.87189 14.5595C3.31994 12.6996 3.38381 10.7111 4.05396 8.89036C4.72411 7.06965 5.96468 5.51425 7.59075 4.45596C7.93791 4.23002 8.40251 4.32829 8.62845 4.67546Z" fill="${color}"/>
</svg>