<svg width="64" height="64" viewBox="0 0 64 64" fill="none" xmlns="http://www.w3.org/2000/svg">
<rect width="64" height="64" rx="8" fill="#FF4400"/>
<path fill-rule="evenodd" clip-rule="evenodd" d="M17 18.25C17.6904 18.25 18.25 18.8096 18.25 19.5V43.25H47C47.6904 43.25 48.25 43.8096 48.25 44.5C48.25 45.1904 47.6904 45.75 47 45.75H17C16.3096 45.75 15.75 45.1904 15.75 44.5V19.5C15.75 18.8096 16.3096 18.25 17 18.25Z" fill="white"/>
<path fill-rule="evenodd" clip-rule="evenodd" d="M47.9407 26.1769C48.3953 26.6964 48.3427 27.4861 47.8231 27.9407L37.8231 36.6907C37.3786 37.0797 36.7225 37.1044 36.25 36.75L27.0606 29.858L17.8231 37.9407C17.3036 38.3953 16.5139 38.3427 16.0593 37.8231C15.6047 37.3036 15.6573 36.5139 16.1769 36.0593L26.1769 27.3093C26.6214 26.9203 27.2775 26.8956 27.75 27.25L36.9394 34.1421L46.1769 26.0593C46.6964 25.6047 47.4861 25.6573 47.9407 26.1769Z" fill="white"/>
</svg>
