<svg width="16" height="17" viewBox="0 0 16 17" fill="none" xmlns="http://www.w3.org/2000/svg">
<path opacity="0.2" d="M13.1667 5.5H2.83334C2.23503 5.5 1.75 5.94772 1.75 6.5V11.5H4V10H12V11.5H14.25V6.5C14.25 5.94772 13.765 5.5 13.1667 5.5Z" fill="white"/>
<path d="M11.75 8.5C12.1642 8.5 12.5 8.16421 12.5 7.75C12.5 7.33579 12.1642 7 11.75 7C11.3358 7 11 7.33579 11 7.75C11 8.16421 11.3358 8.5 11.75 8.5Z" fill="white"/>
<path fill-rule="evenodd" clip-rule="evenodd" d="M3.5 3C3.5 2.72386 3.72386 2.5 4 2.5H12C12.2761 2.5 12.5 2.72386 12.5 3V5.5C12.5 5.77614 12.2761 6 12 6H4C3.72386 6 3.5 5.77614 3.5 5.5V3ZM4.5 3.5V5H11.5V3.5H4.5Z" fill="white"/>
<path fill-rule="evenodd" clip-rule="evenodd" d="M3.5 10C3.5 9.72386 3.72386 9.5 4 9.5H12C12.2761 9.5 12.5 9.72386 12.5 10V14.25C12.5 14.5261 12.2761 14.75 12 14.75H4C3.72386 14.75 3.5 14.5261 3.5 14.25V10ZM4.5 10.5V13.75H11.5V10.5H4.5Z" fill="white"/>
<path fill-rule="evenodd" clip-rule="evenodd" d="M2.83333 6C2.47273 6 2.25 6.26079 2.25 6.5V11H4C4.27614 11 4.5 11.2239 4.5 11.5C4.5 11.7761 4.27614 12 4 12H1.75C1.47386 12 1.25 11.7761 1.25 11.5V6.5C1.25 5.63464 1.99732 5 2.83333 5H13.1667C14.0027 5 14.75 5.63464 14.75 6.5V11.5C14.75 11.7761 14.5261 12 14.25 12H12C11.7239 12 11.5 11.7761 11.5 11.5C11.5 11.2239 11.7239 11 12 11H13.75V6.5C13.75 6.26079 13.5273 6 13.1667 6H2.83333Z" fill="white"/>
</svg>
