
<svg width="32" height="32" viewBox="0 0 32 32" fill="none">
	<path opacity="0.2" d="M13.0005 6H7.00049C6.4482 6 6.00049 6.44772 6.00049 7V13C6.00049 13.5523 6.4482 14 7.00049 14H13.0005C13.5528 14 14.0005 13.5523 14.0005 13V7C14.0005 6.44772 13.5528 6 13.0005 6Z" fill="${color}"/>
	<path opacity="0.2" d="M13.0005 18H7.00049C6.4482 18 6.00049 18.4477 6.00049 19V25C6.00049 25.5523 6.4482 26 7.00049 26H13.0005C13.5528 26 14.0005 25.5523 14.0005 25V19C14.0005 18.4477 13.5528 18 13.0005 18Z" fill="${color}"/>
	<path opacity="0.2" d="M25.0005 6H19.0005C18.4482 6 18.0005 6.44772 18.0005 7V13C18.0005 13.5523 18.4482 14 19.0005 14H25.0005C25.5528 14 26.0005 13.5523 26.0005 13V7C26.0005 6.44772 25.5528 6 25.0005 6Z" fill="${color}"/>
	<path fill-rule="evenodd" clip-rule="evenodd" d="M5.00049 7C5.00049 5.89543 5.89592 5 7.00049 5H13.0005C14.1051 5 15.0005 5.89543 15.0005 7V13C15.0005 14.1046 14.1051 15 13.0005 15H7.00049C5.89592 15 5.00049 14.1046 5.00049 13V7ZM13.0005 7H7.00049V13H13.0005V7Z" fill="${color}"/>
	<path fill-rule="evenodd" clip-rule="evenodd" d="M5.00049 19C5.00049 17.8954 5.89592 17 7.00049 17H13.0005C14.1051 17 15.0005 17.8954 15.0005 19V25C15.0005 26.1046 14.1051 27 13.0005 27H7.00049C5.89592 27 5.00049 26.1046 5.00049 25V19ZM13.0005 19H7.00049V25H13.0005V19Z" fill="${color}"/>
	<path fill-rule="evenodd" clip-rule="evenodd" d="M17.0005 7C17.0005 5.89543 17.8959 5 19.0005 5H25.0005C26.1051 5 27.0005 5.89543 27.0005 7V13C27.0005 14.1046 26.1051 15 25.0005 15H19.0005C17.8959 15 17.0005 14.1046 17.0005 13V7ZM25.0005 7H19.0005V13H25.0005V7Z" fill="${color}"/>
	<path fill-rule="evenodd" clip-rule="evenodd" d="M18.0005 17C18.5528 17 19.0005 17.4477 19.0005 18V22C19.0005 22.5523 18.5528 23 18.0005 23C17.4482 23 17.0005 22.5523 17.0005 22V18C17.0005 17.4477 17.4482 17 18.0005 17Z" fill="${color}"/>
	<path fill-rule="evenodd" clip-rule="evenodd" d="M22.0005 17C22.5528 17 23.0005 17.4477 23.0005 18V26C23.0005 26.5523 22.5528 27 22.0005 27H18.0005C17.4482 27 17.0005 26.5523 17.0005 26C17.0005 25.4477 17.4482 25 18.0005 25H21.0005V18C21.0005 17.4477 21.4482 17 22.0005 17Z" fill="${color}"/>
	<path fill-rule="evenodd" clip-rule="evenodd" d="M21.0005 20C21.0005 19.4477 21.4482 19 22.0005 19H26.0005C26.5528 19 27.0005 19.4477 27.0005 20C27.0005 20.5523 26.5528 21 26.0005 21H22.0005C21.4482 21 21.0005 20.5523 21.0005 20Z" fill="${color}"/>
	<path fill-rule="evenodd" clip-rule="evenodd" d="M26.0005 23C26.5528 23 27.0005 23.4477 27.0005 24V26C27.0005 26.5523 26.5528 27 26.0005 27C25.4482 27 25.0005 26.5523 25.0005 26V24C25.0005 23.4477 25.4482 23 26.0005 23Z" fill="${color}"/>
	</svg>	
