
<svg width="12" height="13" viewBox="0 0 12 13">
<path d="M5.94238 12.9668C6.1543 12.9668 6.35937 12.8779 6.50976 12.7207L11.001 8.22949C11.1719 8.05176 11.2471 7.86719 11.2471 7.67578C11.2471 7.23828 10.9395 6.92383 10.5225 6.92383C10.3037 6.92383 10.1191 7.0127 9.98242 7.14941L8.42383 8.6875L6.6123 10.6699L6.70801 9.08398L6.70801 0.798828C6.70801 0.34082 6.39355 0.0263669 5.94238 0.0263668C5.49805 0.0263668 5.18359 0.34082 5.18359 0.798828L5.18359 9.08398L5.2793 10.6699L3.46777 8.6875L1.90918 7.14941C1.77246 7.01269 1.58789 6.92383 1.36914 6.92383C0.952148 6.92383 0.644531 7.23828 0.644531 7.67578C0.644531 7.86719 0.719726 8.05176 0.876953 8.21582L5.38184 12.7207C5.53223 12.8779 5.7373 12.9668 5.94238 12.9668Z" fill="${color}"/>
</svg>