<svg width="19" height="23" viewBox="0 0 19 23" xmlns="http://www.w3.org/2000/svg">
<path d="M9.33301 0.476562C8.72363 0.476562 8.29004 0.898438 8.29004 1.50781V16.9414L8.38379 19.4492L4.86816 15.5938L2.19629 12.9688C2.02051 12.7812 1.73926 12.6875 1.45801 12.6875C0.87207 12.6875 0.450195 13.1328 0.450195 13.707C0.450195 13.9883 0.555664 14.2344 0.77832 14.4688L8.54785 22.2617C8.77051 22.4961 9.04004 22.6133 9.33301 22.6133C9.62598 22.6133 9.89551 22.4961 10.1182 22.2617L17.8994 14.4688C18.1221 14.2344 18.2158 13.9883 18.2158 13.707C18.2158 13.1328 17.7939 12.6875 17.208 12.6875C16.9268 12.6875 16.6572 12.7812 16.4697 12.9688L13.7979 15.5938L10.2939 19.4375L10.376 16.9414V1.50781C10.376 0.898438 9.94238 0.476562 9.33301 0.476562Z" fill="${color}"/>
</svg>
