
<svg height="32" viewBox="0 0 32 32" width="32">
<g fill="${color}">
<path d="m26 18h-20c-.55228 0-1 .4477-1 1v6c0 .5523.44772 1 1 1h20c.5523 0 1-.4477 1-1v-6c0-.5523-.4477-1-1-1z" opacity=".2"/>
<path d="m26 6h-20c-.55228 0-1 .44772-1 1v6c0 .5523.44772 1 1 1h20c.5523 0 1-.4477 1-1v-6c0-.55228-.4477-1-1-1z" opacity=".2"/>
<g clip-rule="evenodd" fill-rule="evenodd">
<path d="m4 19c0-1.1046.89543-2 2-2h20c1.1046 0 2 .8954 2 2v6c0 1.1046-.8954 2-2 2h-20c-1.10457 0-2-.8954-2-2zm22 0h-20v6h20z"/>
<path d="m4 7c0-1.10457.89543-2 2-2h20c1.1046 0 2 .89543 2 2v6c0 1.1046-.8954 2-2 2h-20c-1.10457 0-2-.8954-2-2zm22 0h-20v6h20z"/>
</g>
</g>
</svg>