
<svg height="24" viewBox="0 0 25 24" width="25">
<path d="m1.55493 12c0 .6094.42188 1.043 1.03125 1.043h15.43362l2.5078-.0938-3.8555 3.5156-2.625 2.6719c-.1875.1758-.2812.457-.2812.7383 0 .5859.4453 1.0078 1.0195 1.0078.2813 0 .5273-.1055.7617-.3281l7.793-7.7695c.2344-.2227.3516-.4922.3516-.7852-.0001-.293-.1172-.5625-.3516-.7852l-7.793-7.78121c-.2344-.22265-.4805-.3164-.7617-.3164-.5742 0-1.0195.42187-1.0195 1.00781 0 .28125.0937.55078.2812.73828l2.625 2.67188 3.8438 3.50394-2.4961-.0821h-15.43362c-.60937 0-1.03125.4336-1.03125 1.043z" fill="${color}"/>
</svg>