
<svg width="32" height="32" viewBox="0 0 32 32" fill="none">
<path fill-rule="evenodd" clip-rule="evenodd" d="M21.75 1.625C21.75 0.831091 22.3936 0.1875 23.1875 0.1875H30.375C31.1689 0.1875 31.8125 0.831091 31.8125 1.625V8.8125C31.8125 9.60641 31.1689 10.25 30.375 10.25C29.5811 10.25 28.9375 9.60641 28.9375 8.8125V3.0625H23.1875C22.3936 3.0625 21.75 2.41891 21.75 1.625Z" fill="${color}"/>
<path fill-rule="evenodd" clip-rule="evenodd" d="M1.625 21.75C2.41891 21.75 3.0625 22.3936 3.0625 23.1875V28.9375H8.8125C9.60641 28.9375 10.25 29.5811 10.25 30.375C10.25 31.1689 9.60641 31.8125 8.8125 31.8125H1.625C0.831091 31.8125 0.1875 31.1689 0.1875 30.375V23.1875C0.1875 22.3936 0.831091 21.75 1.625 21.75Z" fill="${color}"/>
<path fill-rule="evenodd" clip-rule="evenodd" d="M30.375 21.75C31.1689 21.75 31.8125 22.3936 31.8125 23.1875V30.375C31.8125 31.1689 31.1689 31.8125 30.375 31.8125H23.1875C22.3936 31.8125 21.75 31.1689 21.75 30.375C21.75 29.5811 22.3936 28.9375 23.1875 28.9375H28.9375V23.1875C28.9375 22.3936 29.5811 21.75 30.375 21.75Z" fill="${color}"/>
<path fill-rule="evenodd" clip-rule="evenodd" d="M0.1875 1.625C0.1875 0.831091 0.831091 0.1875 1.625 0.1875H8.8125C9.60641 0.1875 10.25 0.831091 10.25 1.625C10.25 2.41891 9.60641 3.0625 8.8125 3.0625H3.0625V8.8125C3.0625 9.60641 2.41891 10.25 1.625 10.25C0.831091 10.25 0.1875 9.60641 0.1875 8.8125V1.625Z" fill="${color}"/>
</svg>