
<svg width="32" height="33" viewBox="0 0 32 33" fill="none">
<rect y="0.5" width="32" height="32" rx="16" fill="${color}" fill-opacity="0.1"/>
<path opacity="0.2" d="M10.5 15.1667V11.5C10.5 11.3674 10.5527 11.2402 10.6464 11.1464C10.7402 11.0527 10.8674 11 11 11H21C21.1326 11 21.2598 11.0527 21.3536 11.1464C21.4473 11.2402 21.5 11.3674 21.5 11.5V15.1667C21.5 20.4176 17.0434 22.1573 16.1535 22.4523C16.054 22.4866 15.946 22.4866 15.8465 22.4523C14.9566 22.1573 10.5 20.4176 10.5 15.1667Z" fill="${color}"/>
<path fill-rule="evenodd" clip-rule="evenodd" d="M10.2929 10.7929C10.4804 10.6054 10.7348 10.5 11 10.5H21C21.2652 10.5 21.5196 10.6054 21.7071 10.7929C21.8946 10.9804 22 11.2348 22 11.5V15.1667C22 20.7699 17.2353 22.62 16.3132 22.9262C16.1101 22.9953 15.8899 22.9953 15.6868 22.9262C14.7647 22.62 10 20.7699 10 15.1667V11.5C10 11.2348 10.1054 10.9804 10.2929 10.7929ZM21 11.5L11 11.5L11 15.1667C11 20.0535 15.1284 21.6867 16 21.9765C16.8716 21.6867 21 20.0535 21 15.1667V11.5Z" fill="${color}"/>
<path fill-rule="evenodd" clip-rule="evenodd" d="M19.1117 14.1548C19.3023 14.3545 19.295 14.671 19.0952 14.8617L15.4286 18.3617C15.2353 18.5461 14.9313 18.5461 14.7381 18.3617L12.9048 16.6117C12.705 16.421 12.6977 16.1045 12.8883 15.9048C13.079 15.705 13.3955 15.6977 13.5952 15.8883L15.0833 17.3088L18.4048 14.1383C18.6045 13.9477 18.921 13.955 19.1117 14.1548Z" fill="${color}"/>
</svg>