<svg width="19" height="23" viewBox="0 0 19 23" xmlns="http://www.w3.org/2000/svg">
<path d="M9.66699 22.6133C10.2764 22.6133 10.71 22.1914 10.71 21.582V6.14844L10.6279 3.65234L14.1318 7.49609L16.8037 10.1211C16.9912 10.3086 17.2607 10.4023 17.542 10.4023C18.1279 10.4023 18.5498 9.95703 18.5498 9.38281C18.5498 9.10156 18.4561 8.85547 18.2334 8.62109L10.4521 0.828125C10.2295 0.59375 9.95996 0.476562 9.66699 0.476562C9.37402 0.476562 9.10449 0.59375 8.88184 0.828125L1.1123 8.62109C0.889648 8.85547 0.78418 9.10156 0.78418 9.38281C0.78418 9.95703 1.20605 10.4023 1.79199 10.4023C2.07324 10.4023 2.35449 10.3086 2.53027 10.1211L5.20215 7.49609L8.71777 3.64062L8.62402 6.14844V21.582C8.62402 22.1914 9.05762 22.6133 9.66699 22.6133Z" fill="${color}"/>
</svg>
