
<svg width="12" height="13" viewBox="0 0 12 13">
<path d="M6.05762 0.0332028C5.8457 0.0332028 5.64062 0.12207 5.49023 0.279297L0.999023 4.77051C0.828125 4.94824 0.752929 5.13281 0.752929 5.32422C0.752929 5.76172 1.06055 6.07617 1.47754 6.07617C1.69629 6.07617 1.88086 5.9873 2.01758 5.85059L3.57617 4.3125L5.38769 2.33008L5.29199 3.91602L5.29199 12.2012C5.29199 12.6592 5.60645 12.9736 6.05762 12.9736C6.50195 12.9736 6.81641 12.6592 6.81641 12.2012L6.81641 3.91602L6.7207 2.33008L8.53223 4.3125L10.0908 5.85059C10.2275 5.9873 10.4121 6.07617 10.6309 6.07617C11.0479 6.07617 11.3555 5.76172 11.3555 5.32422C11.3555 5.13281 11.2803 4.94824 11.123 4.78418L6.61816 0.279296C6.46777 0.12207 6.26269 0.0332028 6.05762 0.0332028Z" fill="${color}"/>
</svg>