
<svg width="32" height="32" viewBox="0 0 32 32" fill="none">
	<path opacity="0.2" d="M22 29C24.2091 29 26 27.2091 26 25C26 22.7909 24.2091 21 22 21C19.7909 21 18 22.7909 18 25C18 27.2091 19.7909 29 22 29Z" fill="${color}"/>
	<path opacity="0.2" d="M22 11C24.2091 11 26 9.20914 26 7C26 4.79086 24.2091 3 22 3C19.7909 3 18 4.79086 18 7C18 9.20914 19.7909 11 22 11Z" fill="${color}"/>
	<path fill-rule="evenodd" clip-rule="evenodd" d="M8 13C6.34315 13 5 14.3431 5 16C5 17.6569 6.34315 19 8 19C9.65685 19 11 17.6569 11 16C11 14.3431 9.65685 13 8 13ZM3 16C3 13.2386 5.23858 11 8 11C10.7614 11 13 13.2386 13 16C13 18.7614 10.7614 21 8 21C5.23858 21 3 18.7614 3 16Z" fill="${color}"/>
	<path fill-rule="evenodd" clip-rule="evenodd" d="M22 22C20.3431 22 19 23.3431 19 25C19 26.6569 20.3431 28 22 28C23.6569 28 25 26.6569 25 25C25 23.3431 23.6569 22 22 22ZM17 25C17 22.2386 19.2386 20 22 20C24.7614 20 27 22.2386 27 25C27 27.7614 24.7614 30 22 30C19.2386 30 17 27.7614 17 25Z" fill="${color}"/>
	<path fill-rule="evenodd" clip-rule="evenodd" d="M22 4C20.3431 4 19 5.34315 19 7C19 8.65685 20.3431 10 22 10C23.6569 10 25 8.65685 25 7C25 5.34315 23.6569 4 22 4ZM17 7C17 4.23858 19.2386 2 22 2C24.7614 2 27 4.23858 27 7C27 9.76142 24.7614 12 22 12C19.2386 12 17 9.76142 17 7Z" fill="${color}"/>
	<path fill-rule="evenodd" clip-rule="evenodd" d="M19.4767 8.6221C19.7754 9.08667 19.6409 9.70538 19.1763 10.004L11.9049 14.6785C11.4403 14.9772 10.8216 14.8427 10.523 14.3781C10.2243 13.9135 10.3588 13.2948 10.8234 12.9961L18.0948 8.32168C18.5593 8.02303 19.1781 8.15753 19.4767 8.6221Z" fill="${color}"/>
	<path fill-rule="evenodd" clip-rule="evenodd" d="M10.523 17.6219C10.8216 17.1573 11.4403 17.0228 11.9049 17.3215L19.1763 21.996C19.6408 22.2946 19.7754 22.9133 19.4767 23.3779C19.178 23.8425 18.5593 23.977 18.0948 23.6783L10.8234 19.0039C10.3588 18.7052 10.2243 18.0865 10.523 17.6219Z" fill="${color}"/>
</svg>