
<svg fill="none" height="32" viewBox="0 0 32 32" width="32">
	<g clip-rule="evenodd" fill="${color}" fill-rule="evenodd">
	<path d="m21.2929 6.29289c.3905-.39052 1.0237-.39052 1.4142 0l6 6.00001c.3905.3905.3905 1.0237 0 1.4142l-6 6c-.3905.3905-1.0237.3905-1.4142 0s-.3905-1.0237 0-1.4142l5.2929-5.2929-5.2929-5.29289c-.3905-.39053-.3905-1.02369 0-1.41422z"/>
	<path d="m4 10c.55228 0 1 .4477 1 1v15h19c.5523 0 1 .4477 1 1s-.4477 1-1 1h-19c-.53043 0-1.03914-.2107-1.41421-.5858-.37508-.3751-.58579-.8838-.58579-1.4142v-15c0-.5523.44772-1 1-1z"/>
	<path d="m21.0001 14c-2.439.0002-4.8088.8106-6.7372 2.3039-1.9284 1.4934-3.306 3.585-3.9166 5.9464-.1382.5347-.68375.8561-1.21845.7178-.5347-.1382-.85609-.6838-.71784-1.2185.72148-2.7905 2.34949-5.2622 4.62839-7.027 2.2788-1.7647 5.0794-2.7224 7.9616-2.7226h7.0001c.5523 0 1 .4477 1 1s-.4477 1-1 1z"/>
	</g>
</svg>