<svg width="16" height="17" viewBox="0 0 16 17" fill="none" xmlns="http://www.w3.org/2000/svg">
<path opacity="0.2" d="M2.5 4.5H13.4009C13.4741 4.5 13.5465 4.51609 13.6128 4.54713C13.6791 4.57817 13.7378 4.6234 13.7848 4.67963C13.8317 4.73585 13.8657 4.8017 13.8844 4.87252C13.903 4.94333 13.9059 5.01739 13.8928 5.08944L13.0747 9.58944C13.0537 9.70465 12.993 9.80885 12.9031 9.88388C12.8132 9.95891 12.6998 10 12.5827 10H3.5L2.5 4.5Z" fill="white"/>
<path fill-rule="evenodd" clip-rule="evenodd" d="M0 2C0 1.72386 0.223858 1.5 0.5 1.5H1.62817C1.86235 1.5 2.08912 1.58219 2.26891 1.73225C2.44871 1.8823 2.57014 2.0907 2.61204 2.32112L4.28092 11.5H12C12.2761 11.5 12.5 11.7239 12.5 12C12.5 12.2761 12.2761 12.5 12 12.5H4.28093C4.04674 12.5 3.81998 12.4178 3.64018 12.2678C3.46038 12.1177 3.33895 11.9093 3.29705 11.6789L1.62817 2.5H0.5C0.223858 2.5 0 2.27614 0 2Z" fill="white"/>
<path fill-rule="evenodd" clip-rule="evenodd" d="M4.5 12.5C4.08579 12.5 3.75 12.8358 3.75 13.25C3.75 13.6642 4.08579 14 4.5 14C4.91421 14 5.25 13.6642 5.25 13.25C5.25 12.8358 4.91421 12.5 4.5 12.5ZM2.75 13.25C2.75 12.2835 3.5335 11.5 4.5 11.5C5.4665 11.5 6.25 12.2835 6.25 13.25C6.25 14.2165 5.4665 15 4.5 15C3.5335 15 2.75 14.2165 2.75 13.25Z" fill="white"/>
<path fill-rule="evenodd" clip-rule="evenodd" d="M12 12.5C11.5858 12.5 11.25 12.8358 11.25 13.25C11.25 13.6642 11.5858 14 12 14C12.4142 14 12.75 13.6642 12.75 13.25C12.75 12.8358 12.4142 12.5 12 12.5ZM10.25 13.25C10.25 12.2835 11.0335 11.5 12 11.5C12.9665 11.5 13.75 12.2835 13.75 13.25C13.75 14.2165 12.9665 15 12 15C11.0335 15 10.25 14.2165 10.25 13.25Z" fill="white"/>
<path fill-rule="evenodd" clip-rule="evenodd" d="M2 4.5C2 4.22386 2.22386 4 2.5 4H13.4009C13.5474 4 13.6921 4.03218 13.8247 4.09425C13.9574 4.15633 14.0748 4.2468 14.1686 4.35925C14.2625 4.4717 14.3305 4.6034 14.3678 4.74504C14.4052 4.88667 14.411 5.03478 14.3848 5.17889L13.5666 9.67889C13.5247 9.9093 13.4033 10.1177 13.2235 10.2678C13.0437 10.4178 12.8169 10.5 12.5827 10.5H3.5C3.22386 10.5 3 10.2761 3 10C3 9.72386 3.22386 9.5 3.5 9.5L12.5827 9.5L13.4009 5H2.5C2.22386 5 2 4.77614 2 4.5Z" fill="white"/>
</svg>
