<svg width="16" height="17" viewBox="0 0 16 17" fill="none" xmlns="http://www.w3.org/2000/svg">
<path opacity="0.2" d="M13.5 3.5H2.5C2.22386 3.5 2 3.72386 2 4V13C2 13.2761 2.22386 13.5 2.5 13.5H13.5C13.7761 13.5 14 13.2761 14 13V4C14 3.72386 13.7761 3.5 13.5 3.5Z" fill="white"/>
<path fill-rule="evenodd" clip-rule="evenodd" d="M1.5 4C1.5 3.44772 1.94772 3 2.5 3H13.5C14.0523 3 14.5 3.44772 14.5 4V13C14.5 13.5523 14.0523 14 13.5 14H2.5C1.94772 14 1.5 13.5523 1.5 13V4ZM13.5 4H2.5V13H13.5V4Z" fill="white"/>
<path fill-rule="evenodd" clip-rule="evenodd" d="M5.5 5.5C5.77614 5.5 6 5.72386 6 6C6 6.53043 6.21071 7.03914 6.58579 7.41421C6.96086 7.78929 7.46957 8 8 8C8.53043 8 9.03914 7.78929 9.41421 7.41421C9.78929 7.03914 10 6.53043 10 6C10 5.72386 10.2239 5.5 10.5 5.5C10.7761 5.5 11 5.72386 11 6C11 6.79565 10.6839 7.55871 10.1213 8.12132C9.55871 8.68393 8.79565 9 8 9C7.20435 9 6.44129 8.68393 5.87868 8.12132C5.31607 7.55871 5 6.79565 5 6C5 5.72386 5.22386 5.5 5.5 5.5Z" fill="white"/>
</svg>
