
<svg height="32" viewBox="0 0 32 32" width="32">
<g clip-rule="evenodd" fill="${color}" fill-rule="evenodd">
<path d="m17.2929 20.2922c.3905-.3906 1.0237-.3906 1.4142 0l4.2929 4.2929 4.2928-4.2922c.3906-.3905 1.0237-.3905 1.4142.0001.3905.3905.3905 1.0237-.0001 1.4142l-4.9998 4.9992c-.3906.3905-1.0237.3905-1.4142 0l-5-5c-.3905-.3905-.3905-1.0237 0-1.4142z"/>
<path d="m23 12.9992c.5523 0 1 .4477 1 1v12c0 .5523-.4477 1-1 1s-1-.4477-1-1v-12c0-.5523.4477-1 1-1z"/>
<path d="m5 15.9992c0-.5523.44772-1 1-1h8.9999c.5523 0 1 .4477 1 1s-.4477 1-1 1h-8.9999c-.55228 0-1-.4477-1-1z"/>
<path d="m5 7.99921c0-.55229.44772-1 1-1h16.9999c.5523 0 1 .44771 1 1 0 .55228-.4477 1-1 1h-16.9999c-.55228 0-1-.44772-1-1z"/>
<path d="m5 23.9992c0-.5523.44772-1 1-1h7c.5523 0 1 .4477 1 1s-.4477 1-1 1h-7c-.55228 0-1-.4477-1-1z"/>
</g>
</svg>