
<svg fill="none" height="32" viewBox="0 0 32 32" width="32">
		<g fill="${color}">
		<path clip-rule="evenodd" d="m4 22h24c0-6.6274-5.3726-12-12-12-6.62742 0-12 5.3726-12 12z" fill-rule="evenodd" opacity=".2"/>
		<path d="m17.0118 22.8829c1.2589.8351 1.4707 2.3682.4113 3.465-1.0844 1.0595-2.605.8227-3.4525-.4362l-4.18796-6.1697c-.54842-.8226.23686-1.6079 1.05946-1.0595z"/>
		<path clip-rule="evenodd" d="m5 22c0-6.0751 4.92487-11 11-11 6.0751 0 11 4.9249 11 11h2c0-7.1797-5.8203-13-13-13s-13 5.8203-13 13z" fill-rule="evenodd"/>
		</g>
</svg>