
<svg fill="none" height="32" viewBox="0 0 32 32" width="32">
		<g fill="${color}">
		<path clip-rule="evenodd" d="m4 22h24c0-6.6274-5.3726-12-12-12-6.62742 0-12 5.3726-12 12z" fill-rule="evenodd" opacity=".2"/>
		<path d="m13.8703 24.34c-.2997 1.4807.6346 2.7146 2.1593 2.741 1.5159-.0176 2.4237-1.2603 2.1328-2.7498l-1.4013-7.3239c-.1939-.9695-1.3044-.9695-1.4983 0z"/>
		<path clip-rule="evenodd" d="m5 22c0-6.0751 4.92487-11 11-11 6.0751 0 11 4.9249 11 11h2c0-7.1797-5.8203-13-13-13s-13 5.8203-13 13z" fill-rule="evenodd"/>
		</g>
</svg>