<svg width="24" height="24" viewBox="0 0 24 24" fill="none" xmlns="http://www.w3.org/2000/svg">
<path opacity="0.2" d="M9 9V10.5C9 11.2956 8.68393 12.0587 8.12132 12.6213C7.55871 13.1839 6.79565 13.5 6 13.5C5.20435 13.5 4.44129 13.1839 3.87868 12.6213C3.31607 12.0587 3 11.2956 3 10.5V9" fill="${color}"/>
<path opacity="0.2" d="M21 9V10.5C21 11.2956 20.6839 12.0587 20.1213 12.6213C19.5587 13.1839 18.7957 13.5 18 13.5C17.2044 13.5 16.4413 13.1839 15.8787 12.6213C15.3161 12.0587 15 11.2956 15 10.5V9" fill="${color}"/>
<path fill-rule="evenodd" clip-rule="evenodd" d="M4.5 12.3364C4.91421 12.3364 5.25 12.6722 5.25 13.0864V19.5H18.75V13.0866C18.75 12.6724 19.0858 12.3366 19.5 12.3366C19.9142 12.3366 20.25 12.6724 20.25 13.0866V19.5C20.25 19.8979 20.092 20.2794 19.8107 20.5607C19.5294 20.842 19.1478 21 18.75 21H5.25C4.85218 21 4.47065 20.842 4.18934 20.5607C3.90804 20.2794 3.75 19.8979 3.75 19.5V13.0864C3.75 12.6722 4.08579 12.3364 4.5 12.3364Z" fill="${color}"/>
<path fill-rule="evenodd" clip-rule="evenodd" d="M4.16244 3.30248C4.42267 3.10618 4.73977 3 5.06573 3H18.9343C19.2602 3 19.5773 3.10618 19.8376 3.30248C20.0978 3.49877 20.287 3.7745 20.3766 4.08792L21.7211 8.79396C21.7858 9.02025 21.7405 9.26376 21.5988 9.45165C21.457 9.63953 21.2353 9.75 21 9.75H3.00001C2.76466 9.75 2.54297 9.63953 2.40124 9.45165C2.25952 9.26376 2.21421 9.02025 2.27886 8.79396L3.62345 4.08792L4.34459 4.29396L3.62345 4.08792C3.713 3.77449 3.90221 3.49877 4.16244 3.30248ZM18.9343 4.5L5.06573 4.5L3.9943 8.25H20.0057L18.9343 4.5Z" fill="${color}"/>
<path fill-rule="evenodd" clip-rule="evenodd" d="M3 8.25C3.41421 8.25 3.75 8.58579 3.75 9V10.5C3.75 11.0967 3.98705 11.669 4.40901 12.091C4.83097 12.5129 5.40326 12.75 6 12.75C6.59674 12.75 7.16903 12.5129 7.59099 12.091C8.01295 11.669 8.25 11.0967 8.25 10.5V9C8.25 8.58579 8.58579 8.25 9 8.25C9.41421 8.25 9.75 8.58579 9.75 9V10.5C9.75 11.4946 9.35491 12.4484 8.65165 13.1516C7.94839 13.8549 6.99456 14.25 6 14.25C5.00544 14.25 4.05161 13.8549 3.34835 13.1516C2.64509 12.4484 2.25 11.4946 2.25 10.5V9C2.25 8.58579 2.58579 8.25 3 8.25Z" fill="${color}"/>
<path fill-rule="evenodd" clip-rule="evenodd" d="M9 8.25C9.41421 8.25 9.75 8.58579 9.75 9V10.5C9.75 11.0967 9.98705 11.669 10.409 12.091C10.831 12.5129 11.4033 12.75 12 12.75C12.5967 12.75 13.169 12.5129 13.591 12.091C14.0129 11.669 14.25 11.0967 14.25 10.5V9C14.25 8.58579 14.5858 8.25 15 8.25C15.4142 8.25 15.75 8.58579 15.75 9V10.5C15.75 11.4946 15.3549 12.4484 14.6516 13.1516C13.9484 13.8549 12.9946 14.25 12 14.25C11.0054 14.25 10.0516 13.8549 9.34835 13.1516C8.64509 12.4484 8.25 11.4946 8.25 10.5V9C8.25 8.58579 8.58579 8.25 9 8.25Z" fill="${color}"/>
<path fill-rule="evenodd" clip-rule="evenodd" d="M15 8.25C15.4142 8.25 15.75 8.58579 15.75 9V10.5C15.75 11.0967 15.9871 11.669 16.409 12.091C16.831 12.5129 17.4033 12.75 18 12.75C18.5967 12.75 19.169 12.5129 19.591 12.091C20.0129 11.669 20.25 11.0967 20.25 10.5V9C20.25 8.58579 20.5858 8.25 21 8.25C21.4142 8.25 21.75 8.58579 21.75 9V10.5C21.75 11.4946 21.3549 12.4484 20.6517 13.1516C19.9484 13.8549 18.9946 14.25 18 14.25C17.0054 14.25 16.0516 13.8549 15.3484 13.1516C14.6451 12.4484 14.25 11.4946 14.25 10.5V9C14.25 8.58579 14.5858 8.25 15 8.25Z" fill="${color}"/>
</svg>
