
<svg width="32" height="33" viewBox="0 0 32 33" fill="none">
<rect y="0.5" width="32" height="32" rx="16" fill="${color}" fill-opacity="0.1"/>
<path opacity="0.2" d="M13.7539 19.4935C13.9751 20.1215 14.3329 20.6927 14.8014 21.1658C15.2698 21.6389 15.8374 22.0022 16.4632 22.2296C17.089 22.457 17.7575 22.5427 18.4204 22.4807C19.0833 22.4186 19.7242 22.2104 20.297 21.8708L20.297 21.8708L21.8512 22.3148C21.9155 22.3332 21.9835 22.334 22.0483 22.3173C22.113 22.3005 22.1721 22.2667 22.2194 22.2194C22.2667 22.1721 22.3004 22.1131 22.3172 22.0483C22.334 21.9836 22.3332 21.9155 22.3148 21.8512L21.8707 20.297L21.8708 20.2971C22.2653 19.6316 22.4817 18.8758 22.4991 18.1024C22.5165 17.329 22.3342 16.5642 21.9699 15.8817C21.6057 15.1993 21.0716 14.6222 20.4194 14.2062C19.7672 13.7903 19.0188 13.5494 18.2463 13.5069L18.2465 13.5068C18.4845 14.1855 18.5565 14.9113 18.4564 15.6235C18.3564 16.3357 18.0872 17.0136 17.6715 17.6004C17.2557 18.1872 16.7055 18.6659 16.0667 18.9965C15.428 19.327 14.7194 19.4998 14.0002 19.5003C13.9176 19.5003 13.8355 19.4981 13.7539 19.4936V19.4935Z" fill="${color}"/>
<path fill-rule="evenodd" clip-rule="evenodd" d="M14.2478 11.0117C13.2757 10.9509 12.3148 11.247 11.5455 11.8445C10.7763 12.442 10.2516 13.2998 10.0701 14.2568C9.889 15.2112 10.0616 16.1989 10.5556 17.0352C10.6274 17.1522 10.6496 17.2965 10.6103 17.4343L10.228 18.7721L11.5659 18.3899C11.702 18.351 11.8464 18.372 11.9645 18.4443C12.8009 18.9384 13.7887 19.1112 14.7434 18.9301C15.7003 18.7485 16.5581 18.2238 17.1556 17.4546C17.7531 16.6854 18.0493 15.7244 17.9884 14.7523C17.9276 13.7802 17.514 12.8637 16.8252 12.1749C16.1365 11.4862 15.22 11.0726 14.2478 11.0117ZM11.6398 19.4088C12.6447 19.9466 13.8057 20.1258 14.9298 19.9125C16.1261 19.6856 17.1984 19.0297 17.9454 18.068C18.6923 17.1064 19.0625 15.9051 18.9865 14.6898C18.9104 13.4746 18.3933 12.3288 17.5323 11.4678C16.6713 10.6068 15.5256 10.0897 14.3103 10.0137C13.095 9.93762 11.8937 10.3078 10.9321 11.0548C9.97046 11.8018 9.31457 12.8741 9.08761 14.0704C8.87434 15.1945 9.05356 16.3555 9.59137 17.3604L9.20469 18.7137C9.16182 18.8638 9.15985 19.0226 9.19899 19.1736C9.23814 19.3247 9.31696 19.4625 9.4273 19.5728C9.53764 19.6832 9.67548 19.762 9.82653 19.8012C9.97758 19.8403 10.1364 19.8383 10.2864 19.7955L11.6398 19.4088Z" fill="${color}"/>
<path fill-rule="evenodd" clip-rule="evenodd" d="M17.7467 13.4794C17.7619 13.2037 17.9977 12.9924 18.2735 13.0076C19.1317 13.0548 19.9632 13.3225 20.6879 13.7846C21.4126 14.2468 22.0059 14.888 22.4107 15.6462C22.8154 16.4045 23.0179 17.2543 22.9986 18.1136C22.981 18.8995 22.7783 19.6691 22.4085 20.3604L22.7952 21.7138C22.8381 21.8639 22.84 22.0227 22.8009 22.1737C22.7617 22.3248 22.6829 22.4626 22.5726 22.5729C22.4622 22.6833 22.3244 22.7621 22.1733 22.8013C22.0223 22.8404 21.8635 22.8384 21.7135 22.7956L20.36 22.4089C19.7737 22.7224 19.1301 22.9164 18.4666 22.9785C17.7301 23.0474 16.9874 22.9521 16.2921 22.6995C15.5968 22.4469 14.9662 22.0432 14.4457 21.5176C13.9252 20.9919 13.5277 20.3574 13.282 19.6596C13.1902 19.3992 13.327 19.1137 13.5874 19.0219C13.8479 18.9302 14.1334 19.0669 14.2252 19.3274C14.4218 19.8857 14.7398 20.3934 15.1563 20.8139C15.5728 21.2345 16.0773 21.5575 16.6336 21.7596C17.1899 21.9617 17.7841 22.038 18.3735 21.9828C18.9604 21.9279 19.5279 21.744 20.0355 21.4443C20.1536 21.372 20.298 21.3511 20.434 21.39L21.7719 21.7722L21.3896 20.4344C21.3502 20.2964 21.3726 20.1523 21.4442 20.0355C21.7925 19.4456 21.9835 18.7761 21.9989 18.0911C22.0143 17.4036 21.8523 16.7238 21.5285 16.1171C21.2047 15.5105 20.73 14.9975 20.1502 14.6278C19.5704 14.258 18.9051 14.0439 18.2185 14.0061C17.9428 13.9909 17.7316 13.7551 17.7467 13.4794Z" fill="${color}"/>
</svg>