
<svg fill="none" height="32" viewBox="0 0 32 32" width="32">
	<g fill="${color}">
	<path d="m15.3329 3.235-10.08179 2.01636-2.01636 10.08184c-.03228.1614-.02422.3283.02349.4859.04771.1575.13358.3009.24999.4173l13.05657 13.0566c.0929.0928.2031.1665.3244.2168.1214.0502.2514.0761.3827.0761.1314 0 .2614-.0259.3827-.0761.1213-.0503.2316-.124.3244-.2168l11.3137-11.3137c.0929-.0929.1666-.2031.2168-.3244.0503-.1214.0761-.2514.0761-.3827s-.0258-.2614-.0761-.3827c-.0502-.1213-.1239-.2316-.2168-.3244l-13.0566-13.05663c-.1164-.11641-.2597-.20228-.4173-.24999-.1575-.0477-.3244-.05577-.4859-.02348z" opacity=".2"/>
	<path clip-rule="evenodd" d="m15.1368 2.25441c.3229-.06457.6567-.04843.9718.04698.3151.09542.6018.26716.8347.49997l-.7072.70711m-1.0993-1.25406.1955.9776zm-10.0818 2.01637 10.0818-2.01637.1955.9776m-9.23135 2.86918-1.88562 9.42811 13.05657 13.0566 11.3137-11.3137-13.0566-13.05662zm10.84235-3.29983 13.0566 13.05664c.1857.1857.333.4062.4335.6488.1005.2427.1522.5027.1522.7654 0 .2626-.0517.5227-.1522.7653-.1005.2427-.2478.4632-.4335.6489l-11.3138 11.3137c-.1857.1857-.4062.333-.6488.4335-.2427.1006-.5027.1523-.7654.1523-.2626 0-.5227-.0517-.7653-.1523-.2427-.1005-.4632-.2478-.6489-.4335l-13.05658-13.0566c-.23282-.2328-.40456-.5195-.49997-.8346-.09541-.3152-.11155-.649-.04698-.9718l.98058.1961-.98058-.1961 2.01636-10.08186c.07918-.39586.38861-.70529.78447-.78446" fill-rule="evenodd"/>
	<path d="m10.499 12c.8285 0 1.5-.6716 1.5-1.5 0-.82843-.6715-1.5-1.5-1.5-.8284 0-1.49998.67157-1.49998 1.5 0 .8284.67158 1.5 1.49998 1.5z"/>
	</g>
</svg>