
<svg width="16" height="17" viewBox="0 0 16 17" fill="none">
	<path opacity="0.2" fill-rule="evenodd" clip-rule="evenodd" d="M2 11.5H14C14 8.18629 11.3137 5.5 8 5.5C4.68629 5.5 2 8.18629 2 11.5Z" fill="${color}"/>
	<path d="M6.93503 12.67C6.7852 13.4103 7.25231 14.0273 8.01467 14.0405C8.77263 14.0317 9.22652 13.4103 9.0811 12.6656L8.38043 9.00364C8.28348 8.51891 7.72824 8.51891 7.63129 9.00364L6.93503 12.67Z" fill="${color}"/>
	<path fill-rule="evenodd" clip-rule="evenodd" d="M2.5 11.5C2.5 8.46243 4.96243 6 8 6C11.0376 6 13.5 8.46243 13.5 11.5H14.5C14.5 7.91015 11.5899 5 8 5C4.41015 5 1.5 7.91015 1.5 11.5H2.5Z" fill="${color}"/>
</svg>