
<svg fill="none" height="16" viewBox="0 0 16 16" width="16">
	<path d="m8 16c4.4104 0 8-3.5896 8-8 0-4.41035-3.582-8-7.99233-8-.52157 0-.82838.306807-.82838.805369v2.730581c0 .42953.29914.75935.72867.75935s.72867-.32982.72867-.75935v-1.77948c3.16777.32215 5.59927 2.99137 5.59927 6.24353 0 3.4516-2.769 6.2435-6.2359 6.2435-3.46692 0-6.2512-2.7919-6.24353-6.2435.00767-1.45733.5139-2.81496 1.35762-3.87344.32982-.46021.39118-.91275.01534-1.28859-.37583-.3605-.97411-.32215-1.35762.19175-1.096834 1.36529-1.77181 3.09876-1.77181 4.97028 0 4.4104 3.58965 8 8 8zm1.2349-6.78044c.65197-.67498.52157-1.61841-.25312-2.13231l-3.79674-2.58485c-.50623-.33749-.98945.14573-.65196.65196l2.57718 3.79674c.52157.77469 1.45733.92042 2.12464.26846z" fill="${color}"/>
</svg>