
<svg fill="none" height="32" viewBox="0 0 32 32" width="32">
	<g fill="${color}">
	<path d="m16 27c6.0751 0 11-4.9249 11-11 0-6.07513-4.9249-11-11-11-6.07513 0-11 4.92487-11 11 0 6.0751 4.92487 11 11 11z" opacity=".2"/>
	<g clip-rule="evenodd" fill-rule="evenodd">
	<path d="m16 6c-5.5228 0-10 4.4772-10 10s4.4772 10 10 10 10-4.4772 10-10-4.4772-10-10-10zm-12 10c0-6.62742 5.37258-12 12-12 6.6274 0 12 5.37258 12 12 0 6.6274-5.3726 12-12 12-6.62742 0-12-5.3726-12-12z"/>
	<path d="m21.6569 10.3431c.3905.3905.3905 1.0237 0 1.4142l-4.9498 4.9498c-.3905.3905-1.0237.3905-1.4142 0s-.3905-1.0237 0-1.4142l4.9497-4.9498c.3906-.3905 1.0237-.3905 1.4143 0z"/>
	<path d="m12 1c0-.552285.4477-1 1-1h6c.5523 0 1 .447715 1 1 0 .55228-.4477 1-1 1h-6c-.5523 0-1-.44772-1-1z"/>
	</g>
	</g>
</svg>