
<svg width="16" height="14" viewBox="0 0 16 14">
<path d="M3.70898 1.14106L0.516113 4.4101C0.370117 4.5561 0.28125 4.77192 0.28125 4.96869C0.28125 5.41303 0.592285 5.72407 1.03662 5.72407C1.24609 5.72407 1.42383 5.65424 1.56348 5.50825L2.86475 4.15619L3.55664 3.35639L3.51855 4.60688V12.3383C3.51855 12.7827 3.83594 13.1064 4.28027 13.1064C4.71826 13.1064 5.04199 12.7827 5.04199 12.3383V4.60688L4.99756 3.35639L5.68945 4.15619L6.99072 5.50825C7.13037 5.65424 7.30811 5.72407 7.51758 5.72407C7.96191 5.72407 8.27295 5.41303 8.27295 4.96869C8.27295 4.77192 8.18408 4.5561 8.03809 4.4101L4.84521 1.14106C4.52783 0.81098 4.03271 0.804632 3.70898 1.14106ZM12.2847 12.8588L15.4839 9.57709C15.6235 9.4311 15.7188 9.21528 15.7188 9.02485C15.7188 8.58051 15.4014 8.26948 14.9634 8.26948C14.7539 8.26948 14.5698 8.3393 14.4302 8.4853L13.1289 9.83735L12.4434 10.6372L12.4814 9.38032V1.65522C12.4814 1.21723 12.1577 0.893499 11.7197 0.893499C11.2817 0.893499 10.958 1.21723 10.958 1.65522V9.38032L10.9961 10.6372L10.3105 9.83735L9.00928 8.4853C8.86963 8.3393 8.68555 8.26948 8.47607 8.26948C8.03809 8.26948 7.7207 8.58051 7.7207 9.02485C7.7207 9.21528 7.81592 9.4311 7.95557 9.57709L11.1548 12.8588C11.4658 13.1889 11.9673 13.1953 12.2847 12.8588Z" fill="${color}"/>
</svg>