
<svg height="134" viewBox="0 0 133 134" width="133">
<g fill="${color}">
<path d="m80.6475 1.96924c-9.3584-2.334352-19.2059-2.667918-28.788-.59934-.7405.15987-1.2112.88978-1.0514 1.6303.1599.74053.8898 1.21125 1.6303 1.05138 9.1765-1.98102 18.6294-1.65438 27.6208.59918 21.5028 5.38924 39.4008 21.55604 46.2168 42.67424 2.637 8.1671 3.757 16.8634 3.981 25.9774.019.7573.648 1.3562 1.405 1.3376.757-.0187 1.356-.6477 1.338-1.4051-.228-9.239-1.361-18.1591-4.062-26.5957-7.08-22.1092-25.786-39.05642-48.2905-44.66996z"/>
<path d="m44.8983 6.11948c.7303-.20147 1.159-.95682.9575-1.68713-.2014-.7303-.9568-1.15901-1.6871-.95754-10.0209 2.76448-24.1174 12.31669-32.8292 25.07779-.0033.005-.0067.01-.01.015-7.64953 11.5278-12.44468 26.0146-11.105886 40.0719.001275.0134.002746.0267.004414.0401.320853 2.5668.859492 5.1289 1.398762 7.6939 1.1358 5.4025 2.27441 10.8183 1.38693 16.3202-.12065.7479.38786 1.452 1.13577 1.5726.74792.1207 1.45203-.3878 1.57267-1.1357.92771-5.7512-.22422-11.361-1.37637-16.9718-.53284-2.5949-1.06573-5.19-1.39299-7.7995-1.25916-13.2831 3.27626-27.1404 10.6576-38.2673 8.3804-12.2713 21.9508-21.3967 31.2879-23.97252z"/>
<path d="m62.8989 9.18423c17.222-1.05167 34.4405 5.97687 46.0041 19.44217.494.5748.428 1.4408-.147 1.9344-.575.4935-1.441.4277-1.934-.147-10.9968-12.805-27.3818-19.4937-43.7642-18.4907-.0058.0004-.0117.0007-.0175.001-20.7176 1.0024-40.1198 15.0569-47.2563 34.7508-.2581.7122-1.0447 1.0804-1.757.8223-.7122-.2581-1.0804-1.0447-.8223-1.757 7.518-20.7467 27.8915-35.4973 49.6942-36.55597z"/>
<path d="m113.082 34.6191c-.422-.6289-1.275-.7963-1.903-.3739-.629.4223-.797 1.2746-.374 1.9035 6.41 9.5453 9.061 19.9324 10.108 32.2588.065.7549.729 1.3148 1.483 1.2506.755-.0641 1.315-.7281 1.251-1.483-1.071-12.5958-3.804-23.489-10.565-33.556z"/>
<path d="m122.73 73.999c.756-.0472 1.407.5274 1.455 1.2835.517 8.2715.521 17.6299-.394 24.5458-.099.7507-.788 1.2797-1.539 1.1797-.751-.099-1.28-.789-1.18-1.5396.882-6.6656.886-15.8256.375-24.0148-.048-.7561.527-1.4073 1.283-1.4546z"/>
<path d="m13.7126 53.3189c.1778-.7365-.2751-1.4776-1.0115-1.6554s-1.4775.275-1.6553 1.0115c-1.0069 4.1699-1.52953 8.4537-1.55024 12.7414-.02134 4.4194.80264 8.7332 1.62704 13.0486.6743 3.5302 1.3489 7.0615 1.5611 10.6526.2787 4.7173-.7135 9.4414-2.4281 13.9374-.26996.708.085 1.501.7929 1.771s1.5005-.085 1.7705-.793c1.8123-4.7528 2.9109-9.8722 2.6034-15.0772-.2108-3.5665-.8853-7.0773-1.5595-10.5867-.8227-4.2823-1.6451-8.5625-1.6239-12.9394.0197-4.0742.5164-8.1464 1.4736-12.1108z"/>
<path d="m49.7062 22.8362c.2824.703-.0587 1.5018-.7617 1.7841-14.221 5.7109-24.9001 18.5985-27.0787 33.7958-.9102 6.3492.0732 12.6385 1.0562 18.926.5536 3.5409 1.1072 7.0812 1.3224 10.6314.4667 7.6982-.4102 16.1535-5.4202 23.8475-.4134.635-1.2632.814-1.898.401-.6349-.413-.8144-1.263-.401-1.898 4.5647-7.01 5.4287-14.7955 4.9808-22.1844-.2184-3.6022-.7685-7.1836-1.3182-10.7626-.9863-6.4216-1.9716-12.8358-1.0377-19.3502 2.3261-16.2266 13.6996-29.8995 28.772-35.9524.703-.2823 1.5018.0588 1.7841.7618z"/>
<path d="m97.8619 30.6459c-11.219-10.5079-27.4795-14.1754-42.2575-10.934-.74.1623-1.2083.8938-1.046 1.6338s.8938 1.2083 1.6338 1.046c13.9937-3.0694 29.3049.4319 39.7943 10.2565 8.8415 8.2808 13.9755 20.33 15.3195 33.4761.077.7536.75 1.3021 1.504 1.2251.753-.0771 1.302-.7505 1.225-1.5041-1.396-13.6506-6.746-26.3702-16.1731-35.1994z"/>
<path d="m113.748 72.378c.754-.0774 1.427.4708 1.505 1.2244 1.302 12.6843.741 26.3846-1.226 39.6376-.111.75-.809 1.267-1.558 1.156s-1.267-.809-1.156-1.558c1.94-13.0695 2.486-26.537 1.21-38.9553-.077-.7536.471-1.4273 1.225-1.5047z"/>
<path d="m65.9242 27.8778c-21.0201 0-38.099 16.7699-38.099 37.5034 0 2.2147.1965 4.3848.5712 6.4949.1324.7459.8444 1.2432 1.5904 1.1108.7459-.1325 1.2432-.8445 1.1108-1.5904-.3469-1.9537-.529-3.9632-.529-6.0153 0-19.1762 15.8082-34.7599 35.3556-34.7599 8.8336 0 16.9044 3.1838 23.0991 8.4446.5775.4904 1.4431.4199 1.9335-.1576.4904-.5774.4199-1.4431-.1576-1.9335-6.6755-5.6691-15.3713-9.097-24.875-9.097z"/>
<path d="m93.8726 42.0893c.5468-.5244 1.4152-.5062 1.9395.0406 6.0539 6.3128 7.9919 16.2346 9.2739 24.5611 1.444 9.3792 1.665 18.5291 1.665 22.7716 0 .7575-.615 1.3717-1.372 1.3717-.758 0-1.372-.6142-1.372-1.3717 0-4.1738-.218-13.1689-1.633-22.354-1.19-7.7302-2.906-17.2026-8.542-23.0799-.5244-.5468-.5062-1.4151.0406-1.9394z"/>
<path d="m106.402 97.3184c.061-.7552-.503-1.4162-1.258-1.4764s-1.416.5032-1.476 1.2584c-.674 8.4496-1.554 16.8896-3.341 24.6866-.169.738.293 1.474 1.031 1.643.739.169 1.475-.292 1.644-1.03 1.833-8.003 2.725-16.609 3.4-25.0816z"/>
<path d="m30.6043 76.9248c.7433-.1464 1.4646.3375 1.6109 1.0808 2.9004 14.7285.8968 28.1084-6.7838 39.8284-.4153.633-1.2656.811-1.8992.395-.6337-.415-.8107-1.265-.3955-1.899 7.2267-11.027 9.1716-23.6527 6.3868-37.7943-.1464-.7433.3375-1.4646 1.0808-1.6109z"/>
<path d="m65.9242 36.803c-13.6449 0-27.0305 10.5622-28.3968 23.8366-.5981 5.8116.2421 11.536 1.0827 17.2628.734 5.0005 1.4682 10.0028 1.2453 15.0663-.5102 11.5883-3.9104 21.1543-9.7528 29.0333-.4513.609-.3238 1.468.2848 1.919.6085.451 1.4676.324 1.9189-.285 6.1966-8.356 9.7578-18.46 10.2899-30.5466.2219-5.0407-.5146-10.0271-1.2506-15.0102-.8416-5.6984-1.6826-11.3925-1.0892-17.1587 1.2003-11.6614 13.2032-21.3741 25.6678-21.3741 5.8136 0 20.8553 3.148 25.64 18.7347 2.9985 9.7676 3.8163 22.9866 3.09 35.8289-.7261 12.841-2.9851 25.122-6.0227 32.997-.2727.707.0793 1.501.7861 1.774.7069.273 1.5009-.079 1.7735-.786 3.178-8.24 5.4671-20.832 6.2022-33.8301.735-12.9965-.0729-26.5814-3.2064-36.7889-5.3112-17.3018-21.9605-20.673-28.2627-20.673z"/>
<path d="m44.8144 117.836c.6346.414.8135 1.264.3996 1.898-.8506 1.304-1.5989 2.669-2.3472 4.034-.7483 1.364-1.4968 2.729-2.3476 4.033-.4138.635-1.2637.814-1.8983.4-.6345-.414-.8134-1.264-.3995-1.898.8506-1.305 1.5989-2.669 2.3472-4.034.7483-1.364 1.4967-2.729 2.3475-4.033.4139-.635 1.2638-.814 1.8983-.4z"/>
<path d="m56.5601 51.0421c.6297-.4212.7987-1.2731.3775-1.9028s-1.2731-.7987-1.9028-.3776c-5.4318 3.6332-8.7644 8.6292-8.7644 15.948 0 4.3581.7721 7.9203 1.564 11.5739 1.1849 5.4674 1.9886 10.923 1.8442 16.5387-.1754 6.8193-1.5097 13.0507-4.0744 18.9867-.3005.696.0197 1.503.7151 1.803.6955.301 1.5028-.019 1.8033-.715 2.7118-6.276 4.1147-12.855 4.2985-20.0041.1501-5.8355-.6759-11.507-1.9049-17.1894-.7937-3.6696-1.5023-6.9459-1.5023-10.9938 0-6.2708 2.7587-10.4654 7.5462-13.6676z"/>
<path d="m61.914 46.2225c5.6921-1.1604 11.8175.2735 16.3261 3.9227 8.0533 6.5183 9.1243 18.4055 9.9922 28.0381l.0443.4907c1.1215 12.4168-.1623 24.477-2.7484 36.589-.1582.741-.887 1.213-1.6279 1.055s-1.2133-.887-1.0551-1.628c2.5474-11.93 3.7889-23.7035 2.6991-35.7692-.0361-.3995-.072-.8046-.1083-1.2146l-.0006-.006c-.7709-8.7048-1.7364-19.6072-8.9213-25.4225-3.8546-3.1199-9.1413-4.3682-14.0521-3.367-.7423.1513-1.4668-.3278-1.6181-1.0701s.3277-1.4668 1.0701-1.6181z"/>
<path d="m83.5894 122.089c.187-.734-.2567-1.481-.9909-1.668-.7341-.187-1.4808.257-1.6677.991-.8293 3.257-2.1071 6.197-3.7273 8.904-.3891.65-.1775 1.493.4725 1.882.6501.389 1.4925.177 1.8815-.473 1.7461-2.917 3.1322-6.102 4.0319-9.636z"/>
<path d="m76.8816 102.183c.7523.089 1.2901.771 1.201 1.523-1.2955 10.948-4.2203 20.712-8.9133 29.18-.3672.663-1.2021.902-1.8647.535-.6627-.367-.9022-1.202-.535-1.865 4.4914-8.104 7.3272-17.513 8.5886-28.172.089-.753.7711-1.291 1.5234-1.201z"/>
<path d="m76.5989 63.9903c-.951-5.0814-5.3122-8.9684-10.6068-8.9684-7.1695 0-12.1997 7.2267-10.4271 13.9503 2.9993 11.8683 3.4917 23.3068 1.4613 34.3238l-.0015.008c-1.762 9.891-5.1456 18.79-9.7611 26.33-.3955.646-.1923 1.49.4538 1.886.6462.395 1.4906.192 1.8861-.454 4.8043-7.849 8.303-17.071 10.1214-27.277 2.1082-11.4419 1.5858-23.2814-1.502-35.4961l-.0037-.0144c-1.3296-5.0294 2.3765-10.5131 7.7728-10.5131 3.8943 0 7.1824 2.8648 7.9084 6.7203 1.9967 11.5814 3.0366 22.3211 2.2962 31.5679-.0605.7552.5026 1.4164 1.2578 1.4769.7552.0604 1.4164-.5027 1.4769-1.2579.7675-9.5844-.3159-20.5885-2.329-32.263-.0011-.0065-.0023-.0129-.0035-.0193z"/>
<path d="m61.899 123.401c.6738.346.9393 1.173.5931 1.847l-3.6348 7.073c-.3462.674-1.1732.94-1.847.593-.6738-.346-.9394-1.173-.5931-1.847l3.6347-7.073c.3463-.674 1.1732-.939 1.8471-.593z"/>
<path d="m67.0123 65.313c-.1732-.7375-.9115-1.1949-1.649-1.0216-.7376.1732-1.195.9115-1.0217 1.649 4.6258 19.6913 3.9905 36.9816-1.644 51.7116-.2707.707.0835 1.5.7911 1.771s1.5006-.083 1.7712-.791c5.875-15.358 6.4722-33.228 1.7524-53.319z"/>
</g>
</svg>