
<svg width="17" height="16" viewBox="0 0 17 16" fill="none">
<path fill-rule="evenodd" clip-rule="evenodd" d="M5 2.5C5.27614 2.5 5.5 2.7052 5.5 2.95833V13.0417C5.5 13.2948 5.27614 13.5 5 13.5C4.72386 13.5 4.5 13.2948 4.5 13.0417V2.95833C4.5 2.7052 4.72386 2.5 5 2.5Z" fill="${color}"/>
<path fill-rule="evenodd" clip-rule="evenodd" d="M4.64645 2.64645C4.84171 2.45118 5.15829 2.45118 5.35355 2.64645L8.35355 5.64645C8.54882 5.84171 8.54882 6.15829 8.35355 6.35355C8.15829 6.54882 7.84171 6.54882 7.64645 6.35355L5 3.70711L2.35355 6.35355C2.15829 6.54882 1.84171 6.54882 1.64645 6.35355C1.45118 6.15829 1.45118 5.84171 1.64645 5.64645L4.64645 2.64645Z" fill="${color}"/>
<path fill-rule="evenodd" clip-rule="evenodd" d="M12 13.5C11.7239 13.5 11.5 13.2948 11.5 13.0417L11.5 2.95833C11.5 2.7052 11.7239 2.5 12 2.5C12.2761 2.5 12.5 2.7052 12.5 2.95833L12.5 13.0417C12.5 13.2948 12.2761 13.5 12 13.5Z" fill="${color}"/>
<path fill-rule="evenodd" clip-rule="evenodd" d="M12.3536 13.3536C12.1583 13.5488 11.8417 13.5488 11.6464 13.3536L8.64645 10.3536C8.45119 10.1583 8.45119 9.84171 8.64645 9.64645C8.84171 9.45118 9.15829 9.45118 9.35355 9.64645L12 12.2929L14.6464 9.64645C14.8417 9.45118 15.1583 9.45118 15.3536 9.64645C15.5488 9.84171 15.5488 10.1583 15.3536 10.3536L12.3536 13.3536Z" fill="${color}"/>
</svg>