
<svg width="16" height="16" viewBox="0 0 16 16" fill="none">
	<path opacity="0.2" d="M12.4995 3.5V13C12.4995 13.1326 12.4468 13.2598 12.3531 13.3536C12.2593 13.4473 12.1321 13.5 11.9995 13.5H3.99951C3.8669 13.5 3.73973 13.4473 3.64596 13.3536C3.55219 13.2598 3.49951 13.1326 3.49951 13V3.5L12.4995 3.5Z" fill="${color}"/>
	<path fill-rule="evenodd" clip-rule="evenodd" d="M2.49951 3L13.4995 3C13.7757 3 13.9995 3.22386 13.9995 3.5C13.9995 3.77614 13.7757 4 13.4995 4L2.49951 4C2.22337 4 1.99951 3.77615 1.99951 3.5C1.99951 3.22386 2.22337 3 2.49951 3Z" fill="${color}"/>
	<path fill-rule="evenodd" clip-rule="evenodd" d="M6.5 6C6.77614 6 7 6.22386 7 6.5V10.5C7 10.7761 6.77614 11 6.5 11C6.22386 11 6 10.7761 6 10.5V6.5C6 6.22386 6.22386 6 6.5 6Z" fill="${color}"/>
	<path fill-rule="evenodd" clip-rule="evenodd" d="M9.5 6C9.77614 6 10 6.22386 10 6.5V10.5C10 10.7761 9.77614 11 9.5 11C9.22386 11 9 10.7761 9 10.5V6.5C9 6.22386 9.22386 6 9.5 6Z" fill="${color}"/>
	<path fill-rule="evenodd" clip-rule="evenodd" d="M3.49951 3C3.77565 3 3.99951 3.22386 3.99951 3.5V13H11.9995V3.5C11.9995 3.22386 12.2234 3 12.4995 3C12.7757 3 12.9995 3.22386 12.9995 3.5V13C12.9995 13.2652 12.8942 13.5196 12.7066 13.7071C12.5191 13.8946 12.2647 14 11.9995 14H3.99951C3.7343 14 3.47994 13.8946 3.29241 13.7071C3.10487 13.5196 2.99951 13.2652 2.99951 13V3.5C2.99951 3.22386 3.22337 3 3.49951 3Z" fill="${color}"/>
	<path fill-rule="evenodd" clip-rule="evenodd" d="M5.43934 1.43934C5.72064 1.15804 6.10218 1 6.5 1H9.5C9.89782 1 10.2794 1.15804 10.5607 1.43934C10.842 1.72064 11 2.10217 11 2.5V3.5C11 3.77614 10.7761 4 10.5 4C10.2239 4 10 3.77614 10 3.5V2.5C10 2.36739 9.94732 2.24021 9.85355 2.14645C9.75979 2.05268 9.63261 2 9.5 2H6.5C6.36739 2 6.24022 2.05268 6.14645 2.14645C6.05268 2.24021 6 2.36739 6 2.5V3.5C6 3.77614 5.77614 4 5.5 4C5.22386 4 5 3.77614 5 3.5V2.5C5 2.10217 5.15804 1.72064 5.43934 1.43934Z" fill="${color}"/>
</svg>