
<svg viewBox="0 0 51 51">
    <rect y="0.5" width="50" height="50" rx="25" fill="#FF4400" />
    <path
        d="M18.9517 49.7573L24.9997 25.4999L31.0478 1.24248C44.4448 4.58272 52.5974 18.1509 49.2571 31.5479C45.9169 44.9449 32.3487 53.0975 18.9517 49.7573Z"
        fill="#B95CE8" />
    <path
        d="M34.3219 22.2481C34.7445 19.4222 32.5932 17.9036 29.6521 16.8903L30.606 13.0628L28.2769 12.4821L27.3479 16.2087C26.7349 16.056 26.1065 15.912 25.4812 15.7696L26.4161 12.0182L24.0886 11.4375L23.1336 15.2644C22.6267 15.1488 22.1293 15.0349 21.646 14.9146L21.6484 14.9028L18.4363 14.1006L17.8165 16.5889C17.8165 16.5889 19.5446 16.985 19.5081 17.0097C20.4516 17.2454 20.6217 17.8697 20.5934 18.3646L19.5069 22.725C19.5718 22.7418 19.6558 22.7651 19.749 22.8029C19.6711 22.7834 19.5883 22.7625 19.5031 22.7418L17.9799 28.8496C17.8643 29.1363 17.5715 29.5666 16.9122 29.4032C16.9355 29.4368 15.2183 28.9806 15.2183 28.9806L14.0625 31.647L17.0936 32.4029C17.657 32.5441 18.2105 32.6916 18.7542 32.8314L17.7909 36.7028L20.1175 37.2835L21.072 33.4534C21.7083 33.6256 22.3251 33.7852 22.9289 33.9353L21.9778 37.7474L24.3071 38.3281L25.2712 34.4641C29.2437 35.2155 32.2309 34.9123 33.4875 31.3193C34.5009 28.4261 33.4374 26.7572 31.3475 25.6686C32.8692 25.3177 34.0162 24.3161 34.3219 22.2481ZM29.0002 29.7129C28.2796 32.6064 23.4098 31.0421 21.83 30.6496L23.1091 25.5212C24.688 25.9149 29.7521 26.6952 29.0002 29.7129ZM29.7196 22.2065C29.0633 24.8384 25.0094 23.501 23.6944 23.173L24.8537 18.5215C26.1685 18.8495 30.404 19.4614 29.7196 22.2065Z"
        fill="white" />
</svg>
