
<svg width="32" height="32" viewBox="0 0 32 32" fill="none">
<rect width="32" height="32" rx="16" fill="white" fill-opacity="0.1"/>
<path d="M13.6675 10.9699V9H14.5405V10.9699H13.6675ZM15.6575 10.9699V9H16.5453V10.9699H15.6575ZM13.6675 23V21.0301H14.5405V23H13.6675ZM15.6575 23V21.0301H16.5453V23H15.6575ZM11.5 21.6015V10.3985H15.9091C16.7179 10.3985 17.3935 10.5213 17.936 10.7669C18.4785 11.0125 18.8854 11.3509 19.1567 11.782C19.4328 12.213 19.5709 12.7093 19.5709 13.2707C19.5709 13.7068 19.4822 14.0902 19.3046 14.4211C19.132 14.7519 18.8953 15.0226 18.5944 15.2331C18.2985 15.4436 17.9582 15.5915 17.5735 15.6767V15.7895C17.9927 15.8095 18.3873 15.9298 18.7572 16.1504C19.1271 16.3709 19.4254 16.6817 19.6523 17.0827C19.8841 17.4787 20 17.9524 20 18.5038C20 19.0952 19.8545 19.6266 19.5635 20.0977C19.2775 20.5639 18.8534 20.9323 18.2911 21.203C17.7289 21.4687 17.0335 21.6015 16.205 21.6015H11.5ZM13.8229 19.6692H15.7315C16.3776 19.6692 16.8486 19.5414 17.1445 19.2857C17.4453 19.0301 17.5957 18.6917 17.5957 18.2707C17.5957 17.9599 17.5218 17.6867 17.3738 17.4511C17.2308 17.2105 17.0236 17.0226 16.7524 16.8872C16.4811 16.7519 16.1581 16.6842 15.7833 16.6842H13.8229V19.6692ZM13.8229 15.0902H15.554C15.8745 15.0902 16.1581 15.0326 16.4047 14.9173C16.6562 14.802 16.8535 14.6391 16.9965 14.4286C17.1395 14.213 17.2111 13.9574 17.2111 13.6617C17.2111 13.2607 17.0705 12.9373 16.7894 12.6917C16.5132 12.4411 16.1162 12.3158 15.5983 12.3158H13.8229V15.0902Z" fill="${color}"/>
</svg>