
<svg fill="none" height="32" viewBox="0 0 32 32" width="32">
	<rect fill="#fff" fill-opacity="0.10" height="32" rx="16" width="32"/>
	<g fill="${color}">
		<path d="m16 22c3.3137 0 6-2.6863 6-6s-2.6863-6-6-6-6 2.6863-6 6 2.6863 6 6 6z" opacity=".2"/>
		<path clip-rule="evenodd" d="m16 10.5c-3.0376 0-5.5 2.4624-5.5 5.5s2.4624 5.5 5.5 5.5 5.5-2.4624 5.5-5.5-2.4624-5.5-5.5-5.5zm-6.5 5.5c0-3.5899 2.9101-6.5 6.5-6.5s6.5 2.9101 6.5 6.5-2.9101 6.5-6.5 6.5-6.5-2.9101-6.5-6.5z" fill-rule="evenodd"/>
		<path clip-rule="evenodd" d="m9.8418 14c0-.2761.2239-.5.5-.5h11.3166c.2761 0 .5.2239.5.5s-.2239.5-.5.5h-11.3166c-.2761 0-.5-.2239-.5-.5z" fill-rule="evenodd"/>
		<path clip-rule="evenodd" d="m9.8418 18c0-.2761.2239-.5.5-.5h11.3165c.2761 0 .5.2239.5.5s-.2239.5-.5.5h-11.3165c-.2761 0-.5-.2239-.5-.5z" fill-rule="evenodd"/>
		<path clip-rule="evenodd" d="m14.6919 12.0681c-.42.9808-.6919 2.3706-.6919 3.932 0 1.5613.2719 2.9511.6919 3.9319.2103.4913.448.8569.6864 1.0924.2362.2334.4458.3146.6217.3146s.3855-.0812.6217-.3146c.2384-.2355.4761-.6011.6864-1.0924.42-.9808.6919-2.3706.6919-3.9319 0-1.5614-.2719-2.9512-.6919-3.932-.2103-.4913-.448-.8569-.6864-1.0924-.2362-.2334-.4458-.3146-.6217-.3146s-.3855.0812-.6217.3146c-.2384.2355-.4761.6011-.6864 1.0924zm-.0164-1.8038c.3619-.35755.8101-.60317 1.3245-.60317s.9626.24562 1.3245.60317c.3598.3554.6609.8449.9029 1.4102.4849 1.1325.7726 2.6622.7726 4.3256s-.2877 3.193-.7726 4.3255c-.242.5654-.5431 1.0548-.9029 1.4103-.3619.3575-.8101.6031-1.3245.6031s-.9626-.2456-1.3245-.6031c-.3598-.3555-.6609-.8449-.9029-1.4103-.4849-1.1325-.7726-2.6621-.7726-4.3255s.2877-3.1931.7726-4.3256c.242-.5653.5431-1.0548.9029-1.4102z" fill-rule="evenodd"/>
	</g>
</svg>