
<svg fill="none" height="32" viewBox="0 0 32 32" width="32">
	<g fill="${color}">
	<path d="m16 20c4.4183 0 8-3.5817 8-8 0-4.41828-3.5817-8-8-8s-8 3.58172-8 8c0 4.4183 3.5817 8 8 8z" opacity=".2"/>
	<g clip-rule="evenodd" fill-rule="evenodd">
	<path d="m21 7c0-.55228.4477-1 1-1h6c.5523 0 1 .44772 1 1s-.4477 1-1 1h-6c-.5523 0-1-.44772-1-1z"/>
	<path d="m16.0001 21c-2.2822 0-4.5242.6005-6.5008 1.7413-1.97659 1.1408-3.61818 2.7817-4.75984 4.7578-.27628.4782-.88792.6419-1.36613.3656s-.64191-.8879-.36563-1.3661c1.31724-2.28 3.21128-4.1732 5.49186-5.4895 2.28054-1.3162 4.86734-2.0091 7.50054-2.0091s5.22.693 7.5005 2.0093c2.2806 1.3163 4.1746 3.2095 5.4918 5.4895.2762.4783.1125 1.0899-.3657 1.3662-.4782.2762-1.0899.1125-1.3661-.3657-1.1416-1.9761-2.7832-3.617-4.7598-4.7578-1.9765-1.1409-4.2185-1.7415-6.5007-1.7415z"/>
	<path d="m17.6172 5.18753c-1.4126-.33395-2.8942-.21991-4.239.3263-1.3449.5462-2.4864 1.49749-3.2662 2.72185-.77973 1.22435-1.15903 2.66102-1.08526 4.11072s.59696 2.8405 1.49696 3.9794 2.1322 1.9694 3.5256 2.3762c1.3934.4069 2.8788.3699 4.2503-.1057 1.3714-.4756 2.5608-1.3663 3.4031-2.5486.8422-1.1822 1.2956-2.5972 1.2972-4.0488.0007-.5523.4489-.9995 1.0012-.9989.5522.0006.9995.4488.9988 1.0011-.002 1.8668-.5851 3.6867-1.6684 5.2072-1.0832 1.5204-2.6128 2.6659-4.3766 3.2776s-3.6742.6592-5.4662.1359c-1.792-.5232-3.3767-1.5913-4.53416-3.056-1.15748-1.4647-1.83034-3.2533-1.92522-5.1177-.09487-1.8644.39294-3.71216 1.39575-5.28677 1.00282-1.57462 2.47093-2.79804 4.20053-3.50051 1.7296-.70246 3.635-.84912 5.4518-.41964.5374.12706.8701.66577.7431 1.20324-.1271.53747-.6658.87017-1.2033.74311z"/>
	</g>
	</g>
</svg>