
<svg width="24" height="24" viewBox="0 0 24 24" fill="none">
	<path opacity="0.2" d="M19.5 3.75H4.5C4.30109 3.75 4.11032 3.82902 3.96967 3.96967C3.82902 4.11032 3.75 4.30109 3.75 4.5V19.5C3.75 19.6989 3.82902 19.8897 3.96967 20.0303C4.11032 20.171 4.30109 20.25 4.5 20.25H19.5C19.6989 20.25 19.8897 20.171 20.0303 20.0303C20.171 19.8897 20.25 19.6989 20.25 19.5V4.5C20.25 4.30109 20.171 4.11032 20.0303 3.96967C19.8897 3.82902 19.6989 3.75 19.5 3.75ZM5.41727 20.25C5.75765 18.7587 6.59428 17.4271 7.79017 16.4734C8.98606 15.5196 10.4703 15.0001 12 15C11.2583 15 10.5333 14.7801 9.91661 14.368C9.29993 13.956 8.81928 13.3703 8.53545 12.6851C8.25162 11.9998 8.17736 11.2458 8.32205 10.5184C8.46675 9.79098 8.8239 9.1228 9.34835 8.59835C9.8728 8.0739 10.541 7.71675 11.2684 7.57205C11.9958 7.42736 12.7498 7.50162 13.4351 7.78545C14.1203 8.06928 14.706 8.54993 15.118 9.16661C15.5301 9.7833 15.75 10.5083 15.75 11.25C15.75 12.2446 15.3549 13.1984 14.6516 13.9016C13.9484 14.6049 12.9946 15 12 15C13.5297 15.0001 15.0139 15.5196 16.2098 16.4734C17.4057 17.4271 18.2424 18.7587 18.5827 20.25H5.41727Z" fill="${color}"/>
	<path fill-rule="evenodd" clip-rule="evenodd" d="M12 8.25C10.3431 8.25 9 9.59315 9 11.25C9 12.9069 10.3431 14.25 12 14.25C13.6569 14.25 15 12.9069 15 11.25C15 9.59315 13.6569 8.25 12 8.25ZM7.5 11.25C7.5 8.76472 9.51472 6.75 12 6.75C14.4853 6.75 16.5 8.76472 16.5 11.25C16.5 13.7353 14.4853 15.75 12 15.75C9.51472 15.75 7.5 13.7353 7.5 11.25Z" fill="${color}"/>
	<path fill-rule="evenodd" clip-rule="evenodd" d="M3 4.5C3 3.67157 3.67157 3 4.5 3H19.5C20.3284 3 21 3.67157 21 4.5V19.5C21 20.3284 20.3284 21 19.5 21H4.5C3.67157 21 3 20.3284 3 19.5V4.5ZM19.5 4.5H4.5V19.5H19.5V4.5Z" fill="${color}"/>
	<path fill-rule="evenodd" clip-rule="evenodd" d="M11.9999 15.75C10.6401 15.75 9.32066 16.2117 8.25758 17.0596C7.19451 17.9074 6.45084 19.0911 6.14837 20.4168C6.05623 20.8206 5.65416 21.0733 5.25032 20.9812C4.84649 20.8891 4.59381 20.487 4.68595 20.0831C5.06401 18.4261 5.99354 16.9466 7.3223 15.8869C8.65106 14.8271 10.3003 14.25 11.9999 14.25C13.6995 14.25 15.3487 14.8271 16.6775 15.8869C18.0062 16.9466 18.9358 18.4261 19.3138 20.0831C19.406 20.487 19.1533 20.8891 18.7495 20.9812C18.3456 21.0733 17.9436 20.8206 17.8514 20.4168C17.5489 19.0911 16.8053 17.9074 15.7422 17.0596C14.6791 16.2117 13.3597 15.75 11.9999 15.75Z" fill="${color}"/>
</svg>