
<svg fill="none" height="32" viewBox="0 0 32 32" width="32">
	<g fill="${color}">
		<path d="m11 20c3.5899 0 6.5-2.9101 6.5-6.5 0-3.58985-2.9101-6.5-6.5-6.5-3.58985 0-6.5 2.91015-6.5 6.5 0 3.5899 2.91015 6.5 6.5 6.5z" opacity=".2"/>
		<g clip-rule="evenodd" fill-rule="evenodd">
			<path d="m11 8c-3.03757 0-5.5 2.4624-5.5 5.5s2.46243 5.5 5.5 5.5c3.0376 0 5.5-2.4624 5.5-5.5s-2.4624-5.5-5.5-5.5zm-7.5 5.5c0-4.14214 3.35786-7.5 7.5-7.5 4.1421 0 7.5 3.35786 7.5 7.5 0 4.1421-3.3579 7.5-7.5 7.5-4.14214 0-7.5-3.3579-7.5-7.5z"/>
			<path d="m22.0245 8.06228c-.7769-.11931-1.5703-.07075-2.3268.14239-.5316.14978-1.0839-.15974-1.2337-.69133s.1597-1.08394.6913-1.23372c1.0316-.29064 2.1134-.35685 3.1727-.19417s2.0715.55047 2.9683 1.13726c.8968.58678 1.6574 1.35893 2.2307 2.26444.5732.90555.9458 1.92335 1.0926 2.98495.1467 1.0616.0643 2.1424-.2418 3.1694-.3061 1.0271-.8287 1.9767-1.5327 2.7848-.704.808-1.5729 1.4559-2.5484 1.8998-.9754.444-2.0346.6738-3.1064.6739-.5522.0001-1-.4476-1.0001-.9999 0-.5522.4476-1 .9999-1.0001.786-.0001 1.5628-.1686 2.2781-.4942s1.3526-.8007 1.8689-1.3933c.5162-.5926.8995-1.289 1.124-2.0422s.2849-1.5458.1773-2.3243-.3809-1.525-.8013-2.1891c-.4204-.66402-.9782-1.23028-1.6359-1.66061-.6576-.43032-1.3999-.71471-2.1767-.83401z"/>
			<path d="m10.9997 21c-1.60466.0001-3.18579.3862-4.60986 1.1259-1.42408.7396-2.64928 1.8111-3.57218 3.1238-.31763.4518-.94138.5606-1.39319.243-.451802-.3177-.560573-.9414-.24294-1.3932 1.10744-1.5753 2.57763-2.861 4.28645-3.7485 1.70882-.8876 3.60611-1.3509 5.53172-1.351 1.9255-.0001 3.8229.4632 5.5317 1.3506 1.7089.8874 3.1792 2.173 4.2868 3.7481.3177.4518.2089 1.0756-.2429 1.3932-.4517.3177-1.0755.209-1.3932-.2428-.923-1.3127-2.1482-2.384-3.5724-3.1236-1.4241-.7395-3.0053-1.1256-4.61-1.1255z"/>
			<path d="m25.8011 22.1239c-1.424-.7396-3.0053-1.1251-4.6099-1.1239-.5523.0004-1.0004-.447-1.0008-.9993s.447-1.0003.9993-1.0007c1.926-.0014 3.8239.4613 5.5332 1.349 1.7092.8876 3.1794 2.174 4.286 3.7503.3173.452.2082 1.0757-.2438 1.393-.4521.3174-1.0757.2082-1.3931-.2438-.922-1.3133-2.1469-2.3851-3.5709-3.1246z"/>
		</g>
	</g>
</svg>