
<svg fill="none" height="32" viewBox="0 0 32 32" width="32">
	<g fill="${color}">
	<path d="m16 20c4.4183 0 8-3.5817 8-8 0-4.41828-3.5817-8-8-8s-8 3.58172-8 8c0 4.4183 3.5817 8 8 8z" opacity=".2"/>
	<g clip-rule="evenodd" fill-rule="evenodd">
	<path d="m16 5c-3.866 0-7 3.13401-7 7 0 3.866 3.134 7 7 7s7-3.134 7-7c0-3.86599-3.134-7-7-7zm-9 7c0-4.97056 4.0294-9 9-9s9 4.02944 9 9c0 4.9706-4.0294 9-9 9s-9-4.0294-9-9z"/>
	<path d="m16.0001 21c-2.2822 0-4.5242.6005-6.5008 1.7413-1.97659 1.1408-3.61818 2.7817-4.75984 4.7578-.27628.4782-.88792.6419-1.36613.3656s-.64191-.8879-.36563-1.3661c1.31724-2.28 3.21128-4.1732 5.49186-5.4895 2.28054-1.3162 4.86734-2.0091 7.50054-2.0091s5.22.693 7.5005 2.0093c2.2806 1.3163 4.1746 3.2095 5.4918 5.4895.2762.4783.1125 1.0899-.3657 1.3662-.4782.2762-1.0899.1125-1.3661-.3657-1.1416-1.9761-2.7832-3.617-4.7598-4.7578-1.9765-1.1409-4.2185-1.7415-6.5007-1.7415z"/>
	</g>
	</g>
</svg>