
<svg fill="none" height="32" viewBox="0 0 32 32" width="32">
	<g fill="${color}">
	<path d="m16 20c4.4183 0 8-3.5817 8-8 0-4.41828-3.5817-8-8-8s-8 3.58172-8 8c0 4.4183 3.5817 8 8 8z" opacity=".2"/>
	<g clip-rule="evenodd" fill-rule="evenodd">
	<path d="m21 7c0-.55228.4477-1 1-1h6c.5523 0 1 .44772 1 1s-.4477 1-1 1h-6c-.5523 0-1-.44772-1-1z"/>
	<path d="m25 3c.5523 0 1 .44772 1 1v6c0 .5523-.4477 1-1 1s-1-.4477-1-1v-6c0-.55228.4477-1 1-1z"/>
	<path d="m16.0001 21c-2.2822 0-4.5242.6005-6.5008 1.7413-1.97659 1.1408-3.61818 2.7817-4.75984 4.7578-.27628.4782-.88792.6419-1.36613.3656s-.64191-.8879-.36563-1.3661c1.31724-2.28 3.21128-4.1732 5.49186-5.4895 2.28054-1.3162 4.86734-2.0091 7.50054-2.0091s5.22.693 7.5005 2.0093c2.2806 1.3163 4.1746 3.2095 5.4918 5.4895.2762.4783.1125 1.0899-.3657 1.3662-.4782.2762-1.0899.1125-1.3661-.3657-1.1416-1.9761-2.7832-3.617-4.7598-4.7578-1.9765-1.1409-4.2185-1.7415-6.5007-1.7415z"/>
	<path d="m17.6173 5.18755c-1.311-.30984-2.6836-.23456-3.9529.21678s-2.3812 1.25955-3.2023 2.32753c-.82109 1.06799-1.31635 2.35034-1.4263 3.69294-.10995 1.3427.17008 2.6885.80646 3.8758.63634 1.1874 1.60204 2.1657 2.78094 2.8175 1.179.6519 2.521.9495 3.865.857 1.3439-.0924 2.6326-.5709 3.7112-1.3779 1.0787-.8071 1.9013-1.9084 2.3692-3.1717.1918-.5179.7671-.7822 1.285-.5904s.7823.7672.5905 1.2851c-.6017 1.6244-1.6595 3.0406-3.0465 4.0783-1.3869 1.0378-3.0441 1.6531-4.7722 1.7719-1.7282.1189-3.4539-.2638-4.9699-1.102s-2.7577-2.0962-3.57601-3.623-1.17841-3.2573-1.03702-4.9838.77824-3.37543 1.83405-4.74874c1.0558-1.3733 2.48568-2.41257 4.11778-2.99294 1.6322-.58037 3.3972-.67717 5.083-.27875.5374.12702.8702.6657.7432 1.20318-.1271.53748-.6657.87022-1.2032.7432z"/>
	</g>
	</g>
</svg>