<svg width="16" height="17" viewBox="0 0 16 17" fill="none" xmlns="http://www.w3.org/2000/svg">
<path opacity="0.2" d="M1.5 4.25H9.5C10.0304 4.25 10.5391 4.46071 10.9142 4.83579C11.2893 5.21086 11.5 5.71957 11.5 6.25V12.25C11.5 12.3826 11.4473 12.5098 11.3536 12.6036C11.2598 12.6973 11.1326 12.75 11 12.75H3C2.46957 12.75 1.96086 12.5393 1.58579 12.1642C1.21071 11.7891 1 11.2804 1 10.75V4.75C1 4.61739 1.05268 4.49021 1.14645 4.39645C1.24021 4.30268 1.36739 4.25 1.5 4.25V4.25Z" fill="white"/>
<path fill-rule="evenodd" clip-rule="evenodd" d="M0.792893 4.04289C0.980429 3.85536 1.23478 3.75 1.5 3.75H9.5C10.163 3.75 10.7989 4.01339 11.2678 4.48223C11.7366 4.95107 12 5.58696 12 6.25V12.25C12 12.5152 11.8946 12.7696 11.7071 12.9571C11.5196 13.1446 11.2652 13.25 11 13.25H3C2.33696 13.25 1.70107 12.9866 1.23223 12.5178C0.763392 12.0489 0.5 11.413 0.5 10.75V4.75C0.5 4.48478 0.605357 4.23043 0.792893 4.04289ZM1.5 4.75V10.75C1.5 11.1478 1.65804 11.5294 1.93934 11.8107C2.22064 12.092 2.60218 12.25 3 12.25H11V6.25C11 5.85218 10.842 5.47064 10.5607 5.18934C10.2794 4.90804 9.89783 4.75 9.5 4.75L1.5 4.75Z" fill="white"/>
<path fill-rule="evenodd" clip-rule="evenodd" d="M15.251 5.06754C15.4052 5.15701 15.5001 5.32176 15.5001 5.5V11.5C15.5001 11.6782 15.4052 11.843 15.251 11.9325C15.0969 12.0219 14.9068 12.0226 14.752 11.9341L11.252 9.93412C11.0123 9.79712 10.929 9.49169 11.066 9.25193C11.203 9.01217 11.5084 8.92887 11.7482 9.06588L14.5001 10.6384V6.36159L11.7482 7.93412C11.5084 8.07113 11.203 7.98783 11.066 7.74807C10.929 7.50831 11.0123 7.20288 11.252 7.06588L14.752 5.06588C14.9068 4.97745 15.0969 4.97808 15.251 5.06754Z" fill="white"/>
</svg>
