
<svg width="25" height="24" viewBox="0 0 25 24" fill="none">
	<path opacity="0.2" d="M11.2018 3.74857L2.95399 17.9978C2.82201 18.2259 2.75242 18.4846 2.7522 18.748C2.75198 19.0115 2.82115 19.2703 2.95275 19.4986C3.08434 19.7268 3.27373 19.9163 3.50184 20.0481C3.72996 20.1799 3.98876 20.2493 4.2522 20.2493H20.7477C21.0112 20.2493 21.27 20.1799 21.4981 20.0481C21.7262 19.9163 21.9156 19.7268 22.0472 19.4986C22.1788 19.2703 22.248 19.0115 22.2478 18.748C22.2475 18.4846 22.1779 18.2258 22.046 17.9978L13.7982 3.74857C13.6664 3.52093 13.4771 3.33193 13.2493 3.20055C13.0214 3.06916 12.763 3 12.5 3C12.2369 3 11.9785 3.06916 11.7507 3.20055C11.5228 3.33193 11.3335 3.52093 11.2018 3.74857Z" fill="${color}"/>
	<path fill-rule="evenodd" clip-rule="evenodd" d="M12.5 8.25C12.9142 8.25 13.25 8.58579 13.25 9V13.5C13.25 13.9142 12.9142 14.25 12.5 14.25C12.0858 14.25 11.75 13.9142 11.75 13.5V9C11.75 8.58579 12.0858 8.25 12.5 8.25Z" fill="${color}"/>
	<path d="M12.5 18C13.1213 18 13.625 17.4963 13.625 16.875C13.625 16.2537 13.1213 15.75 12.5 15.75C11.8787 15.75 11.375 16.2537 11.375 16.875C11.375 17.4963 11.8787 18 12.5 18Z" fill="${color}"/>
	<path fill-rule="evenodd" clip-rule="evenodd" d="M11.376 2.55082C11.7178 2.35374 12.1054 2.25 12.5 2.25C12.8945 2.25 13.2821 2.35374 13.6239 2.55082C13.9657 2.7479 14.2496 3.03139 14.4473 3.37285L13.8038 3.74533L14.4473 3.37285L22.6951 17.6221C22.893 17.9641 22.9974 18.3522 22.9978 18.7474C22.9981 19.1426 22.8943 19.5309 22.6969 19.8732C22.4995 20.2155 22.2155 20.4999 21.8733 20.6975C21.5311 20.8952 21.1429 20.9993 20.7477 20.9993H4.2522C3.85703 20.9993 3.46883 20.8952 3.12666 20.6975C2.78449 20.4999 2.50042 20.2155 2.30302 19.8732C2.10563 19.5309 2.00187 19.1426 2.0022 18.7474C2.00252 18.3522 2.10692 17.9641 2.30488 17.6221L10.5527 3.37285L11.2127 3.75488L10.5527 3.37285C10.7503 3.03139 11.0343 2.7479 11.376 2.55082ZM12.5 3.75C12.3685 3.75 12.2393 3.78458 12.1253 3.85027C12.0114 3.91597 11.9168 4.01046 11.8509 4.12428L3.60309 18.3736L2.95399 17.9978L3.60309 18.3736C3.53711 18.4876 3.50231 18.6169 3.5022 18.7487C3.50209 18.8804 3.53667 19.0098 3.60247 19.1239C3.66827 19.238 3.76296 19.3328 3.87702 19.3987C3.99108 19.4646 4.12048 19.4993 4.2522 19.4993H20.7478C20.8795 19.4993 21.0089 19.4646 21.1229 19.3987C21.237 19.3328 21.3317 19.238 21.3975 19.1239C21.4633 19.0098 21.4979 18.8804 21.4978 18.7487C21.4976 18.6169 21.4628 18.4876 21.3969 18.3736L22.046 17.9978L21.3969 18.3736L13.1491 4.12428C13.0832 4.01046 12.9885 3.91597 12.8746 3.85027C12.7607 3.78458 12.6315 3.75 12.5 3.75Z" fill="${color}"/>
</svg>