
<svg fill="none" height="32" viewBox="0 0 32 32" width="32">
	<g clip-rule="evenodd" fill="${color}" fill-rule="evenodd">
		<path d="m25.7071 6.29289c.3905.39053.3905 1.02369 0 1.41422l-17.99999 17.99999c-.39053.3905-1.02369.3905-1.41422 0-.39052-.3905-.39052-1.0237 0-1.4142l18.00001-18.00001c.3905-.39052 1.0237-.39052 1.4142 0z"/>
		<path d="m6.29289 6.29289c.39053-.39052 1.02369-.39052 1.41422 0l17.99999 18.00001c.3905.3905.3905 1.0237 0 1.4142s-1.0237.3905-1.4142 0l-18.00001-17.99999c-.39052-.39053-.39052-1.02369 0-1.41422z"/>
	</g>
</svg>