<svg width="16" height="17" viewBox="0 0 16 17" fill="none" xmlns="http://www.w3.org/2000/svg">
<path opacity="0.2" d="M8 14.5C11.3137 14.5 14 11.8137 14 8.5C14 5.18629 11.3137 2.5 8 2.5C4.68629 2.5 2 5.18629 2 8.5C2 11.8137 4.68629 14.5 8 14.5Z" fill="white"/>
<path fill-rule="evenodd" clip-rule="evenodd" d="M8 3C4.96243 3 2.5 5.46243 2.5 8.5C2.5 11.5376 4.96243 14 8 14C11.0376 14 13.5 11.5376 13.5 8.5C13.5 5.46243 11.0376 3 8 3ZM1.5 8.5C1.5 4.91015 4.41015 2 8 2C11.5899 2 14.5 4.91015 14.5 8.5C14.5 12.0899 11.5899 15 8 15C4.41015 15 1.5 12.0899 1.5 8.5Z" fill="white"/>
<path fill-rule="evenodd" clip-rule="evenodd" d="M1.8418 6.5C1.8418 6.22386 2.06565 6 2.3418 6H13.6584C13.9345 6 14.1584 6.22386 14.1584 6.5C14.1584 6.77614 13.9345 7 13.6584 7H2.3418C2.06565 7 1.8418 6.77614 1.8418 6.5Z" fill="white"/>
<path fill-rule="evenodd" clip-rule="evenodd" d="M1.8418 10.5C1.8418 10.2239 2.06565 10 2.3418 10H13.6583C13.9344 10 14.1583 10.2239 14.1583 10.5C14.1583 10.7761 13.9344 11 13.6583 11H2.3418C2.06565 11 1.8418 10.7761 1.8418 10.5Z" fill="white"/>
<path fill-rule="evenodd" clip-rule="evenodd" d="M6.69187 4.56812C6.27193 5.54892 6 6.93873 6 8.50007C6 10.0614 6.27193 11.4512 6.69187 12.432C6.90223 12.9233 7.13987 13.2889 7.37828 13.5244C7.61455 13.7578 7.82408 13.839 8 13.839C8.17592 13.839 8.38545 13.7578 8.62172 13.5244C8.86013 13.2889 9.09777 12.9233 9.30813 12.432C9.72807 11.4512 10 10.0614 10 8.50007C10 6.93873 9.72807 5.54892 9.30813 4.56812C9.09777 4.07682 8.86013 3.71121 8.62172 3.47569C8.38545 3.24229 8.17592 3.16113 8 3.16113C7.82408 3.16113 7.61455 3.24229 7.37828 3.47569C7.13987 3.71121 6.90223 4.07682 6.69187 4.56812ZM6.6755 2.76428C7.03742 2.40675 7.48557 2.16113 8 2.16113C8.51443 2.16113 8.96258 2.40675 9.3245 2.76428C9.68429 3.1197 9.98535 3.60917 10.2274 4.17452C10.7123 5.307 11 6.83665 11 8.50007C11 10.1635 10.7123 11.6931 10.2274 12.8256C9.98535 13.391 9.68429 13.8804 9.3245 14.2359C8.96258 14.5934 8.51443 14.839 8 14.839C7.48557 14.839 7.03742 14.5934 6.6755 14.2359C6.31572 13.8804 6.01465 13.391 5.77259 12.8256C5.28771 11.6931 5 10.1635 5 8.50007C5 6.83665 5.28771 5.307 5.77259 4.17452C6.01465 3.60917 6.31572 3.1197 6.6755 2.76428Z" fill="white"/>
</svg>
