<svg width="16" height="17" viewBox="0 0 16 17" fill="none" xmlns="http://www.w3.org/2000/svg">
<path opacity="0.2" d="M2 9V12.5C2 12.7652 2.10536 13.0196 2.29289 13.2071C2.48043 13.3946 2.73478 13.5 3 13.5H4C4.26522 13.5 4.51957 13.3946 4.70711 13.2071C4.89464 13.0196 5 12.7652 5 12.5V10C5 9.73478 4.89464 9.48043 4.70711 9.29289C4.51957 9.10536 4.26522 9 4 9H2Z" fill="white"/>
<path opacity="0.2" d="M14.0918 9H12.0918C11.8266 9 11.5722 9.10536 11.3847 9.29289C11.1972 9.48043 11.0918 9.73478 11.0918 10V12.5C11.0918 12.7652 11.1972 13.0196 11.3847 13.2071C11.5722 13.3946 11.8266 13.5 12.0918 13.5H13.0918C13.357 13.5 13.6114 13.3946 13.7989 13.2071C13.9864 13.0196 14.0918 12.7652 14.0918 12.5V9Z" fill="#FF6600"/>
<path fill-rule="evenodd" clip-rule="evenodd" d="M8.04549 2.50016C8.90193 2.49417 9.75111 2.65748 10.5442 2.98074C11.3385 3.30447 12.0609 3.78221 12.6697 4.38642C13.2785 4.99063 13.7617 5.70936 14.0915 6.50118C14.4212 7.29301 14.591 8.14226 14.591 9V12.5C14.591 12.8978 14.433 13.2794 14.1517 13.5607C13.8703 13.842 13.4888 14 13.091 14H12.091C11.6932 14 11.3116 13.842 11.0303 13.5607C10.749 13.2794 10.591 12.8978 10.591 12.5V10C10.591 9.60218 10.749 9.22065 11.0303 8.93934C11.3116 8.65804 11.6932 8.5 12.091 8.5H13.5682C13.5176 7.94568 13.3831 7.40126 13.1683 6.88562C12.8893 6.21561 12.4804 5.60745 11.9653 5.0962C11.4502 4.58495 10.8389 4.1807 10.1668 3.90678C9.49472 3.63285 8.77504 3.49466 8.04929 3.50016H8.0417C7.31595 3.49466 6.59627 3.63285 5.92417 3.90678C5.25207 4.1807 4.64083 4.58494 4.12569 5.0962C3.61054 5.60745 3.20168 6.21561 2.92266 6.88562C2.70793 7.40126 2.57338 7.94568 2.52277 8.5H4C4.39783 8.5 4.77936 8.65804 5.06066 8.93934C5.34196 9.22065 5.5 9.60218 5.5 10V12.5C5.5 12.8978 5.34196 13.2794 5.06066 13.5607C4.77936 13.842 4.39783 14 4 14H3C2.60218 14 2.22064 13.842 1.93934 13.5607C1.65804 13.2794 1.5 12.8978 1.5 12.5V9C1.5 8.14227 1.66977 7.29301 1.99951 6.50118C2.32925 5.70936 2.81246 4.99063 3.42126 4.38642C4.03007 3.78221 4.75245 3.30447 5.54675 2.98074C6.33988 2.65748 7.18907 2.49417 8.04549 2.50016ZM2.5 9.5V12.5C2.5 12.6326 2.55268 12.7598 2.64645 12.8536C2.74022 12.9473 2.86739 13 3 13H4C4.13261 13 4.25979 12.9473 4.35355 12.8536C4.44732 12.7598 4.5 12.6326 4.5 12.5V10C4.5 9.8674 4.44732 9.74022 4.35355 9.64645C4.25979 9.55268 4.13261 9.5 4 9.5H2.5ZM13.591 9.5H12.091C11.9584 9.5 11.8312 9.55268 11.7374 9.64645C11.6437 9.74022 11.591 9.8674 11.591 10V12.5C11.591 12.6326 11.6437 12.7598 11.7374 12.8536C11.8312 12.9473 11.9584 13 12.091 13H13.091C13.2236 13 13.3508 12.9473 13.4445 12.8536C13.5383 12.7598 13.591 12.6326 13.591 12.5V9.5Z" fill="white"/>
</svg>
