<svg width="16" height="17" viewBox="0 0 16 17" fill="none" xmlns="http://www.w3.org/2000/svg">
<g clip-path="url(#clip0_34207_34580)">
<path opacity="0.2" d="M8.25 14.0003C8.25 14.0003 2 10.5003 2 6.25027C2 5.50027 2.26 4.77027 2.735 4.19027C3.21 3.61027 3.875 3.21027 4.61 3.06527C5.345 2.91527 6.11 3.03027 6.775 3.38027C7.44 3.73527 7.96 4.30527 8.25 4.99527C8.54 4.30027 9.06 3.73027 9.725 3.38027C10.39 3.02527 11.155 2.91527 11.89 3.06527C12.625 3.21527 13.29 3.61027 13.765 4.19027C14.24 4.77027 14.5 5.50027 14.5 6.25027C14.5 10.5003 8.25 14.0003 8.25 14.0003Z" fill="white"/>
<path d="M7.75 10.4996C7.585 10.4996 7.425 10.4146 7.335 10.2746L5.75 7.89965L5.165 8.77465C5.07 8.91465 4.915 8.99965 4.75 8.99965H2.25C1.975 8.99965 1.75 8.77465 1.75 8.49965C1.75 8.22465 1.975 7.99965 2.25 7.99965H4.48L5.33 6.72465C5.515 6.44465 5.975 6.44465 6.16 6.72465L7.745 9.09965L8.33 8.22465C8.425 8.08465 8.58 7.99965 8.745 7.99965H10.245C10.52 7.99965 10.745 8.22465 10.745 8.49965C10.745 8.77465 10.52 8.99965 10.245 8.99965H9.015L8.165 10.2746C8.07 10.4146 7.915 10.4996 7.75 10.4996V10.4996Z" fill="white"/>
<path d="M8.25086 14.4999C8.16586 14.4999 8.08086 14.4799 8.00586 14.4349C7.90086 14.3749 5.41086 12.9699 3.54086 10.8299C3.36086 10.6199 3.38086 10.3049 3.58586 10.1249C3.79586 9.9449 4.11086 9.9649 4.29086 10.1699C5.72086 11.8049 7.58586 13.0149 8.24586 13.4199C9.37086 12.7299 13.9959 9.6999 13.9959 6.2499C13.9959 5.6149 13.7759 4.9949 13.3709 4.5049C12.9709 4.0149 12.4059 3.6749 11.7859 3.5499C11.1609 3.4249 10.5109 3.5199 9.95586 3.8199C9.39586 4.1199 8.95586 4.6049 8.71086 5.1899C8.63086 5.3749 8.45086 5.4949 8.25086 5.4949C8.05086 5.4949 7.86586 5.3749 7.79086 5.1899C7.54586 4.6049 7.10586 4.1199 6.54586 3.8199C5.98586 3.5199 5.33586 3.4249 4.71586 3.5499C4.09586 3.6749 3.53086 4.0149 3.13086 4.5049C2.73086 4.9949 2.50586 5.6149 2.50586 6.2499C2.50586 6.3249 2.50586 6.3999 2.51086 6.4699C2.52586 6.7449 2.31586 6.9799 2.04086 6.9949C1.77086 7.0149 1.53086 6.7999 1.51586 6.5249C1.51086 6.4349 1.50586 6.3399 1.50586 6.2449C1.50586 5.3799 1.80586 4.5349 2.35586 3.8699C2.90586 3.2049 3.66586 2.7399 4.51586 2.5699C5.36586 2.3999 6.25086 2.5299 7.01586 2.9349C7.50586 3.1949 7.92586 3.5599 8.25586 3.9949C8.58586 3.5599 9.00586 3.1949 9.49586 2.9349C10.2609 2.5299 11.1459 2.3999 11.9959 2.5699C12.8459 2.7399 13.6109 3.1999 14.1609 3.8699C14.7109 4.5399 15.0109 5.3799 15.0109 6.2449C15.0109 10.7349 8.77086 14.2849 8.50586 14.4299C8.43086 14.4699 8.34586 14.4949 8.26086 14.4949L8.25086 14.4999Z" fill="white"/>
</g>
<defs>
<clipPath id="clip0_34207_34580">
<rect width="13.5" height="12" fill="white" transform="translate(1.5 2.5)"/>
</clipPath>
</defs>
</svg>
