<svg width="16" height="17" viewBox="0 0 16 17" fill="none" xmlns="http://www.w3.org/2000/svg">
<path opacity="0.2" d="M9.49963 13.5001V10.5C9.49963 10.3674 9.44696 10.2402 9.35319 10.1465C9.25942 10.0527 9.13224 10 8.99963 10H6.99963C6.86703 10 6.73985 10.0527 6.64608 10.1465C6.55231 10.2402 6.49963 10.3674 6.49963 10.5V13.5001C6.49963 13.6327 6.44696 13.7599 6.35321 13.8536C6.25945 13.9474 6.13229 14.0001 5.9997 14.0001L3.00006 14.0005C2.9344 14.0005 2.86937 13.9876 2.8087 13.9624C2.74803 13.9373 2.6929 13.9005 2.64647 13.8541C2.60003 13.8076 2.5632 13.7525 2.53807 13.6918C2.51293 13.6312 2.5 13.5661 2.5 13.5005V7.72171C2.5 7.65205 2.51456 7.58315 2.54273 7.51945C2.57091 7.45574 2.61209 7.39863 2.66363 7.35176L7.66329 2.80584C7.75532 2.72216 7.87525 2.67579 7.99964 2.67578C8.12403 2.67578 8.24396 2.72214 8.336 2.80582L13.3363 7.35176C13.3879 7.39862 13.4291 7.45574 13.4573 7.51945C13.4854 7.58316 13.5 7.65206 13.5 7.72173V13.5005C13.5 13.5662 13.4871 13.6312 13.4619 13.6918C13.4368 13.7525 13.4 13.8076 13.3535 13.8541C13.3071 13.9005 13.252 13.9373 13.1913 13.9624C13.1306 13.9876 13.0656 14.0005 12.9999 14.0005L9.99957 14.0001C9.86697 14.0001 9.73981 13.9474 9.64606 13.8536C9.5523 13.7599 9.49963 13.6327 9.49963 13.5001V13.5001Z" fill="white"/>
<path fill-rule="evenodd" clip-rule="evenodd" d="M7.32692 2.4359C7.51099 2.26853 7.75084 2.17579 7.99962 2.17578C8.24841 2.17577 8.48826 2.2685 8.67235 2.43585L13.6727 6.9818C13.7758 7.07552 13.8582 7.18976 13.9145 7.31718C13.9709 7.4446 14 7.58239 14 7.72173V13.5005C14 13.6318 13.9741 13.7619 13.9239 13.8832C13.8736 14.0045 13.7999 14.1148 13.7071 14.2076C13.6142 14.3005 13.5039 14.3742 13.3826 14.4244C13.2613 14.4746 13.1312 14.5005 12.9999 14.5005L9.99951 14.5001C9.73431 14.5001 9.47999 14.3947 9.29248 14.2071C9.10497 14.0196 8.99963 13.7653 8.99963 13.5001V10.5L6.99963 10.5V13.5001C6.99963 13.7653 6.89429 14.0196 6.70679 14.2071C6.51928 14.3947 6.26496 14.5001 5.99976 14.5001L3.00013 14.5005C2.86879 14.5005 2.73874 14.4746 2.6174 14.4244C2.49606 14.3741 2.38581 14.3005 2.29294 14.2076C2.20007 14.1148 2.1264 14.0045 2.07613 13.8832C2.02587 13.7619 2 13.6318 2 13.5005V7.72171C2 7.58239 2.02911 7.4446 2.08547 7.31719C2.14183 7.18978 2.22418 7.07555 2.32726 6.98182L7.32692 2.4359ZM13 7.72173L7.99966 3.17578L3 7.72171V13.5005L5.99963 13.5001V10.5C5.99963 10.2348 6.10499 9.98045 6.29253 9.79292C6.48006 9.60538 6.73442 9.50002 6.99963 9.50002H8.99963C9.26485 9.50002 9.51921 9.60538 9.70674 9.79292C9.89428 9.98045 9.99963 10.2348 9.99963 10.5V13.5001L13 13.5005V7.72173Z" fill="white"/>
</svg>
