<svg width="16" height="17" viewBox="0 0 16 17" fill="none" xmlns="http://www.w3.org/2000/svg">
<g clip-path="url(#clip0_34201_14163)">
<path opacity="0.2" d="M8.08008 5C9.04508 5 9.83008 4.215 9.83008 3.25C9.83008 2.285 9.04508 1.5 8.08008 1.5C7.11508 1.5 6.33008 2.285 6.33008 3.25C6.33008 4.215 7.11508 5 8.08008 5Z" fill="white"/>
<path opacity="0.2" d="M9.705 8.91988L11.875 10.6099C12.015 10.7499 12.205 10.8299 12.405 10.8299C12.605 10.8299 12.795 10.7499 12.935 10.6099C13.075 10.4699 13.155 10.2799 13.155 10.0799C13.155 9.87988 13.075 9.68988 12.935 9.54988L10.46 6.36988C10.345 6.25488 10.205 6.15988 10.055 6.09988C9.905 6.03988 9.74 6.00488 9.575 6.00488H6.575C6.41 6.00488 6.25 6.03488 6.095 6.09988C5.94 6.16488 5.805 6.25488 5.69 6.36988L3.22 9.54988C3.15 9.61988 3.095 9.69988 3.055 9.79488C3.015 9.88488 3 9.98488 3 10.0799C3 10.1749 3.02 10.2749 3.055 10.3649C3.095 10.4549 3.15 10.5399 3.22 10.6099C3.29 10.6799 3.37 10.7349 3.465 10.7749C3.555 10.8149 3.655 10.8299 3.75 10.8299C3.845 10.8299 3.945 10.8099 4.035 10.7749C4.125 10.7399 4.21 10.6799 4.28 10.6099L6.45 8.91988L4.715 14.3949C4.63 14.5749 4.62 14.7799 4.69 14.9699C4.76 15.1549 4.9 15.3099 5.08 15.3949C5.26 15.4799 5.465 15.4899 5.655 15.4199C5.84 15.3499 5.995 15.2099 6.08 15.0299L8.08 11.8799L10.08 15.0299C10.165 15.2099 10.315 15.3499 10.505 15.4149C10.69 15.4849 10.9 15.4749 11.08 15.3899C11.26 15.3049 11.4 15.1549 11.47 14.9699C11.54 14.7849 11.53 14.5749 11.445 14.3949L9.71 8.91988H9.705Z" fill="white"/>
<path d="M8.08008 5.5C6.84008 5.5 5.83008 4.49 5.83008 3.25C5.83008 2.01 6.84008 1 8.08008 1C9.32008 1 10.3301 2.01 10.3301 3.25C10.3301 4.49 9.32008 5.5 8.08008 5.5ZM8.08008 2C7.39008 2 6.83008 2.56 6.83008 3.25C6.83008 3.94 7.39008 4.5 8.08008 4.5C8.77008 4.5 9.33008 3.94 9.33008 3.25C9.33008 2.56 8.77008 2 8.08008 2Z" fill="white"/>
<path d="M5.39586 15.96C5.21586 15.96 5.03586 15.92 4.87086 15.84C4.56586 15.7 4.34086 15.45 4.22586 15.135C4.11586 14.835 4.12586 14.505 4.25086 14.215L5.49086 10.3L4.61086 10.985C4.50086 11.09 4.37086 11.175 4.23086 11.23C3.92586 11.355 3.58086 11.355 3.27586 11.23C3.12586 11.165 2.98586 11.075 2.87086 10.96C2.75086 10.84 2.66086 10.705 2.60086 10.555C2.54086 10.405 2.50586 10.245 2.50586 10.08C2.50586 9.915 2.53586 9.755 2.60086 9.6C2.66086 9.46 2.74086 9.33 2.84586 9.22L5.30586 6.06C5.30586 6.06 5.33086 6.03 5.34586 6.015C5.51086 5.85 5.70086 5.725 5.91586 5.635C6.13086 5.545 6.35086 5.5 6.58586 5.5H9.59086C9.82086 5.5 10.0459 5.545 10.2559 5.635C10.4709 5.725 10.6609 5.85 10.8259 6.015C10.8409 6.03 10.8559 6.045 10.8659 6.06L13.3259 9.22C13.5459 9.455 13.6659 9.755 13.6659 10.08C13.6659 10.405 13.5309 10.73 13.3009 10.965C12.8409 11.425 12.0309 11.435 11.5609 10.99L10.6809 10.305L11.9209 14.22C12.0459 14.515 12.0559 14.84 11.9459 15.14C11.8309 15.455 11.6009 15.705 11.3009 15.845C11.0009 15.985 10.6609 16 10.3459 15.885C10.0409 15.775 9.80086 15.56 9.65586 15.275L8.09086 12.815L6.52586 15.275C6.38586 15.56 6.13586 15.78 5.83586 15.89C5.69586 15.94 5.55086 15.965 5.40586 15.965L5.39586 15.96ZM6.45086 8.42C6.55086 8.42 6.65086 8.45 6.73586 8.51C6.91586 8.635 6.99086 8.865 6.92586 9.07L5.19086 14.545C5.19086 14.545 5.17586 14.585 5.16586 14.605C5.13586 14.665 5.13586 14.73 5.15586 14.795C5.18086 14.86 5.22586 14.91 5.28586 14.935C5.34586 14.96 5.41586 14.965 5.47586 14.945C5.53586 14.925 5.59086 14.875 5.61586 14.815C5.62586 14.795 5.63586 14.775 5.64586 14.76L7.64586 11.61C7.83086 11.32 8.30586 11.32 8.49086 11.61L10.4909 14.76C10.4909 14.76 10.5109 14.795 10.5209 14.815C10.5509 14.875 10.6009 14.92 10.6609 14.945C10.7209 14.965 10.7909 14.965 10.8509 14.935C10.9109 14.905 10.9559 14.855 10.9809 14.795C11.0009 14.735 11.0009 14.665 10.9709 14.605C10.9609 14.585 10.9559 14.565 10.9459 14.545L9.21086 9.07C9.14586 8.86 9.22086 8.635 9.40086 8.51C9.58086 8.385 9.82086 8.39 9.99586 8.525L12.1659 10.215C12.1659 10.215 12.1959 10.24 12.2109 10.255C12.3059 10.35 12.4709 10.35 12.5659 10.255C12.6109 10.21 12.6409 10.145 12.6409 10.08C12.6409 10.015 12.6159 9.95 12.5659 9.905C12.5509 9.89 12.5359 9.875 12.5259 9.86L10.0709 6.705C10.0059 6.645 9.93086 6.595 9.84586 6.56C9.75586 6.52 9.66086 6.505 9.56086 6.505H6.56086C6.46586 6.505 6.36586 6.525 6.27586 6.56C6.19086 6.595 6.11586 6.645 6.05086 6.705L3.59586 9.86C3.59586 9.86 3.57086 9.895 3.55586 9.91C3.53086 9.93 3.51586 9.96 3.50586 9.99C3.49086 10.02 3.48586 10.055 3.48586 10.085C3.48586 10.115 3.49086 10.15 3.50586 10.18C3.52086 10.21 3.53586 10.24 3.56086 10.265C3.58586 10.29 3.61086 10.305 3.64086 10.32C3.70086 10.345 3.77086 10.345 3.83086 10.32C3.86086 10.31 3.89086 10.29 3.91086 10.265C3.92586 10.25 3.94086 10.235 3.95586 10.225L6.12586 8.535C6.21586 8.465 6.32586 8.43 6.43086 8.43L6.45086 8.42Z" fill="white"/>
</g>
<defs>
<clipPath id="clip0_34201_14163">
<rect width="11.155" height="14.96" fill="white" transform="translate(2.5 1)"/>
</clipPath>
</defs>
</svg>
