<svg width="16" height="17" viewBox="0 0 16 17" fill="none" xmlns="http://www.w3.org/2000/svg">
<path opacity="0.2" d="M2 5.5L8 9L14 5.5L8 2L2 5.5Z" fill="white"/>
<path fill-rule="evenodd" clip-rule="evenodd" d="M1.56819 11.2481C1.70733 11.0096 2.01349 10.9291 2.25202 11.0682L8.00008 14.4212L13.7481 11.0682C13.9867 10.9291 14.2928 11.0096 14.432 11.2481C14.5711 11.4867 14.4905 11.7928 14.252 11.932L8.25202 15.432C8.09634 15.5228 7.90383 15.5228 7.74815 15.432L1.74815 11.932C1.50962 11.7928 1.42905 11.4867 1.56819 11.2481Z" fill="white"/>
<path fill-rule="evenodd" clip-rule="evenodd" d="M1.56819 8.24815C1.70733 8.00962 2.01349 7.92905 2.25202 8.06819L8.00008 11.4212L13.7481 8.06819C13.9867 7.92905 14.2928 8.00962 14.432 8.24815C14.5711 8.48667 14.4905 8.79283 14.252 8.93197L8.25202 12.432C8.09634 12.5228 7.90383 12.5228 7.74815 12.432L1.74815 8.93197C1.50962 8.79283 1.42905 8.48667 1.56819 8.24815Z" fill="white"/>
<path fill-rule="evenodd" clip-rule="evenodd" d="M7.74807 1.56811C7.90375 1.4773 8.09626 1.4773 8.25194 1.56811L14.2519 5.06811C14.4055 5.15772 14.5 5.32217 14.5 5.5C14.5 5.67783 14.4055 5.84228 14.2519 5.93189L8.25194 9.43189C8.09626 9.5227 7.90375 9.5227 7.74807 9.43189L1.74806 5.93189C1.59446 5.84228 1.5 5.67783 1.5 5.5C1.5 5.32217 1.59446 5.15772 1.74806 5.06811L7.74807 1.56811ZM2.99232 5.5L8 8.42115L13.0077 5.5L8 2.57885L2.99232 5.5Z" fill="white"/>
</svg>
