<svg width="16" height="17" viewBox="0 0 16 17" fill="none" xmlns="http://www.w3.org/2000/svg">
<path opacity="0.2" d="M8.27569 12.4208L11.4279 14.4179C11.8308 14.6732 12.3311 14.2935 12.2115 13.8232L11.3008 10.2405C11.2752 10.1407 11.2782 10.0357 11.3096 9.9376C11.3409 9.83946 11.3994 9.75218 11.4781 9.68577L14.3049 7.33306C14.6763 7.02392 14.4846 6.40751 14.0074 6.37654L10.3159 6.13696C10.2165 6.12986 10.1211 6.09465 10.0409 6.03545C9.96069 5.97625 9.89896 5.89548 9.86289 5.80255L8.48612 2.33549C8.44869 2.23685 8.38215 2.15194 8.29532 2.09201C8.2085 2.03209 8.1055 2 8 2C7.89451 2 7.79151 2.03209 7.70468 2.09201C7.61786 2.15194 7.55131 2.23685 7.51389 2.33549L6.13712 5.80255C6.10104 5.89548 6.03932 5.97625 5.95912 6.03545C5.87892 6.09465 5.78355 6.12986 5.68412 6.13696L1.99263 6.37654C1.51544 6.40751 1.32373 7.02392 1.69515 7.33306L4.52186 9.68577C4.60063 9.75218 4.65907 9.83946 4.69044 9.9376C4.72181 10.0357 4.72485 10.1407 4.6992 10.2405L3.85459 13.563C3.71111 14.1274 4.31143 14.583 4.79495 14.2767L7.72431 12.4208C7.8067 12.3683 7.90234 12.3405 8 12.3405C8.09767 12.3405 8.19331 12.3683 8.27569 12.4208V12.4208Z" fill="white"/>
<path fill-rule="evenodd" clip-rule="evenodd" d="M7.4193 1.6805C7.58962 1.56295 7.79167 1.5 7.99862 1.5C8.20557 1.5 8.40762 1.56295 8.57794 1.6805C8.74704 1.7972 8.87691 1.96222 8.95061 2.15392L10.3276 5.62161C10.3294 5.62623 10.3325 5.63024 10.3365 5.63319C10.3403 5.63601 10.3448 5.63774 10.3495 5.63818C10.3497 5.6382 10.3499 5.63822 10.3501 5.63823L14.0384 5.87759C14.99 5.93935 15.3238 7.13433 14.6233 7.71736L11.799 10.0681C11.7988 10.0682 11.7987 10.0684 11.7985 10.0685C11.7919 10.0742 11.7871 10.0816 11.7844 10.0899C11.7817 10.0983 11.7815 10.1074 11.7837 10.1161L11.784 10.1173L12.6948 13.7C12.9161 14.5706 11.9769 15.3585 11.1589 14.8403L8.00672 12.8432L8.27431 12.4208L8.00581 12.8426C8.00366 12.8412 8.00117 12.8405 7.99862 12.8405C7.99706 12.8405 7.99551 12.8408 7.99405 12.8413C7.99314 12.8416 7.99226 12.8421 7.99143 12.8426L7.99052 12.8432L5.06117 14.6991C4.16266 15.2683 3.12339 14.4045 3.36862 13.4398L4.21323 10.1173L4.21356 10.1161C4.21578 10.1074 4.21552 10.0983 4.2128 10.0899C4.21016 10.0816 4.20531 10.0742 4.19877 10.0685C4.19859 10.0684 4.1984 10.0682 4.19822 10.0681L1.37391 7.71736C0.67342 7.13433 1.00722 5.93935 1.95886 5.87759L5.6477 5.63818C5.65243 5.63774 5.65695 5.63601 5.66078 5.63319C5.66476 5.63025 5.66783 5.62623 5.66962 5.62161L5.67102 5.61801L7.04663 2.15392C7.12033 1.96222 7.25021 1.7972 7.4193 1.6805ZM8.5423 11.9987C8.54247 11.9988 8.54264 11.9989 8.54281 11.999L11.6941 13.9955C11.6975 13.9977 11.6999 13.9989 11.7013 13.9994L11.7021 13.9998C11.7038 13.9993 11.7073 13.9979 11.712 13.9944C11.7194 13.9888 11.7241 13.9818 11.7262 13.976C11.7272 13.9734 11.7279 13.9704 11.7281 13.9667C11.7283 13.9632 11.7282 13.9566 11.7256 13.9464L10.8152 10.365C10.8151 10.3648 10.8151 10.3646 10.815 10.3644C10.7661 10.1736 10.772 9.97292 10.8319 9.78534C10.892 9.59756 11.0038 9.43053 11.1545 9.30347L11.1569 9.30146L13.9836 6.94876C13.9901 6.94334 13.9929 6.9394 13.9942 6.93746C13.9955 6.93536 13.9965 6.93309 13.9973 6.93017C13.999 6.92358 13.9996 6.91222 13.9955 6.89897C13.9914 6.88569 13.9852 6.87912 13.9833 6.87753C13.9827 6.87697 13.9826 6.87698 13.9826 6.87697C13.9824 6.87693 13.9819 6.8767 13.9806 6.87642C13.9794 6.87614 13.9772 6.87572 13.9736 6.87549L10.2789 6.6357C10.085 6.62185 9.89896 6.55318 9.74255 6.43771C9.58675 6.3227 9.46669 6.16596 9.39622 5.98561L8.02003 2.52002L8.01725 2.51286C8.01582 2.50908 8.01327 2.50582 8.00994 2.50353C8.00661 2.50123 8.00267 2.5 7.99862 2.5C7.99458 2.5 7.99063 2.50123 7.9873 2.50353C7.98397 2.50582 7.98142 2.50908 7.97999 2.51286L7.97721 2.52002L6.60102 5.98561C6.53055 6.16596 6.41049 6.3227 6.2547 6.43771C6.09828 6.55318 5.91229 6.62184 5.71837 6.63569L5.71512 6.63592L2.02363 6.87549C2.02008 6.87572 2.0178 6.87614 2.01659 6.87642C2.01588 6.87658 2.01538 6.87673 2.01507 6.87683C2.01486 6.8769 2.01512 6.87681 2.01507 6.87683C2.01507 6.87684 2.01456 6.87697 2.0139 6.87753C2.01201 6.87912 2.00585 6.88569 2.00172 6.89897C1.9976 6.91222 1.99822 6.92358 1.99996 6.93017C2.00073 6.93309 2.00175 6.93536 2.00307 6.93746C2.0043 6.9394 2.00713 6.94334 2.01363 6.94876L4.84034 9.30147L4.84273 9.30347C4.99346 9.43053 5.10528 9.59756 5.16531 9.78534C5.22527 9.97289 5.23114 10.1735 5.18227 10.3642C5.18221 10.3645 5.18215 10.3647 5.18208 10.365L4.3378 13.6862C4.31942 13.7585 4.34502 13.8136 4.39054 13.8481C4.41395 13.8659 4.43781 13.8737 4.45703 13.875C4.47311 13.8761 4.49538 13.8737 4.52598 13.8543L7.45443 11.999C7.4546 11.9989 7.45477 11.9988 7.45494 11.9987C7.61745 11.8954 7.80604 11.8405 7.99862 11.8405C8.1912 11.8405 8.37979 11.8954 8.5423 11.9987Z" fill="white"/>
</svg>
