<svg width="16" height="17" viewBox="0 0 16 17" fill="none" xmlns="http://www.w3.org/2000/svg">
<path opacity="0.2" d="M2.5 8L8 9L13.5 8L12.1005 13.1316C12.0716 13.2374 12.0088 13.3308 11.9216 13.3974C11.8344 13.4639 11.7278 13.5 11.6181 13.5H4.3819C4.27221 13.5 4.16557 13.4639 4.0784 13.3974C3.99123 13.3308 3.92838 13.2374 3.89952 13.1316L2.5 8Z" fill="white"/>
<path fill-rule="evenodd" clip-rule="evenodd" d="M3.7749 2.20529C3.94924 2.07214 4.16253 2 4.3819 2H11.6181C11.8375 2 12.0508 2.07214 12.2251 2.20529C12.3994 2.33845 12.5251 2.52524 12.5829 2.73688L13.9824 7.86844C14.0059 7.95457 14.0059 8.04543 13.9824 8.13156L12.5829 13.2631C12.5251 13.4748 12.3994 13.6616 12.2251 13.7947C12.0508 13.9279 11.8375 14 11.6181 14H4.3819C4.16253 14 3.94924 13.9279 3.7749 13.7947C3.60057 13.6616 3.47486 13.4748 3.41713 13.2631L2.01762 8.13156C1.99413 8.04543 1.99413 7.95457 2.01762 7.86844L3.41713 2.73688C3.47486 2.52524 3.60057 2.33845 3.7749 2.20529ZM11.6181 3L4.3819 3L3.01826 8L4.3819 13H11.6181L12.9817 8L11.6181 3Z" fill="white"/>
<path fill-rule="evenodd" clip-rule="evenodd" d="M8 8.5C8.27614 8.5 8.5 8.72386 8.5 9V13.5C8.5 13.7761 8.27614 14 8 14C7.72386 14 7.5 13.7761 7.5 13.5V9C7.5 8.72386 7.72386 8.5 8 8.5Z" fill="white"/>
<path fill-rule="evenodd" clip-rule="evenodd" d="M2.00815 7.91064C2.05755 7.63896 2.31784 7.45875 2.58953 7.50815L8.00009 8.49189L13.4106 7.50815C13.6823 7.45875 13.9426 7.63896 13.992 7.91064C14.0414 8.18233 13.8612 8.44262 13.5895 8.49202L8.08953 9.49202C8.03039 9.50278 7.96979 9.50278 7.91064 9.49202L2.41064 8.49202C2.13896 8.44262 1.95875 8.18233 2.00815 7.91064Z" fill="white"/>
<path fill-rule="evenodd" clip-rule="evenodd" d="M5.5 6C5.5 5.72386 5.72386 5.5 6 5.5H10C10.2761 5.5 10.5 5.72386 10.5 6C10.5 6.27614 10.2761 6.5 10 6.5H6C5.72386 6.5 5.5 6.27614 5.5 6Z" fill="white"/>
<path fill-rule="evenodd" clip-rule="evenodd" d="M6.30003 13.1C6.52094 13.2657 6.56572 13.5791 6.40003 13.8L4.90003 15.8C4.73434 16.0209 4.42094 16.0657 4.20003 15.9C3.97912 15.7343 3.93434 15.4209 4.10003 15.2L5.60003 13.2C5.76572 12.9791 6.07912 12.9343 6.30003 13.1Z" fill="white"/>
<path fill-rule="evenodd" clip-rule="evenodd" d="M9.70003 13.1C9.92094 12.9343 10.2343 12.9791 10.4 13.2L11.9 15.2C12.0657 15.4209 12.0209 15.7343 11.8 15.9C11.5791 16.0657 11.2657 16.0209 11.1 15.8L9.60003 13.8C9.43434 13.5791 9.47912 13.2657 9.70003 13.1Z" fill="white"/>
</svg>
