<svg width="50" height="51" viewBox="0 0 50 51" fill="none" xmlns="http://www.w3.org/2000/svg">
    <rect y="0.5" width="50" height="50" rx="25" fill="#F7931A"/>
    <path d="M33.7 22.5479C34.0902 20.0524 32.1046 18.7108 29.3895 17.8159L30.2702 14.4353L28.1199 13.9225L27.2624 17.214C26.6971 17.0792 26.1165 16.952 25.5395 16.826L26.4031 13.5128L24.254 13L23.3726 16.3794C22.9047 16.2774 22.4454 16.1766 21.9995 16.0705L22.0019 16.06L19.0364 15.3514L18.4644 17.5492C18.4644 17.5492 20.0598 17.8991 20.0261 17.9208C20.8971 18.1288 21.0545 18.6803 21.0281 19.1176L20.0249 22.9688C20.0849 22.9834 20.1627 23.0045 20.2485 23.0373C20.1768 23.0203 20.1003 23.0016 20.0212 22.9834L18.615 28.3783C18.5084 28.6315 18.2384 29.0113 17.6296 28.8671C17.651 28.897 16.0666 28.4938 16.0666 28.4938L14.999 30.8493L17.7974 31.5168C18.318 31.6417 18.8281 31.7724 19.3304 31.8954L18.4405 35.3147L20.5884 35.8275L21.4697 32.4446C22.0565 32.597 22.6261 32.7377 23.1834 32.8701L22.3051 36.2372L24.4555 36.75L25.3454 33.3372C29.0122 34.0013 31.7695 33.7334 32.9302 30.5597C33.8654 28.0044 32.8836 26.5304 30.9543 25.5692C32.3593 25.2592 33.4177 24.3748 33.7 22.5479ZM28.7868 29.1408C28.1223 31.6962 23.6262 30.3148 22.1685 29.9684L23.3494 25.4385C24.807 25.7867 29.4814 26.4759 28.7868 29.1408ZM29.452 22.511C28.8456 24.8354 25.1035 23.6545 23.8896 23.3649L24.9602 19.2565C26.1741 19.546 30.0834 20.0864 29.452 22.511Z" fill="white"/>
</svg>
