<svg width="43" height="236" viewBox="0 0 43 236" fill="none" xmlns="http://www.w3.org/2000/svg">
<path d="M34.2028 235.694C34.5861 236.092 35.2191 236.103 35.6167 235.72L42.0966 229.474C42.4943 229.091 42.5059 228.458 42.1227 228.06C41.7394 227.663 41.1063 227.651 40.7087 228.034L34.9488 233.586L29.3969 227.826C29.0136 227.428 28.3805 227.417 27.9829 227.8C27.5853 228.183 27.5736 228.816 27.9569 229.214L34.2028 235.694ZM0.0386031 1.27517C0.298093 2.18179 0.563071 3.11847 0.833161 4.08436L2.75927 3.54576C2.48813 2.57611 2.22205 1.63552 1.9614 0.724834L0.0386031 1.27517ZM2.40655 9.83014C2.89575 11.6524 3.39761 13.5542 3.9103 15.5316L5.84629 15.0297C5.33221 13.0469 4.82889 11.1395 4.33816 9.31159L2.40655 9.83014ZM5.37262 21.2622C5.84028 23.1236 6.31498 25.0405 6.79546 27.0101L8.73848 26.5361C8.25693 24.5621 7.78113 22.6408 7.31234 20.7748L5.37262 21.2622ZM8.18109 32.7706C8.62776 34.6537 9.07823 36.5782 9.53156 38.5421L11.4803 38.0923C11.0261 36.1245 10.5747 34.196 10.1271 32.309L8.18109 32.7706ZM10.8486 44.3247C11.2755 46.2242 11.704 48.1561 12.1335 50.1186L14.0872 49.6911C13.657 47.7248 13.2276 45.7893 12.7999 43.8862L10.8486 44.3247ZM13.383 55.9052C13.7886 57.8086 14.1943 59.7379 14.5996 61.6914L16.5579 61.2852C16.1519 59.3281 15.7454 57.3953 15.3391 55.4884L13.383 55.9052ZM15.7863 67.4908C16.1733 69.4079 16.5592 71.346 16.9435 73.3038L18.9061 72.9186C18.5211 70.9572 18.1345 69.0156 17.7468 67.0951L15.7863 67.4908ZM18.0709 79.1301C18.438 81.0546 18.803 82.9964 19.1656 84.9542L21.1321 84.59C20.769 82.6287 20.4033 80.6834 20.0355 78.7554L18.0709 79.1301ZM20.2266 90.7723C20.5734 92.703 20.9172 94.6479 21.2578 96.6058L23.2282 96.2631C22.887 94.3015 22.5425 92.3531 22.1952 90.4188L20.2266 90.7723ZM22.2581 102.453C22.5839 104.39 22.9062 106.339 23.2244 108.298L25.1985 107.977C24.8797 106.014 24.5568 104.062 24.2304 102.121L22.2581 102.453ZM24.1563 114.141C24.4605 116.085 24.7604 118.037 25.0556 119.998L27.0333 119.701C26.7375 117.736 26.437 115.779 26.1322 113.832L24.1563 114.141ZM25.9208 125.866C26.2018 127.812 26.4778 129.765 26.7484 131.725L28.7296 131.451C28.4584 129.488 28.1818 127.53 27.9003 125.58L25.9208 125.866ZM27.5402 137.594C27.7975 139.549 28.0492 141.509 28.2948 143.473L30.2793 143.225C30.0332 141.256 29.781 139.292 29.5231 137.333L27.5402 137.594ZM29.01 149.351C29.2415 151.309 29.4666 153.27 29.685 155.234L31.6728 155.013C31.4538 153.045 31.2282 151.079 30.9961 149.116L29.01 149.351ZM30.3188 161.124C30.5228 163.087 30.7198 165.051 30.9094 167.017L32.9001 166.825C32.7101 164.854 32.5126 162.885 32.3081 160.917L30.3188 161.124ZM31.4553 172.914C31.6297 174.881 31.7963 176.848 31.9547 178.815L33.9483 178.654C33.7894 176.682 33.6223 174.709 33.4475 172.737L31.4553 172.914ZM32.4055 184.716C32.5478 186.688 32.6814 188.658 32.8061 190.626L34.8021 190.5C34.677 188.526 34.543 186.55 34.4003 184.572L32.4055 184.716ZM33.1536 196.538C33.2605 198.511 33.3579 200.481 33.4454 202.446L35.4435 202.357C35.3556 200.385 35.2579 198.409 35.1507 196.43L33.1536 196.538ZM33.6794 208.364C33.7475 210.342 33.8052 212.316 33.8521 214.284L35.8515 214.236C35.8045 212.261 35.7466 210.281 35.6782 208.295L33.6794 208.364ZM33.96 220.198C33.985 222.176 33.9984 224.148 33.9999 226.111L35.9999 226.11C35.9984 224.138 35.9849 222.159 35.9599 220.173L33.96 220.198ZM33.9674 232.036C33.9558 233.02 33.9409 234.002 33.9229 234.982L35.9226 235.018C35.9407 234.034 35.9556 233.048 35.9673 232.059L33.9674 232.036Z" fill="#8E8E93"/>
</svg>
