<svg width="63" height="146" viewBox="0 0 63 146" fill="none" xmlns="http://www.w3.org/2000/svg">
    <path
        d="M54.1702 145.707C54.5607 146.098 55.1939 146.098 55.5844 145.707L61.9484 139.343C62.3389 138.953 62.3389 138.319 61.9484 137.929C61.5579 137.538 60.9247 137.538 60.5342 137.929L54.8773 143.586L49.2205 137.929C48.83 137.538 48.1968 137.538 47.8063 137.929C47.4157 138.319 47.4157 138.953 47.8063 139.343L54.1702 145.707ZM1 1C0.389773 1.79223 0.389718 1.79218 0.389667 1.79215C0.389654 1.79214 0.389606 1.7921 0.389581 1.79208C0.389529 1.79204 0.389491 1.79201 0.389465 1.79199C0.389414 1.79195 0.389413 1.79195 0.389464 1.79199C0.389565 1.79207 0.389871 1.7923 0.390379 1.7927C0.391397 1.79348 0.393227 1.7949 0.395864 1.79695C0.401138 1.80106 0.409639 1.80769 0.421315 1.81686C0.444667 1.8352 0.48072 1.86369 0.529066 1.90241C0.625758 1.97985 0.771617 2.0982 0.963373 2.25805C1.34689 2.57775 1.91397 3.06342 2.63845 3.71979L3.98127 2.23762C3.23576 1.5622 2.6479 1.05852 2.24399 0.721814C2.04203 0.553459 1.88605 0.426843 1.77933 0.34137C1.72597 0.298633 1.68492 0.266182 1.6566 0.243941C1.64244 0.23282 1.63146 0.224252 1.62372 0.218227C1.61984 0.215215 1.61678 0.212838 1.61453 0.211096C1.6134 0.210225 1.61248 0.209513 1.61176 0.208959C1.61141 0.208682 1.6111 0.208445 1.61084 0.208248C1.61071 0.208149 1.6106 0.20806 1.6105 0.207981C1.61044 0.207941 1.61038 0.207889 1.61035 0.20787C1.61029 0.20782 1.61023 0.207773 1 1ZM6.94444 7.9158C8.17165 9.18997 9.53447 10.6692 11.0005 12.3594L12.5114 11.0489C11.0218 9.33162 9.63547 7.82674 8.38494 6.52838L6.94444 7.9158ZM14.8607 17.026C16.0334 18.5109 17.2462 20.1094 18.4868 21.8238L20.1071 20.6513C18.8497 18.9137 17.6199 17.2928 16.4303 15.7865L14.8607 17.026ZM21.947 26.8143C23.0182 28.4265 24.1009 30.1211 25.1878 31.8996L26.8943 30.8565C25.794 29.0563 24.6977 27.3403 23.6128 25.7075L21.947 26.8143ZM28.2435 37.1111C29.2044 38.8203 30.1635 40.5957 31.1157 42.4383L32.8924 41.5201C31.9294 39.6564 30.9592 37.8603 29.9868 36.1309L28.2435 37.1111ZM33.8028 47.8646C34.6478 49.6464 35.4834 51.4839 36.3058 53.3777L38.1402 52.581C37.309 50.6668 36.4643 48.8092 35.6099 47.0076L33.8028 47.8646ZM38.6266 58.968C39.3556 60.8064 40.0705 62.6928 40.7684 64.6278L42.6498 63.9491C41.9447 61.9944 41.2224 60.0885 40.4858 58.2308L38.6266 58.968ZM42.7345 70.351C43.3502 72.2358 43.949 74.163 44.5285 76.1329L46.4472 75.5684C45.8621 73.5795 45.2575 71.6335 44.6357 69.7299L42.7345 70.351ZM46.1542 81.9698C46.6607 83.8949 47.1484 85.8579 47.6153 87.8592L49.563 87.4048C49.0918 85.3852 48.5997 83.404 48.0884 81.4609L46.1542 81.9698ZM48.915 93.7977C49.3124 95.7395 49.69 97.7152 50.0464 99.725L52.0157 99.3758C51.6562 97.3487 51.2753 95.3558 50.8744 93.3967L48.915 93.7977ZM51.0254 105.694C51.3232 107.666 51.6003 109.67 51.8556 111.705L53.8401 111.456C53.5827 109.404 53.3033 107.384 53.003 105.395L51.0254 105.694ZM52.5397 117.756C52.7386 119.73 52.9169 121.732 53.0736 123.761L55.0677 123.607C54.9098 121.562 54.7301 119.545 54.5296 117.555L52.5397 117.756ZM53.4707 129.808C53.5794 131.812 53.6672 133.842 53.733 135.899L55.732 135.835C55.6657 133.764 55.5773 131.718 55.4677 129.699L53.4707 129.808ZM53.8611 141.929C53.8719 142.947 53.8773 143.97 53.8773 145H55.8773C55.8773 143.963 55.8718 142.933 55.861 141.908L53.8611 141.929Z"
        fill="white" fill-opacity="0.64" />
</svg>
    